<svg width="1440" height="355" viewBox="0 0 1440 355" fill="none" xmlns="http://www.w3.org/2000/svg">
<rect x="410" y="57" width="191" height="252" fill="white"/>
<rect x="836" y="57" width="191" height="252" fill="white"/>
<mask id="mask0_107:1072" style="mask-type:alpha" maskUnits="userSpaceOnUse" x="0" y="0" width="1440" height="355">
<rect width="1440" height="355" fill="#C4C4C4"/>
</mask>
<g mask="url(#mask0_107:1072)">
<path fill-rule="evenodd" clip-rule="evenodd" d="M328 47H-2V81V134V168H370V81H328V47Z" fill="#FFCA27"/>
<path fill-rule="evenodd" clip-rule="evenodd" d="M1110 46.7846H1440V80.7846V133.785V167.785H1068V80.7846H1110V46.7846Z" fill="#FFCA27"/>
<path fill-rule="evenodd" clip-rule="evenodd" d="M837 141.785H720.5H599V308.785H410V141.785H0V354.785H1440V141.785H1026V308.785H837V141.785Z" fill="#FFCA27"/>
<path d="M1076.33 183.051C1076.33 216.333 1070.06 246.021 1057.52 272.117C1044.98 297.835 1027.88 318.068 1006.21 332.818C984.551 347.568 959.849 354.943 932.106 354.943C904.363 354.943 879.661 347.568 857.998 332.818C836.336 318.068 819.234 297.835 806.693 272.117C794.152 246.021 787.881 216.333 787.881 183.051C787.881 149.769 794.152 120.27 806.693 94.5523C819.234 68.4566 836.336 48.0338 857.998 33.284C879.661 18.156 904.363 10.592 932.106 10.592C959.849 10.592 984.551 18.156 1006.21 33.284C1027.88 48.0338 1044.98 68.4566 1057.52 94.5523C1070.06 120.27 1076.33 149.769 1076.33 183.051ZM1025.6 183.051C1025.6 158.09 1021.6 136.154 1013.62 117.244C1005.64 98.3343 994.622 83.5845 980.561 72.995C966.499 62.4054 950.348 57.1106 932.106 57.1106C913.484 57.1106 897.142 62.4054 883.081 72.995C869.019 83.5845 857.998 98.3343 850.018 117.244C842.037 136.154 838.046 158.09 838.046 183.051C838.046 208.012 842.037 229.948 850.018 248.858C857.998 267.39 869.019 281.95 883.081 292.54C897.142 303.129 913.484 308.424 932.106 308.424C950.348 308.424 966.499 303.129 980.561 292.54C994.622 281.95 1005.64 267.39 1013.62 248.858C1021.6 229.948 1025.6 208.012 1025.6 183.051Z" fill="#536C5A"/>
<path d="M649.092 183.051C649.092 216.333 642.822 246.021 630.281 272.117C617.739 297.835 600.638 318.068 578.975 332.818C557.313 347.568 532.611 354.943 504.868 354.943C477.125 354.943 452.423 347.568 430.761 332.818C409.098 318.068 391.997 297.835 379.455 272.117C366.914 246.021 360.644 216.333 360.644 183.051C360.644 149.769 366.914 120.27 379.455 94.5523C391.997 68.4566 409.098 48.0338 430.761 33.284C452.423 18.156 477.125 10.592 504.868 10.592C532.611 10.592 557.313 18.156 578.975 33.284C600.638 48.0338 617.739 68.4566 630.281 94.5523C642.822 120.27 649.092 149.769 649.092 183.051ZM598.357 183.051C598.357 158.09 594.367 136.154 586.386 117.244C578.405 98.3343 567.384 83.5845 553.323 72.9949C539.261 62.4054 523.11 57.1106 504.868 57.1106C486.246 57.1106 469.904 62.4054 455.843 72.9949C441.782 83.5845 430.761 98.3343 422.78 117.244C414.799 136.154 410.809 158.09 410.809 183.051C410.809 208.012 414.799 229.948 422.78 248.858C430.761 267.39 441.782 281.95 455.843 292.54C469.904 303.129 486.246 308.424 504.868 308.424C523.11 308.424 539.261 303.129 553.323 292.54C567.384 281.95 578.405 267.39 586.386 248.858C594.367 229.948 598.357 208.012 598.357 183.051Z" fill="#536C5A"/>
<path d="M209.447 2.77009C245.944 7.93206 281.75 20.6362 316.863 40.8825C351.6 61.0756 384.97 85.4683 416.974 114.061L392.578 147.855C361.436 121.295 329.841 99.2542 297.794 81.7335C265.37 64.1596 234.296 53.2706 204.572 49.0666C186.135 46.459 166.599 46.1788 145.963 48.2262C125.381 49.8991 104.961 53.123 84.7039 57.8979C64.4467 62.6729 45.6411 68.0351 28.2872 73.9846C10.9333 79.9342 -3.51859 85.7212 -15.0684 91.3456L-26.5529 50.7573C14.2236 33.9865 54.1432 20.5325 93.2059 10.3954C132.322 -0.116195 171.069 -2.65796 209.447 2.77009Z" fill="#536C5A"/>
<path d="M1226.54 2.75033C1190.04 7.90882 1154.24 20.6093 1119.12 40.8519C1084.39 61.0412 1051.02 85.4303 1019.02 114.019L1043.42 147.815C1074.56 121.258 1106.15 99.2208 1138.2 81.7035C1170.62 64.1331 1201.69 53.2472 1231.42 49.046C1249.85 46.4402 1269.39 46.1618 1290.03 48.211C1310.61 49.8858 1331.03 53.1115 1351.29 57.8881C1371.55 62.6647 1390.35 68.0285 1407.71 73.9795C1425.06 79.9305 1439.52 85.7186 1451.07 91.344L1462.55 50.7578C1421.77 33.9838 1381.85 20.5265 1342.78 10.3861C1303.67 -0.128822 1264.92 -2.67407 1226.54 2.75033Z" fill="#536C5A"/>
<path d="M716.386 120.758C697.744 120.758 678.909 124.583 659.883 132.233C641.048 139.884 622.598 149.734 604.532 161.783L614.334 180.431C631.823 169.338 649.216 160.54 666.513 154.037C684.002 147.534 700.339 144.283 715.521 144.283C724.939 144.283 734.74 145.526 744.926 148.012C755.113 150.308 765.106 153.368 774.908 157.193C784.71 161.018 793.743 165.035 802.007 169.242C810.271 173.45 817.094 177.371 822.475 181.005L831.124 161.496C811.905 150.212 792.878 140.649 774.043 132.807C755.209 124.774 735.99 120.758 716.386 120.758Z" fill="#536C5A"/>
</g>
<circle cx="481" cy="122" r="30" fill="black"/>
<circle cx="907" cy="122" r="30" fill="black"/>
</svg>
