<svg width="1014" height="54" viewBox="0 0 1014 54" fill="none" xmlns="http://www.w3.org/2000/svg">
<path fill-rule="evenodd" clip-rule="evenodd" d="M193.854 4.85393C193.854 2.17318 191.681 0 189 0C186.319 0 184.146 2.17318 184.146 4.85393V21.8427H166.854C164.173 21.8427 162 24.0159 162 26.6966C162 29.3774 164.173 31.5506 166.854 31.5506H184.146V49.1461C184.146 51.8268 186.319 54 189 54C191.681 54 193.854 51.8268 193.854 49.1461V31.5506H211.146C213.827 31.5506 216 29.3774 216 26.6966C216 24.0159 213.827 21.8427 211.146 21.8427H193.854V4.85393Z" fill="#C64F4B"/>
<path fill-rule="evenodd" clip-rule="evenodd" d="M673.854 4.85393C673.854 2.17318 671.681 0 669 0C666.319 0 664.146 2.17318 664.146 4.85393V21.8427H646.854C644.173 21.8427 642 24.0159 642 26.6966C642 29.3774 644.173 31.5506 646.854 31.5506H664.146V49.1461C664.146 51.8268 666.319 54 669 54C671.681 54 673.854 51.8268 673.854 49.1461V31.5506H691.146C693.827 31.5506 696 29.3774 696 26.6966C696 24.0159 693.827 21.8427 691.146 21.8427H673.854V4.85393Z" fill="#FFCA27"/>
<path fill-rule="evenodd" clip-rule="evenodd" d="M433.854 4.85393C433.854 2.17318 431.681 0 429 0C426.319 0 424.146 2.17318 424.146 4.85393V21.8427H406.854C404.173 21.8427 402 24.0159 402 26.6966C402 29.3774 404.173 31.5506 406.854 31.5506H424.146V49.1461C424.146 51.8268 426.319 54 429 54C431.681 54 433.854 51.8268 433.854 49.1461V31.5506H451.146C453.827 31.5506 456 29.3774 456 26.6966C456 24.0159 453.827 21.8427 451.146 21.8427H433.854V4.85393Z" fill="#AFEBFC"/>
<path fill-rule="evenodd" clip-rule="evenodd" d="M913.854 4.85393C913.854 2.17318 911.681 0 909 0C906.319 0 904.146 2.17318 904.146 4.85393V21.8427H886.854C884.173 21.8427 882 24.0159 882 26.6966C882 29.3774 884.173 31.5506 886.854 31.5506H904.146V49.1461C904.146 51.8268 906.319 54 909 54C911.681 54 913.854 51.8268 913.854 49.1461V31.5506H931.146C933.827 31.5506 936 29.3774 936 26.6966C936 24.0159 933.827 21.8427 931.146 21.8427H913.854V4.85393Z" fill="#76E094"/>
<path fill-rule="evenodd" clip-rule="evenodd" d="M108 13.8462L91.1586 42.9231H124.841L108 13.8462ZM115.218 4.15385C112.01 -1.38461 103.99 -1.38462 100.782 4.15384L79.129 41.5385C75.9211 47.0769 79.931 54 86.3468 54H129.653C136.069 54 140.079 47.0769 136.871 41.5385L115.218 4.15385Z" fill="#AFEBFC"/>
<path fill-rule="evenodd" clip-rule="evenodd" d="M588 13.8462L571.159 42.9231H604.841L588 13.8462ZM595.218 4.15385C592.01 -1.38461 583.99 -1.38462 580.782 4.15384L559.129 41.5385C555.921 47.0769 559.931 54 566.347 54H609.653C616.069 54 620.079 47.0769 616.871 41.5385L595.218 4.15385Z" fill="#76E094"/>
<path fill-rule="evenodd" clip-rule="evenodd" d="M348 13.8462L331.159 42.9231H364.841L348 13.8462ZM355.218 4.15385C352.01 -1.38461 343.99 -1.38462 340.782 4.15384L319.129 41.5385C315.921 47.0769 319.931 54 326.347 54H369.653C376.069 54 380.079 47.0769 376.871 41.5385L355.218 4.15385Z" fill="#FFCA27"/>
<path fill-rule="evenodd" clip-rule="evenodd" d="M828 13.8462L811.159 42.9231H844.841L828 13.8462ZM835.218 4.15385C832.01 -1.38461 823.99 -1.38462 820.782 4.15384L799.129 41.5385C795.921 47.0769 799.931 54 806.347 54H849.653C856.069 54 860.079 47.0769 856.871 41.5385L835.218 4.15385Z" fill="#C64F4B"/>
<path fill-rule="evenodd" clip-rule="evenodd" d="M37.8 10.8H16.2C13.2177 10.8 10.8 13.2177 10.8 16.2V37.8C10.8 40.7823 13.2177 43.2 16.2 43.2H37.8C40.7823 43.2 43.2 40.7823 43.2 37.8V16.2C43.2 13.2177 40.7823 10.8 37.8 10.8ZM16.2 0C7.25299 0 0 7.25299 0 16.2V37.8C0 46.747 7.25299 54 16.2 54H37.8C46.747 54 54 46.747 54 37.8V16.2C54 7.25299 46.747 0 37.8 0H16.2Z" fill="#FFCA27"/>
<path fill-rule="evenodd" clip-rule="evenodd" d="M517.8 10.8H496.2C493.218 10.8 490.8 13.2177 490.8 16.2V37.8C490.8 40.7823 493.218 43.2 496.2 43.2H517.8C520.782 43.2 523.2 40.7823 523.2 37.8V16.2C523.2 13.2177 520.782 10.8 517.8 10.8ZM496.2 0C487.253 0 480 7.25299 480 16.2V37.8C480 46.747 487.253 54 496.2 54H517.8C526.747 54 534 46.747 534 37.8V16.2C534 7.25299 526.747 0 517.8 0H496.2Z" fill="#C64F4B"/>
<path fill-rule="evenodd" clip-rule="evenodd" d="M997.8 10.8H976.2C973.218 10.8 970.8 13.2177 970.8 16.2V37.8C970.8 40.7823 973.218 43.2 976.2 43.2H997.8C1000.78 43.2 1003.2 40.7823 1003.2 37.8V16.2C1003.2 13.2177 1000.78 10.8 997.8 10.8ZM976.2 0C967.253 0 960 7.25299 960 16.2V37.8C960 46.747 967.253 54 976.2 54H997.8C1006.75 54 1014 46.747 1014 37.8V16.2C1014 7.25299 1006.75 0 997.8 0H976.2Z" fill="#FFCA27"/>
<path fill-rule="evenodd" clip-rule="evenodd" d="M277.8 10.8H256.2C253.218 10.8 250.8 13.2177 250.8 16.2V37.8C250.8 40.7823 253.218 43.2 256.2 43.2H277.8C280.782 43.2 283.2 40.7823 283.2 37.8V16.2C283.2 13.2177 280.782 10.8 277.8 10.8ZM256.2 0C247.253 0 240 7.25299 240 16.2V37.8C240 46.747 247.253 54 256.2 54H277.8C286.747 54 294 46.747 294 37.8V16.2C294 7.25299 286.747 0 277.8 0H256.2Z" fill="#76E094"/>
<path fill-rule="evenodd" clip-rule="evenodd" d="M757.8 10.8H736.2C733.218 10.8 730.8 13.2177 730.8 16.2V37.8C730.8 40.7823 733.218 43.2 736.2 43.2H757.8C760.782 43.2 763.2 40.7823 763.2 37.8V16.2C763.2 13.2177 760.782 10.8 757.8 10.8ZM736.2 0C727.253 0 720 7.25299 720 16.2V37.8C720 46.747 727.253 54 736.2 54H757.8C766.747 54 774 46.747 774 37.8V16.2C774 7.25299 766.747 0 757.8 0H736.2Z" fill="#AFEBFC"/>
</svg>
