<svg width="294" height="54" viewBox="0 0 294 54" fill="none" xmlns="http://www.w3.org/2000/svg">
<path fill-rule="evenodd" clip-rule="evenodd" d="M193.854 4.85393C193.854 2.17318 191.681 0 189 0C186.319 0 184.146 2.17318 184.146 4.85393V21.8427H166.854C164.173 21.8427 162 24.0159 162 26.6966C162 29.3774 164.173 31.5506 166.854 31.5506H184.146V49.1461C184.146 51.8268 186.319 54 189 54C191.681 54 193.854 51.8268 193.854 49.1461V31.5506H211.146C213.827 31.5506 216 29.3774 216 26.6966C216 24.0159 213.827 21.8427 211.146 21.8427H193.854V4.85393Z" fill="#C64F4B"/>
<path fill-rule="evenodd" clip-rule="evenodd" d="M267 43.3521C276.031 43.3521 283.352 36.031 283.352 27C283.352 17.969 276.031 10.6479 267 10.6479C257.969 10.6479 250.648 17.969 250.648 27C250.648 36.031 257.969 43.3521 267 43.3521ZM267 54C281.912 54 294 41.9117 294 27C294 12.0883 281.912 0 267 0C252.088 0 240 12.0883 240 27C240 41.9117 252.088 54 267 54Z" fill="#76E094"/>
<path fill-rule="evenodd" clip-rule="evenodd" d="M108 13.8462L91.1586 42.9231H124.841L108 13.8462ZM115.218 4.15385C112.01 -1.38461 103.99 -1.38462 100.782 4.15384L79.129 41.5385C75.9211 47.0769 79.931 54 86.3468 54H129.653C136.069 54 140.079 47.0769 136.871 41.5385L115.218 4.15385Z" fill="#AFEBFC"/>
<path fill-rule="evenodd" clip-rule="evenodd" d="M37.8 10.8H16.2C13.2177 10.8 10.8 13.2177 10.8 16.2V37.8C10.8 40.7823 13.2177 43.2 16.2 43.2H37.8C40.7823 43.2 43.2 40.7823 43.2 37.8V16.2C43.2 13.2177 40.7823 10.8 37.8 10.8ZM16.2 0C7.25299 0 0 7.25299 0 16.2V37.8C0 46.747 7.25299 54 16.2 54H37.8C46.747 54 54 46.747 54 37.8V16.2C54 7.25299 46.747 0 37.8 0H16.2Z" fill="#FFCA27"/>
</svg>
