<svg width="809" height="450" viewBox="0 0 809 450" fill="none" xmlns="http://www.w3.org/2000/svg">
<path fill-rule="evenodd" clip-rule="evenodd" d="M662.247 174.248C662.247 171.567 660.074 169.394 657.394 169.394C654.713 169.394 652.54 171.567 652.54 174.248V191.236H635.247C632.567 191.236 630.394 193.41 630.394 196.09C630.394 198.771 632.567 200.944 635.247 200.944H652.54V218.54C652.54 221.221 654.713 223.394 657.394 223.394C660.074 223.394 662.247 221.221 662.247 218.54V200.944H679.54C682.22 200.944 684.394 198.771 684.394 196.09C684.394 193.41 682.22 191.236 679.54 191.236H662.247V174.248Z" fill="#C64F4B"/>
<path fill-rule="evenodd" clip-rule="evenodd" d="M240.916 298.416C240.916 295.09 238.22 292.394 234.894 292.394C231.567 292.394 228.871 295.09 228.871 298.416V319.495H207.416C204.09 319.495 201.394 322.191 201.394 325.517C201.394 328.844 204.09 331.54 207.416 331.54H228.871V353.371C228.871 356.697 231.567 359.394 234.894 359.394C238.22 359.394 240.916 356.697 240.916 353.371V331.54H262.371C265.697 331.54 268.394 328.844 268.394 325.517C268.394 322.191 265.697 319.495 262.371 319.495H240.916V298.416Z" fill="#FFCA27"/>
<path fill-rule="evenodd" clip-rule="evenodd" d="M35.2487 21.2878C33.2555 18.6251 29.4811 18.0824 26.8184 20.0756C24.1556 22.0689 23.6129 25.8433 25.6062 28.506L38.2379 45.3804L21.0621 58.2378C18.3994 60.231 17.8567 64.0054 19.8499 66.6681C21.8432 69.3309 25.6176 69.8736 28.2803 67.8803L45.4561 55.023L58.539 72.5001C60.5322 75.1629 64.3066 75.7056 66.9694 73.7123C69.6321 71.7191 70.1748 67.9447 68.1816 65.282L55.0986 47.8048L72.2744 34.9475C74.9372 32.9543 75.4799 29.1799 73.4866 26.5171C71.4934 23.8544 67.719 23.3117 65.0563 25.3049L47.8805 38.1623L35.2487 21.2878Z" fill="#C64F4B"/>
<path fill-rule="evenodd" clip-rule="evenodd" d="M427.894 13.394C427.894 8.97576 424.312 5.39404 419.894 5.39404C415.476 5.39404 411.894 8.97576 411.894 13.394V41.394H383.394C378.976 41.394 375.394 44.9758 375.394 49.394C375.394 53.8123 378.976 57.394 383.394 57.394H411.894V86.394C411.894 90.8123 415.476 94.394 419.894 94.394C424.312 94.394 427.894 90.8123 427.894 86.394V57.394H456.394C460.812 57.394 464.394 53.8123 464.394 49.394C464.394 44.9758 460.812 41.394 456.394 41.394H427.894V13.394Z" fill="#FFCA27"/>
<path fill-rule="evenodd" clip-rule="evenodd" d="M683.194 350.194H661.594C658.611 350.194 656.194 352.611 656.194 355.594V377.194C656.194 380.176 658.611 382.594 661.594 382.594H683.194C686.176 382.594 688.594 380.176 688.594 377.194V355.594C688.594 352.611 686.176 350.194 683.194 350.194ZM661.594 339.394C652.647 339.394 645.394 346.647 645.394 355.594V377.194C645.394 386.141 652.647 393.394 661.594 393.394H683.194C692.141 393.394 699.394 386.141 699.394 377.194V355.594C699.394 346.647 692.141 339.394 683.194 339.394H661.594Z" fill="#76E094"/>
<path fill-rule="evenodd" clip-rule="evenodd" d="M379.194 406.194H357.594C354.611 406.194 352.194 408.611 352.194 411.594V433.194C352.194 436.176 354.611 438.594 357.594 438.594H379.194C382.176 438.594 384.594 436.176 384.594 433.194V411.594C384.594 408.611 382.176 406.194 379.194 406.194ZM357.594 395.394C348.647 395.394 341.394 402.647 341.394 411.594V433.194C341.394 442.141 348.647 449.394 357.594 449.394H379.194C388.141 449.394 395.394 442.141 395.394 433.194V411.594C395.394 402.647 388.141 395.394 379.194 395.394H357.594Z" fill="#76E094"/>
<path fill-rule="evenodd" clip-rule="evenodd" d="M792.194 234.194H770.594C767.611 234.194 765.194 236.611 765.194 239.594V261.194C765.194 264.176 767.611 266.594 770.594 266.594H792.194C795.176 266.594 797.594 264.176 797.594 261.194V239.594C797.594 236.611 795.176 234.194 792.194 234.194ZM770.594 223.394C761.647 223.394 754.394 230.647 754.394 239.594V261.194C754.394 270.141 761.647 277.394 770.594 277.394H792.194C801.141 277.394 808.394 270.141 808.394 261.194V239.594C808.394 230.647 801.141 223.394 792.194 223.394H770.594Z" fill="#FFCA27"/>
<path fill-rule="evenodd" clip-rule="evenodd" d="M765.894 38.7015L751.017 64.5476H780.77L765.894 38.7015ZM772.269 30.0861C769.436 25.163 762.352 25.163 759.518 30.0861L740.391 63.3169C737.557 68.24 741.099 74.3938 746.767 74.3938H785.021C790.688 74.3938 794.23 68.24 791.396 63.3169L772.269 30.0861Z" fill="#AFEBFC"/>
<path fill-rule="evenodd" clip-rule="evenodd" d="M523.394 142.958L508.237 169.343H538.551L523.394 142.958ZM529.89 134.163C527.003 129.137 519.785 129.137 516.898 134.163L497.41 168.086C494.523 173.112 498.132 179.394 503.906 179.394H542.882C548.656 179.394 552.265 173.112 549.378 168.086L529.89 134.163Z" fill="#76E094"/>
<path d="M512.44 315.425L561.969 353.304C564.415 355.175 563.919 358.991 561.076 360.174L503.507 384.128C500.664 385.311 497.606 382.973 498.003 379.92L506.043 318.086C506.44 315.033 509.994 313.554 512.44 315.425Z" stroke="#AFEBFC" stroke-width="16"/>
<path fill-rule="evenodd" clip-rule="evenodd" d="M215.894 34.7017L201.017 60.5479H230.77L215.894 34.7017ZM222.269 26.0864C219.436 21.1633 212.352 21.1633 209.518 26.0863L190.391 59.3171C187.557 64.2402 191.099 70.394 196.767 70.394H235.021C240.688 70.394 244.23 64.2402 241.396 59.3171L222.269 26.0864Z" fill="#AFEBFC"/>
</svg>
