<svg width="181" height="104" viewBox="0 0 181 104" fill="none" xmlns="http://www.w3.org/2000/svg">
<path fill-rule="evenodd" clip-rule="evenodd" d="M11.2862 78.3016C10.462 77.4773 9.12568 77.4773 8.30145 78.3016C7.47723 79.1258 7.47723 80.4621 8.30145 81.2864L13.5248 86.5098L8.20818 91.8264C7.38395 92.6506 7.38395 93.987 8.20818 94.8112C9.03241 95.6354 10.3687 95.6354 11.193 94.8112L16.5096 89.4945L21.9196 94.9045C22.7438 95.7287 24.0801 95.7287 24.9044 94.9045C25.7286 94.0803 25.7286 92.7439 24.9044 91.9197L19.4944 86.5098L24.8111 81.1931C25.6353 80.3689 25.6353 79.0325 24.8111 78.2083C23.9869 77.3841 22.6505 77.3841 21.8263 78.2083L16.5096 83.525L11.2862 78.3016Z" fill="#C64F4B"/>
<path fill-rule="evenodd" clip-rule="evenodd" d="M133.558 76.6161H124.668C123.44 76.6161 122.445 77.6495 122.445 78.9242V88.1564C122.445 89.4311 123.44 90.4645 124.668 90.4645H133.558C134.786 90.4645 135.781 89.4311 135.781 88.1564V78.9242C135.781 77.6495 134.786 76.6161 133.558 76.6161ZM124.668 72C120.985 72 118 75.1001 118 78.9242V88.1564C118 91.9806 120.985 95.0806 124.668 95.0806H133.558C137.241 95.0806 140.226 91.9806 140.226 88.1564V78.9242C140.226 75.1001 137.241 72 133.558 72H124.668Z" fill="#76E094"/>
<path fill-rule="evenodd" clip-rule="evenodd" d="M159.156 77.4452H149.924C148.649 77.4452 147.616 78.4402 147.616 79.6677V88.558C147.616 89.7855 148.649 90.7806 149.924 90.7806H159.156C160.431 90.7806 161.464 89.7855 161.464 88.558V79.6677C161.464 78.4402 160.431 77.4452 159.156 77.4452ZM149.924 73C146.1 73 143 75.9852 143 79.6677V88.558C143 92.2405 146.1 95.2258 149.924 95.2258H159.156C162.981 95.2258 166.081 92.2405 166.081 88.558V79.6677C166.081 75.9852 162.981 73 159.156 73H149.924Z" fill="#76E094"/>
<path fill-rule="evenodd" clip-rule="evenodd" d="M10.7909 11.2072V69.0654H23.6596V11.2072H10.7909ZM10.1475 6C7.3046 6 5 8.07232 5 10.6287V69.644C5 72.2003 7.3046 74.2726 10.1475 74.2726H24.303C27.1459 74.2726 29.4505 72.2003 29.4505 69.644V10.6287C29.4505 8.07232 27.1459 6 24.303 6H10.1475Z" fill="#FCCE44"/>
<path d="M39.0804 27.0409H45.299V29.173H45.832C46.1084 28.3636 46.5723 27.7417 47.2238 27.3074C47.895 26.8533 48.6945 26.6263 49.6224 26.6263C51.0833 26.6263 52.2579 27.0902 53.1462 28.0181C54.0346 28.9262 54.4788 30.318 54.4788 32.1934V32.8449L50.6292 33.2002V32.7857C50.6292 31.9763 50.4219 31.3347 50.0074 30.8609C49.5928 30.3673 48.9709 30.1206 48.1418 30.1206C47.3126 30.1206 46.6612 30.4068 46.1874 30.9793C45.7136 31.5518 45.4767 32.3711 45.4767 33.4371V38.1751H48.8525V41.7286H38.7251V38.1751H41.7455V30.5944H39.0804V27.0409Z" fill="#6679DC"/>
<path d="M61.2098 35.5988C61.2295 36.0331 61.3282 36.4378 61.5059 36.8129C61.7033 37.1683 61.96 37.4841 62.2758 37.7605C62.6114 38.0172 62.9865 38.2244 63.4011 38.3824C63.8354 38.5206 64.2895 38.5897 64.7633 38.5897C65.6911 38.5897 66.4018 38.4317 66.8953 38.1159C67.3889 37.7803 67.7442 37.3854 67.9614 36.9314L71.1595 38.7081C70.9818 39.0832 70.7351 39.478 70.4192 39.8926C70.1033 40.2874 69.6888 40.6526 69.1755 40.9883C68.6819 41.3239 68.07 41.6002 67.3395 41.8174C66.6288 42.0345 65.7898 42.1431 64.8225 42.1431C63.717 42.1431 62.7101 41.9655 61.802 41.6101C60.8939 41.2548 60.1043 40.7415 59.4331 40.0703C58.7816 39.3991 58.2683 38.5798 57.8932 37.6125C57.5379 36.6451 57.3602 35.5495 57.3602 34.3255V34.1478C57.3602 33.0226 57.5478 31.996 57.9228 31.0682C58.3177 30.1403 58.8507 29.3506 59.5219 28.6992C60.1931 28.0477 60.9729 27.5443 61.8613 27.189C62.7694 26.8139 63.7367 26.6263 64.7633 26.6263C66.0267 26.6263 67.1125 26.8533 68.0206 27.3074C68.9287 27.7417 69.6789 28.3043 70.2711 28.9953C70.8634 29.6665 71.2977 30.4167 71.5741 31.2458C71.8504 32.0552 71.9886 32.8449 71.9886 33.6148V35.5988H61.2098ZM64.7336 30.0021C63.7861 30.0021 63.0161 30.2489 62.4239 30.7424C61.8317 31.2162 61.4467 31.769 61.269 32.4007H68.1983C68.0798 31.7098 67.7047 31.1373 67.073 30.6832C66.461 30.2291 65.6812 30.0021 64.7336 30.0021Z" fill="#6679DC"/>
<path d="M80.7333 31.1866C80.7333 31.6604 80.98 32.0059 81.4736 32.223C81.9671 32.4204 82.8653 32.5883 84.1683 32.7264C85.6686 32.8844 86.8926 33.3384 87.8402 34.0886C88.7878 34.819 89.2616 35.8456 89.2616 37.1683V37.3459C89.2616 38.8068 88.7286 39.9716 87.6625 40.8402C86.5965 41.7088 85.0961 42.1431 83.1615 42.1431C82.0165 42.1431 81.0393 41.9951 80.2299 41.6989C79.4205 41.4028 78.7492 41.0376 78.2162 40.6033C77.6832 40.1492 77.2686 39.6557 76.9725 39.1227C76.6961 38.5699 76.5086 38.0369 76.4099 37.5236L79.8449 36.3984C80.0028 37.0301 80.3286 37.5828 80.8221 38.0566C81.3354 38.5304 82.1152 38.7673 83.1615 38.7673C84.0893 38.7673 84.721 38.6291 85.0567 38.3528C85.412 38.0566 85.5897 37.7408 85.5897 37.4052C85.5897 37.2078 85.5403 37.0301 85.4416 36.8722C85.3626 36.6945 85.2047 36.5365 84.9678 36.3984C84.7309 36.2404 84.4052 36.1121 83.9906 36.0134C83.5958 35.9147 83.0924 35.8357 82.4804 35.7765C80.8221 35.6383 79.4994 35.2139 78.5124 34.5032C77.545 33.7727 77.0614 32.7067 77.0614 31.3051V31.1274C77.0614 30.3969 77.2193 29.7553 77.5351 29.2026C77.851 28.6498 78.2656 28.1859 78.7789 27.8108C79.2921 27.416 79.8844 27.1199 80.5556 26.9224C81.2268 26.725 81.9178 26.6263 82.6284 26.6263C83.5563 26.6263 84.3558 26.7448 85.027 26.9817C85.718 27.1988 86.3004 27.4949 86.7742 27.87C87.248 28.2254 87.6329 28.6301 87.929 29.0841C88.2252 29.5185 88.4522 29.9429 88.6101 30.3575L85.2343 31.7196C85.0567 31.1866 84.7507 30.772 84.3163 30.4759C83.882 30.16 83.3194 30.0021 82.6284 30.0021C81.9967 30.0021 81.5229 30.1206 81.2071 30.3575C80.8912 30.5746 80.7333 30.851 80.7333 31.1866Z" fill="#6679DC"/>
<path d="M97.4732 35.5988C97.4929 36.0331 97.5916 36.4378 97.7693 36.8129C97.9667 37.1683 98.2234 37.4841 98.5392 37.7605C98.8748 38.0172 99.2499 38.2244 99.6645 38.3824C100.099 38.5206 100.553 38.5897 101.027 38.5897C101.955 38.5897 102.665 38.4317 103.159 38.1159C103.652 37.7803 104.008 37.3854 104.225 36.9314L107.423 38.7081C107.245 39.0832 106.998 39.478 106.683 39.8926C106.367 40.2874 105.952 40.6526 105.439 40.9883C104.945 41.3239 104.333 41.6002 103.603 41.8174C102.892 42.0345 102.053 42.1431 101.086 42.1431C99.9804 42.1431 98.9735 41.9655 98.0654 41.6101C97.1573 41.2548 96.3677 40.7415 95.6965 40.0703C95.045 39.3991 94.5317 38.5798 94.1566 37.6125C93.8013 36.6451 93.6236 35.5495 93.6236 34.3255V34.1478C93.6236 33.0226 93.8111 31.996 94.1862 31.0682C94.5811 30.1403 95.1141 29.3506 95.7853 28.6992C96.4565 28.0477 97.2363 27.5443 98.1247 27.189C99.0328 26.8139 100 26.6263 101.027 26.6263C102.29 26.6263 103.376 26.8533 104.284 27.3074C105.192 27.7417 105.942 28.3043 106.535 28.9953C107.127 29.6665 107.561 30.4167 107.837 31.2458C108.114 32.0552 108.252 32.8449 108.252 33.6148V35.5988H97.4732ZM100.997 30.0021C100.049 30.0021 99.2795 30.2489 98.6873 30.7424C98.095 31.2162 97.7101 31.769 97.5324 32.4007H104.462C104.343 31.7098 103.968 31.1373 103.336 30.6832C102.724 30.2291 101.945 30.0021 100.997 30.0021Z" fill="#6679DC"/>
<path d="M121.823 39.5965C121.429 40.5243 120.876 41.1857 120.165 41.5805C119.454 41.9556 118.625 42.1431 117.678 42.1431C116.789 42.1431 115.95 41.9753 115.161 41.6397C114.391 41.3041 113.71 40.8106 113.117 40.1591C112.525 39.5076 112.051 38.718 111.696 37.7901C111.36 36.8623 111.193 35.8061 111.193 34.6216V34.1478C111.193 32.9831 111.36 31.9368 111.696 31.0089C112.032 30.0811 112.486 29.2914 113.058 28.64C113.631 27.9885 114.292 27.4949 115.042 27.1593C115.812 26.804 116.631 26.6263 117.5 26.6263C118.546 26.6263 119.385 26.804 120.017 27.1593C120.669 27.5147 121.182 28.0675 121.557 28.8176H122.09V27.0409H125.821V37.2867C125.821 37.879 126.088 38.1751 126.621 38.1751H127.183V41.7286H124.637C123.965 41.7286 123.413 41.5311 122.978 41.1363C122.564 40.7415 122.356 40.2282 122.356 39.5965H121.823ZM118.507 38.5897C119.593 38.5897 120.461 38.2343 121.113 37.5236C121.764 36.7932 122.09 35.8061 122.09 34.5624V34.2071C122.09 32.9633 121.764 31.9861 121.113 31.2754C120.461 30.545 119.593 30.1798 118.507 30.1798C117.421 30.1798 116.552 30.545 115.901 31.2754C115.25 31.9861 114.924 32.9633 114.924 34.2071V34.5624C114.924 35.8061 115.25 36.7932 115.901 37.5236C116.552 38.2343 117.421 38.5897 118.507 38.5897Z" fill="#6679DC"/>
<path d="M129.739 27.0409H135.958V29.173H136.491C136.767 28.3636 137.231 27.7417 137.882 27.3074C138.554 26.8533 139.353 26.6263 140.281 26.6263C141.742 26.6263 142.916 27.0902 143.805 28.0181C144.693 28.9262 145.137 30.318 145.137 32.1934V32.8449L141.288 33.2002V32.7857C141.288 31.9763 141.08 31.3347 140.666 30.8609C140.251 30.3673 139.629 30.1206 138.8 30.1206C137.971 30.1206 137.32 30.4068 136.846 30.9793C136.372 31.5518 136.135 32.3711 136.135 33.4371V38.1751H139.511V41.7286H129.384V38.1751H132.404V30.5944H129.739V27.0409Z" fill="#6679DC"/>
<path d="M162.914 36.3391C162.578 38.0764 161.779 39.478 160.515 40.5441C159.271 41.6101 157.603 42.1431 155.511 42.1431C154.425 42.1431 153.408 41.9753 152.461 41.6397C151.533 41.3041 150.723 40.8204 150.032 40.1887C149.341 39.557 148.798 38.7772 148.404 37.8494C148.009 36.9215 147.811 35.8653 147.811 34.6808V34.3255C147.811 33.141 148.009 32.075 148.404 31.1274C148.798 30.1798 149.341 29.3704 150.032 28.6992C150.743 28.028 151.562 27.5147 152.49 27.1593C153.438 26.804 154.445 26.6263 155.511 26.6263C157.564 26.6263 159.222 27.1593 160.485 28.2254C161.769 29.2914 162.578 30.6931 162.914 32.4303L159.242 33.3779C159.123 32.5093 158.748 31.7591 158.116 31.1274C157.485 30.4957 156.596 30.1798 155.451 30.1798C154.918 30.1798 154.415 30.2785 153.941 30.4759C153.467 30.6733 153.053 30.9596 152.697 31.3347C152.342 31.69 152.056 32.1342 151.839 32.6672C151.641 33.1805 151.543 33.7629 151.543 34.4143V34.592C151.543 35.2435 151.641 35.8259 151.839 36.3391C152.056 36.8327 152.342 37.2472 152.697 37.5828C153.053 37.9184 153.467 38.1751 153.941 38.3528C154.415 38.5107 154.918 38.5897 155.451 38.5897C156.596 38.5897 157.465 38.3034 158.057 37.7309C158.669 37.1584 159.064 36.3885 159.242 35.4212L162.914 36.3391Z" fill="#6679DC"/>
<path d="M170.503 41.7286H166.772V21H170.503V29.4099H171.036C171.412 28.5215 171.964 27.8404 172.695 27.3666C173.425 26.8731 174.323 26.6263 175.389 26.6263C176.12 26.6263 176.791 26.7448 177.403 26.9817C178.015 27.2186 178.548 27.5739 179.002 28.0477C179.456 28.5215 179.812 29.1335 180.068 29.8837C180.325 30.6141 180.453 31.4827 180.453 32.4895V41.7286H176.722V33.3779C176.722 32.3316 176.465 31.5123 175.952 30.9201C175.459 30.3081 174.738 30.0021 173.79 30.0021C172.685 30.0021 171.856 30.3772 171.303 31.1274C170.77 31.8578 170.503 32.8449 170.503 34.0886V41.7286Z" fill="#6679DC"/>
<path d="M42.4562 65.5828H38.7251V44.8542H42.4562V53.0272H42.9893C43.3841 52.2178 43.9566 51.596 44.7068 51.1617C45.4569 50.7076 46.4144 50.4806 47.5792 50.4806C48.4478 50.4806 49.267 50.6484 50.037 50.984C50.8266 51.3196 51.5077 51.8131 52.0802 52.4646C52.6725 53.0963 53.1364 53.8761 53.472 54.804C53.8273 55.7318 54.005 56.788 54.005 57.9725V58.5055C54.005 59.7097 53.8372 60.7758 53.5016 61.7036C53.166 62.6315 52.7119 63.4211 52.1394 64.0726C51.5669 64.7043 50.8859 65.188 50.0962 65.5236C49.3263 65.8394 48.4873 65.9974 47.5792 65.9974C46.9079 65.9974 46.3256 65.9283 45.832 65.7901C45.3385 65.6519 44.9042 65.4644 44.5291 65.2275C44.1737 64.9906 43.8678 64.7241 43.6111 64.4279C43.3742 64.1121 43.1669 63.7863 42.9893 63.4507H42.4562V65.5828ZM46.3651 62.4439C47.5298 62.4439 48.4675 62.0886 49.1782 61.3779C49.9086 60.6474 50.2739 59.6604 50.2739 58.4166V58.0613C50.2739 56.8176 49.9086 55.8404 49.1782 55.1297C48.4675 54.3993 47.5298 54.034 46.3651 54.034C45.2003 54.034 44.2527 54.4091 43.5223 55.1593C42.8116 55.8897 42.4562 56.8571 42.4562 58.0613V58.4166C42.4562 59.6209 42.8116 60.5981 43.5223 61.3483C44.2527 62.0787 45.2003 62.4439 46.3651 62.4439Z" fill="#170C2C"/>
<path d="M71.8702 58.4166C71.8702 59.6406 71.6629 60.7264 71.2483 61.674C70.8338 62.6018 70.2711 63.3915 69.5604 64.043C68.8498 64.6747 68.0305 65.1584 67.1026 65.494C66.1945 65.8296 65.2371 65.9974 64.2302 65.9974C63.2234 65.9974 62.2561 65.8296 61.3282 65.494C60.4201 65.1584 59.6107 64.6747 58.9 64.043C58.1893 63.3915 57.6267 62.6018 57.2121 61.674C56.7976 60.7264 56.5903 59.6406 56.5903 58.4166V58.0613C56.5903 56.8571 56.7976 55.791 57.2121 54.8632C57.6267 53.9156 58.1893 53.1161 58.9 52.4646C59.6107 51.8131 60.4201 51.3196 61.3282 50.984C62.2561 50.6484 63.2234 50.4806 64.2302 50.4806C65.2371 50.4806 66.1945 50.6484 67.1026 50.984C68.0305 51.3196 68.8498 51.8131 69.5604 52.4646C70.2711 53.1161 70.8338 53.9156 71.2483 54.8632C71.6629 55.791 71.8702 56.8571 71.8702 58.0613V58.4166ZM64.2302 62.4439C64.7633 62.4439 65.2667 62.3551 65.7405 62.1774C66.2143 61.9997 66.6288 61.7431 66.9842 61.4075C67.3395 61.0719 67.6159 60.6672 67.8133 60.1934C68.0305 59.6998 68.1391 59.1471 68.1391 58.5351V57.9429C68.1391 57.3309 68.0305 56.788 67.8133 56.3142C67.6159 55.8206 67.3395 55.4061 66.9842 55.0705C66.6288 54.7349 66.2143 54.4782 65.7405 54.3005C65.2667 54.1229 64.7633 54.034 64.2302 54.034C63.6972 54.034 63.1938 54.1229 62.72 54.3005C62.2462 54.4782 61.8317 54.7349 61.4763 55.0705C61.121 55.4061 60.8347 55.8206 60.6176 56.3142C60.4201 56.788 60.3214 57.3309 60.3214 57.9429V58.5351C60.3214 59.1471 60.4201 59.6998 60.6176 60.1934C60.8347 60.6672 61.121 61.0719 61.4763 61.4075C61.8317 61.7431 62.2462 61.9997 62.72 62.1774C63.1938 62.3551 63.6972 62.4439 64.2302 62.4439Z" fill="#170C2C"/>
<path d="M90.0019 58.4166C90.0019 59.6406 89.7946 60.7264 89.38 61.674C88.9655 62.6018 88.4028 63.3915 87.6921 64.043C86.9815 64.6747 86.1622 65.1584 85.2343 65.494C84.3262 65.8296 83.3688 65.9974 82.362 65.9974C81.3551 65.9974 80.3878 65.8296 79.4599 65.494C78.5518 65.1584 77.7424 64.6747 77.0317 64.043C76.3211 63.3915 75.7584 62.6018 75.3438 61.674C74.9293 60.7264 74.722 59.6406 74.722 58.4166V58.0613C74.722 56.8571 74.9293 55.791 75.3438 54.8632C75.7584 53.9156 76.3211 53.1161 77.0317 52.4646C77.7424 51.8131 78.5518 51.3196 79.4599 50.984C80.3878 50.6484 81.3551 50.4806 82.362 50.4806C83.3688 50.4806 84.3262 50.6484 85.2343 50.984C86.1622 51.3196 86.9815 51.8131 87.6921 52.4646C88.4028 53.1161 88.9655 53.9156 89.38 54.8632C89.7946 55.791 90.0019 56.8571 90.0019 58.0613V58.4166ZM82.362 62.4439C82.895 62.4439 83.3984 62.3551 83.8722 62.1774C84.346 61.9997 84.7605 61.7431 85.1159 61.4075C85.4712 61.0719 85.7476 60.6672 85.945 60.1934C86.1622 59.6998 86.2708 59.1471 86.2708 58.5351V57.9429C86.2708 57.3309 86.1622 56.788 85.945 56.3142C85.7476 55.8206 85.4712 55.4061 85.1159 55.0705C84.7605 54.7349 84.346 54.4782 83.8722 54.3005C83.3984 54.1229 82.895 54.034 82.362 54.034C81.8289 54.034 81.3255 54.1229 80.8517 54.3005C80.3779 54.4782 79.9634 54.7349 79.608 55.0705C79.2527 55.4061 78.9664 55.8206 78.7493 56.3142C78.5518 56.788 78.4531 57.3309 78.4531 57.9429V58.5351C78.4531 59.1471 78.5518 59.6998 78.7493 60.1934C78.9664 60.6672 79.2527 61.0719 79.608 61.4075C79.9634 61.7431 80.3779 61.9997 80.8517 62.1774C81.3255 62.3551 81.8289 62.4439 82.362 62.4439Z" fill="#170C2C"/>
<path d="M93.3275 50.8951H97.6805V44.8542H101.412V50.8951H106.712V54.4486H101.412V61.141C101.412 61.7332 101.678 62.0293 102.211 62.0293H106.179V65.5828H99.9606C99.2894 65.5828 98.7367 65.3656 98.3023 64.9313C97.8878 64.497 97.6805 63.9443 97.6805 63.2731V54.4486H93.3275V50.8951Z" fill="#170C2C"/>
<path d="M126.206 60.1934C125.87 61.9306 125.071 63.3323 123.807 64.3983C122.564 65.4644 120.896 65.9974 118.803 65.9974C117.717 65.9974 116.701 65.8296 115.753 65.494C114.825 65.1584 114.016 64.6747 113.325 64.043C112.634 63.4112 112.091 62.6315 111.696 61.7036C111.301 60.7758 111.104 59.7196 111.104 58.5351V58.1797C111.104 56.9953 111.301 55.9292 111.696 54.9816C112.091 54.034 112.634 53.2246 113.325 52.5534C114.035 51.8822 114.855 51.3689 115.783 51.0136C116.73 50.6582 117.737 50.4806 118.803 50.4806C120.856 50.4806 122.514 51.0136 123.778 52.0796C125.061 53.1457 125.87 54.5473 126.206 56.2846L122.534 57.2322C122.416 56.3635 122.041 55.6134 121.409 54.9816C120.777 54.3499 119.889 54.034 118.744 54.034C118.211 54.034 117.707 54.1327 117.234 54.3302C116.76 54.5276 116.345 54.8138 115.99 55.1889C115.635 55.5443 115.348 55.9884 115.131 56.5215C114.934 57.0347 114.835 57.6171 114.835 58.2686V58.4463C114.835 59.0977 114.934 59.6801 115.131 60.1934C115.348 60.6869 115.635 61.1015 115.99 61.4371C116.345 61.7727 116.76 62.0293 117.234 62.207C117.707 62.3649 118.211 62.4439 118.744 62.4439C119.889 62.4439 120.757 62.1577 121.35 61.5852C121.962 61.0127 122.356 60.2427 122.534 59.2754L126.206 60.1934Z" fill="#170C2C"/>
<path d="M139.511 63.4507C139.116 64.3786 138.563 65.0399 137.853 65.4347C137.142 65.8098 136.313 65.9974 135.365 65.9974C134.477 65.9974 133.638 65.8296 132.848 65.494C132.078 65.1584 131.397 64.6648 130.805 64.0134C130.213 63.3619 129.739 62.5722 129.384 61.6444C129.048 60.7165 128.88 59.6604 128.88 58.4759V58.0021C128.88 56.8373 129.048 55.791 129.384 54.8632C129.719 53.9353 130.173 53.1457 130.746 52.4942C131.318 51.8427 131.98 51.3492 132.73 51.0136C133.5 50.6582 134.319 50.4806 135.188 50.4806C136.234 50.4806 137.073 50.6582 137.705 51.0136C138.356 51.3689 138.869 51.9217 139.244 52.6719H139.778V50.8951H143.509V61.141C143.509 61.7332 143.775 62.0293 144.308 62.0293H144.871V65.5828H142.324C141.653 65.5828 141.1 65.3854 140.666 64.9906C140.251 64.5957 140.044 64.0825 140.044 63.4507H139.511ZM136.194 62.4439C137.28 62.4439 138.149 62.0886 138.8 61.3779C139.452 60.6474 139.778 59.6604 139.778 58.4166V58.0613C139.778 56.8176 139.452 55.8404 138.8 55.1297C138.149 54.3993 137.28 54.034 136.194 54.034C135.109 54.034 134.24 54.3993 133.589 55.1297C132.937 55.8404 132.611 56.8176 132.611 58.0613V58.4166C132.611 59.6604 132.937 60.6474 133.589 61.3779C134.24 62.0886 135.109 62.4439 136.194 62.4439Z" fill="#170C2C"/>
<path d="M162.884 65.5828H159.153V55.2778C159.153 54.8632 159.044 54.5572 158.827 54.3598C158.63 54.1426 158.363 54.034 158.028 54.034C157.633 54.034 157.317 54.1525 157.08 54.3894C156.863 54.6263 156.754 54.9816 156.754 55.4554V65.5828H153.023V55.2778C153.023 54.8632 152.905 54.5572 152.668 54.3598C152.451 54.1426 152.184 54.034 151.868 54.034C151.513 54.034 151.217 54.1525 150.98 54.3894C150.743 54.6263 150.625 54.9816 150.625 55.4554V65.5828H146.893V50.8951H150.625V52.3165H151.158C151.276 51.7835 151.543 51.3492 151.957 51.0136C152.391 50.6582 152.954 50.4806 153.645 50.4806C154.297 50.4806 154.849 50.6582 155.303 51.0136C155.757 51.3492 156.063 51.7835 156.221 52.3165H156.754C156.912 51.7835 157.238 51.3492 157.732 51.0136C158.245 50.6582 158.877 50.4806 159.627 50.4806C160.614 50.4806 161.403 50.8162 161.996 51.4874C162.588 52.1389 162.884 53.047 162.884 54.2117V65.5828Z" fill="#170C2C"/>
<path d="M169.23 71.5052H165.499V50.8951H169.23V53.0272H169.763C170.158 52.2178 170.73 51.596 171.481 51.1617C172.231 50.7076 173.188 50.4806 174.353 50.4806C175.222 50.4806 176.041 50.6484 176.811 50.984C177.6 51.3196 178.282 51.8131 178.854 52.4646C179.446 53.0963 179.91 53.8761 180.246 54.804C180.601 55.7318 180.779 56.788 180.779 57.9725V58.5055C180.779 59.7097 180.611 60.7758 180.275 61.7036C179.94 62.6315 179.486 63.4211 178.913 64.0726C178.341 64.7043 177.66 65.188 176.87 65.5236C176.1 65.8394 175.261 65.9974 174.353 65.9974C173.682 65.9974 173.099 65.9283 172.606 65.7901C172.112 65.6519 171.678 65.4644 171.303 65.2275C170.948 64.9906 170.642 64.7241 170.385 64.4279C170.148 64.1121 169.941 63.7863 169.763 63.4507H169.23V71.5052ZM173.139 62.4439C174.304 62.4439 175.241 62.0886 175.952 61.3779C176.683 60.6474 177.048 59.6604 177.048 58.4166V58.0613C177.048 56.8176 176.683 55.8404 175.952 55.1297C175.241 54.3993 174.304 54.034 173.139 54.034C171.974 54.034 171.027 54.4091 170.296 55.1593C169.585 55.8897 169.23 56.8571 169.23 58.0613V58.4166C169.23 59.6209 169.585 60.5981 170.296 61.3483C171.027 62.0787 171.974 62.4439 173.139 62.4439Z" fill="#170C2C"/>
<path d="M53.472 91.056V94.7872H38.9028V90.7007C38.9028 89.6149 39.0607 88.6871 39.3766 87.9171C39.7122 87.1472 40.1761 86.4957 40.7683 85.9627C41.3803 85.4297 42.1108 84.9954 42.9596 84.6598C43.8085 84.3044 44.766 84.0083 45.832 83.7714C46.6217 83.5937 47.2633 83.3963 47.7568 83.1792C48.2701 82.9423 48.6748 82.6856 48.9709 82.4093C49.2671 82.1131 49.4645 81.7973 49.5632 81.4617C49.6816 81.1063 49.7408 80.7115 49.7408 80.2772C49.7408 79.448 49.4349 78.7571 48.8229 78.2043C48.2306 77.6516 47.4015 77.3752 46.3354 77.3752C45.2102 77.3752 44.3119 77.7207 43.6407 78.4116C42.9695 79.0828 42.6339 80.0205 42.6339 81.2248V82.5277H38.7251V80.8694C38.7251 79.9021 38.8929 78.9841 39.2285 78.1155C39.5839 77.2271 40.0774 76.4572 40.7091 75.8057C41.3606 75.1345 42.1502 74.6114 43.0781 74.2363C44.0059 73.8415 45.0522 73.644 46.217 73.644C47.4607 73.644 48.5465 73.8316 49.4743 74.2067C50.4022 74.562 51.1721 75.0358 51.7841 75.6281C52.4158 76.2203 52.8797 76.9113 53.1759 77.7009C53.4917 78.4708 53.6497 79.2704 53.6497 80.0995V80.4549C53.6497 82.1921 53.1561 83.6332 52.169 84.7782C51.2017 85.9232 49.6125 86.7524 47.4015 87.2657C46.4736 87.4828 45.7037 87.7098 45.0917 87.9467C44.4995 88.1639 44.0356 88.4107 43.7 88.6871C43.3643 88.9634 43.1274 89.2694 42.9893 89.605C42.8708 89.9209 42.8116 90.2861 42.8116 90.7007V91.056H53.472Z" fill="#FCCE44"/>
<path d="M61.6836 84.4229C61.6836 83.7517 61.9304 83.1693 62.4239 82.6758C62.9174 82.1822 63.4998 81.9355 64.171 81.9355C64.8422 81.9355 65.4246 82.1822 65.9181 82.6758C66.4117 83.1693 66.6584 83.7517 66.6584 84.4229C66.6584 85.0941 66.4117 85.6765 65.9181 86.17C65.4246 86.6636 64.8422 86.9103 64.171 86.9103C63.4998 86.9103 62.9174 86.6636 62.4239 86.17C61.9304 85.6765 61.6836 85.0941 61.6836 84.4229ZM56.5311 82.1131C56.5311 79.4283 57.2023 77.3456 58.5447 75.865C59.9069 74.3843 61.7823 73.644 64.171 73.644C66.5597 73.644 68.4253 74.3843 69.7677 75.865C71.1299 77.3456 71.811 79.4283 71.811 82.1131V86.7326C71.811 89.4965 71.1299 91.5989 69.7677 93.04C68.4253 94.4812 66.5597 95.2017 64.171 95.2017C61.7823 95.2017 59.9069 94.4812 58.5447 93.04C57.2023 91.5989 56.5311 89.4965 56.5311 86.7326V82.1131ZM64.171 91.6483C64.8817 91.6483 65.474 91.5397 65.9478 91.3225C66.4215 91.0856 66.8065 90.7599 67.1026 90.3453C67.3988 89.9308 67.606 89.4372 67.7245 88.8647C67.8429 88.2922 67.9022 87.6605 67.9022 86.9695V81.8762C67.9022 81.2248 67.8331 80.6128 67.6949 80.0403C67.5567 79.4678 67.3395 78.9742 67.0434 78.5597C66.7473 78.1451 66.3623 77.8194 65.8885 77.5825C65.4147 77.3258 64.8422 77.1975 64.171 77.1975C63.4998 77.1975 62.9273 77.3258 62.4535 77.5825C61.9797 77.8194 61.5948 78.1451 61.2986 78.5597C61.0025 78.9742 60.7854 79.4678 60.6472 80.0403C60.509 80.6128 60.4399 81.2248 60.4399 81.8762V86.9695C60.4399 87.6605 60.4991 88.2922 60.6176 88.8647C60.736 89.4372 60.9433 89.9308 61.2394 90.3453C61.5355 90.7599 61.9205 91.0856 62.3943 91.3225C62.8681 91.5397 63.4603 91.6483 64.171 91.6483Z" fill="#FCCE44"/>
<path d="M89.7354 91.056V94.7872H75.1662V90.7007C75.1662 89.6149 75.3241 88.6871 75.64 87.9171C75.9756 87.1472 76.4395 86.4957 77.0317 85.9627C77.6437 85.4297 78.3742 84.9954 79.223 84.6598C80.0719 84.3044 81.0294 84.0083 82.0954 83.7714C82.8851 83.5937 83.5267 83.3963 84.0202 83.1792C84.5335 82.9423 84.9382 82.6856 85.2343 82.4093C85.5305 82.1131 85.7279 81.7973 85.8266 81.4617C85.945 81.1063 86.0043 80.7115 86.0043 80.2772C86.0043 79.448 85.6983 78.7571 85.0863 78.2043C84.494 77.6516 83.6649 77.3752 82.5988 77.3752C81.4736 77.3752 80.5753 77.7207 79.9041 78.4116C79.2329 79.0828 78.8973 80.0205 78.8973 81.2248V82.5277H74.9885V80.8694C74.9885 79.9021 75.1563 78.9841 75.4919 78.1155C75.8473 77.2271 76.3408 76.4572 76.9725 75.8057C77.624 75.1345 78.4136 74.6114 79.3415 74.2363C80.2693 73.8415 81.3156 73.644 82.4804 73.644C83.7241 73.644 84.8099 73.8316 85.7377 74.2067C86.6656 74.562 87.4355 75.0358 88.0475 75.6281C88.6792 76.2203 89.1431 76.9113 89.4393 77.7009C89.7551 78.4708 89.9131 79.2704 89.9131 80.0995V80.4549C89.9131 82.1921 89.4195 83.6332 88.4325 84.7782C87.4651 85.9232 85.8759 86.7524 83.6649 87.2657C82.737 87.4828 81.9671 87.7098 81.3551 87.9467C80.7629 88.1639 80.299 88.4107 79.9634 88.6871C79.6278 88.9634 79.3909 89.2694 79.2527 89.605C79.1342 89.9209 79.075 90.2861 79.075 90.7007V91.056H89.7354Z" fill="#FCCE44"/>
<path d="M99.1907 91.056V76.013H98.6577L96.7033 83.12H92.9721V82.7646L95.4596 74.0586H103.1V91.056H108.252V94.7872H93.3275V91.056H99.1907Z" fill="#FCCE44"/>
<path d="M39 6.75798H42.7996L46.0684 18.9335H46.5713L49.8401 6.75798H53.6397L49.6724 20.609H42.9672L39 6.75798Z" fill="#170C2C"/>
<path d="M57.336 17.258H62.0297V10.109H57.6713V6.75798H65.5499V17.258H69.573V20.609H57.336V17.258ZM66.416 2.65293C66.416 3.02527 66.3415 3.37899 66.1925 3.7141C66.0621 4.03059 65.8758 4.30984 65.6337 4.55186C65.3916 4.77527 65.1029 4.96144 64.7676 5.11037C64.451 5.24069 64.1157 5.30585 63.7618 5.30585C63.3893 5.30585 63.0448 5.24069 62.7281 5.11037C62.4115 4.96144 62.1321 4.77527 61.89 4.55186C61.6478 4.30984 61.4523 4.03059 61.3033 3.7141C61.1729 3.37899 61.1077 3.02527 61.1077 2.65293C61.1077 2.28059 61.1729 1.93617 61.3033 1.61968C61.4523 1.28458 61.6478 1.00532 61.89 0.781915C62.1321 0.539893 62.4115 0.353723 62.7281 0.223405C63.0448 0.0744682 63.3893 0 63.7618 0C64.1157 0 64.451 0.0744682 64.7676 0.223405C65.1029 0.353723 65.3916 0.539893 65.6337 0.781915C65.8758 1.00532 66.0621 1.28458 66.1925 1.61968C66.3415 1.93617 66.416 2.28059 66.416 2.65293Z" fill="#170C2C"/>
<path d="M77.7116 20.609H74.1913V6.75798H77.7116V8.82447H78.2144C78.5311 8.04255 79.0433 7.4375 79.7511 7.00931C80.4588 6.58112 81.2877 6.36702 82.2376 6.36702C82.9081 6.36702 83.532 6.47872 84.1094 6.70213C84.7054 6.90692 85.227 7.23271 85.674 7.67952C86.121 8.12633 86.4656 8.69415 86.7077 9.38298C86.9684 10.0718 87.0988 10.891 87.0988 11.8404V20.609H83.5786V12.734C83.5786 11.7473 83.3365 10.9747 82.8522 10.4162C82.3866 9.8391 81.7067 9.55053 80.8127 9.55053C79.7697 9.55053 78.9874 9.90426 78.4659 10.6117C77.963 11.3005 77.7116 12.2314 77.7116 13.4043V20.609Z" fill="#170C2C"/>
<path d="M100.685 6.75798H104.206V20.609H100.685V18.5984H100.182C99.5678 20.1995 98.2454 21 96.2152 21C95.5261 21 94.8835 20.8883 94.2875 20.6649C93.6915 20.4415 93.1699 20.0971 92.7229 19.6317C92.2759 19.1662 91.922 18.5891 91.6613 17.9003C91.4191 17.1928 91.2981 16.3644 91.2981 15.4149V6.75798H94.8183V14.6888C94.8183 15.6755 95.0511 16.4481 95.5168 17.0066C95.9824 17.5465 96.6809 17.8165 97.6121 17.8165C98.6738 17.8165 99.4468 17.4814 99.931 16.8112C100.434 16.1223 100.685 15.1915 100.685 14.0186V6.75798Z" fill="#170C2C"/>
<path d="M111.925 20.609H108.405V6.75798H111.925V8.82447H112.428C112.745 8.04255 113.257 7.4375 113.965 7.00931C114.672 6.58112 115.501 6.36702 116.451 6.36702C117.122 6.36702 117.746 6.47872 118.323 6.70213C118.919 6.90692 119.44 7.23271 119.887 7.67952C120.334 8.12633 120.679 8.69415 120.921 9.38298C121.182 10.0718 121.312 10.891 121.312 11.8404V20.609H117.792V12.734C117.792 11.7473 117.55 10.9747 117.066 10.4162C116.6 9.8391 115.92 9.55053 115.026 9.55053C113.983 9.55053 113.201 9.90426 112.679 10.6117C112.176 11.3005 111.925 12.2314 111.925 13.4043V20.609Z" fill="#170C2C"/>
<path d="M125.763 17.258H130.457V10.109H126.098V6.75798H133.977V17.258H138V20.609H125.763V17.258ZM134.843 2.65293C134.843 3.02527 134.768 3.37899 134.619 3.7141C134.489 4.03059 134.303 4.30984 134.061 4.55186C133.819 4.77527 133.53 4.96144 133.195 5.11037C132.878 5.24069 132.543 5.30585 132.189 5.30585C131.816 5.30585 131.472 5.24069 131.155 5.11037C130.838 4.96144 130.559 4.77527 130.317 4.55186C130.075 4.30984 129.879 4.03059 129.73 3.7141C129.6 3.37899 129.535 3.02527 129.535 2.65293C129.535 2.28059 129.6 1.93617 129.73 1.61968C129.879 1.28458 130.075 1.00532 130.317 0.781915C130.559 0.539893 130.838 0.353723 131.155 0.223405C131.472 0.0744682 131.816 0 132.189 0C132.543 0 132.878 0.0744682 133.195 0.223405C133.53 0.353723 133.819 0.539893 134.061 0.781915C134.303 1.00532 134.489 1.28458 134.619 1.61968C134.768 1.93617 134.843 2.28059 134.843 2.65293Z" fill="#170C2C"/>
</svg>
