<svg width="325" height="179" viewBox="0 0 325 179" fill="none" xmlns="http://www.w3.org/2000/svg">
<path d="M54.156 8.92389L60.168 27.5719L66.108 8.92389H72.336L63.048 34.4839H57.252L47.892 8.92389H54.156ZM74.2378 13.4239V8.20389H79.9978V13.4239H74.2378ZM74.2378 34.4839V15.5839H79.9978V34.4839H74.2378ZM102.157 34.4839H96.3969V23.8639C96.3969 22.6159 96.1569 21.7159 95.6769 21.1639C95.2209 20.5879 94.6089 20.2999 93.8409 20.2999C93.0489 20.2999 92.2449 20.6119 91.4289 21.2359C90.6129 21.8599 90.0369 22.6639 89.7009 23.6479V34.4839H83.9409V15.5839H89.1249V18.7519C89.8209 17.6479 90.8049 16.7839 92.0769 16.1599C93.3489 15.5359 94.8129 15.2239 96.4689 15.2239C97.6929 15.2239 98.6769 15.4519 99.4209 15.9079C100.189 16.3399 100.765 16.9159 101.149 17.6359C101.557 18.3319 101.821 19.0999 101.941 19.9399C102.085 20.7799 102.157 21.5959 102.157 22.3879V34.4839ZM116.975 34.6999C114.935 34.6999 113.195 34.3639 111.755 33.6919C110.315 32.9959 109.139 32.0599 108.227 30.8839C107.339 29.6839 106.679 28.3279 106.247 26.8159C105.839 25.2799 105.635 23.6719 105.635 21.9919V8.92389H111.539V21.9919C111.539 23.2879 111.707 24.4999 112.043 25.6279C112.403 26.7559 112.979 27.6799 113.771 28.3999C114.563 29.0959 115.631 29.4439 116.975 29.4439C118.343 29.4439 119.423 29.0839 120.215 28.3639C121.007 27.6439 121.571 26.7199 121.907 25.5919C122.243 24.4639 122.411 23.2639 122.411 21.9919V8.92389H128.315V21.9919C128.315 24.3439 127.919 26.4799 127.127 28.3999C126.335 30.3199 125.099 31.8559 123.419 33.0079C121.763 34.1359 119.615 34.6999 116.975 34.6999ZM150.321 34.4839H144.561V23.8639C144.561 22.6159 144.321 21.7159 143.841 21.1639C143.385 20.5879 142.773 20.2999 142.005 20.2999C141.213 20.2999 140.409 20.6119 139.593 21.2359C138.777 21.8599 138.201 22.6639 137.865 23.6479V34.4839H132.105V15.5839H137.289V18.7519C137.985 17.6479 138.969 16.7839 140.241 16.1599C141.513 15.5359 142.977 15.2239 144.633 15.2239C145.857 15.2239 146.841 15.4519 147.585 15.9079C148.353 16.3399 148.929 16.9159 149.313 17.6359C149.721 18.3319 149.985 19.0999 150.105 19.9399C150.249 20.7799 150.321 21.5959 150.321 22.3879V34.4839ZM154.148 13.4239V8.20389H159.908V13.4239H154.148ZM154.148 34.4839V15.5839H159.908V34.4839H154.148ZM58.872 92.9599H64.308L66.972 101.132L69.636 92.9599H75.108L70.752 104.84L73.344 111.644L79.752 92.9239H86.196L76.224 118.484H71.112L66.972 108.476L62.868 118.484H57.72L47.784 92.9239H54.192L60.636 111.644L63.156 104.84L58.872 92.9599ZM94.4183 118.844C92.2823 118.844 90.4583 118.4 88.9463 117.512C87.4343 116.624 86.2703 115.448 85.4543 113.984C84.6623 112.52 84.2663 110.936 84.2663 109.232C84.2663 107.408 84.6623 105.74 85.4543 104.228C86.2463 102.716 87.3983 101.504 88.9103 100.592C90.4223 99.6799 92.2583 99.2239 94.4183 99.2239C96.5543 99.2239 98.3783 99.6799 99.8903 100.592C101.402 101.504 102.542 102.704 103.31 104.192C104.102 105.68 104.498 107.276 104.498 108.98C104.498 109.676 104.45 110.288 104.354 110.816H90.3863C90.4823 112.088 90.9383 113.06 91.7543 113.732C92.5943 114.38 93.5423 114.704 94.5983 114.704C95.4383 114.704 96.2423 114.5 97.0103 114.092C97.7783 113.684 98.3063 113.132 98.5943 112.436L103.49 113.804C102.746 115.292 101.582 116.504 99.9983 117.44C98.4383 118.376 96.5783 118.844 94.4183 118.844ZM90.2423 107.288H98.4503C98.3303 106.088 97.8863 105.14 97.1183 104.444C96.3743 103.724 95.4503 103.364 94.3463 103.364C93.2423 103.364 92.3063 103.724 91.5383 104.444C90.7943 105.164 90.3623 106.112 90.2423 107.288ZM116.145 118.844C114.009 118.844 112.185 118.4 110.673 117.512C109.161 116.624 107.997 115.448 107.181 113.984C106.389 112.52 105.993 110.936 105.993 109.232C105.993 107.408 106.389 105.74 107.181 104.228C107.973 102.716 109.125 101.504 110.637 100.592C112.149 99.6799 113.985 99.2239 116.145 99.2239C118.281 99.2239 120.105 99.6799 121.617 100.592C123.129 101.504 124.269 102.704 125.037 104.192C125.829 105.68 126.225 107.276 126.225 108.98C126.225 109.676 126.177 110.288 126.081 110.816H112.113C112.209 112.088 112.665 113.06 113.481 113.732C114.321 114.38 115.269 114.704 116.325 114.704C117.165 114.704 117.969 114.5 118.737 114.092C119.505 113.684 120.033 113.132 120.321 112.436L125.217 113.804C124.473 115.292 123.309 116.504 121.725 117.44C120.165 118.376 118.305 118.844 116.145 118.844ZM111.969 107.288H120.177C120.057 106.088 119.613 105.14 118.845 104.444C118.101 103.724 117.177 103.364 116.073 103.364C114.969 103.364 114.033 103.724 113.265 104.444C112.521 105.164 112.089 106.112 111.969 107.288ZM141.543 118.484L136.611 110.924L134.595 112.976V118.484H128.835V92.2039H134.595V107.396L141.003 99.5839H147.087L140.283 107.72L147.663 118.484H141.543Z" fill="#221F20"/>
<path d="M50.448 76.4839V50.9239H61.968C63.168 50.9239 64.272 51.1759 65.28 51.6799C66.312 52.1599 67.2 52.8199 67.944 53.6599C68.688 54.4759 69.264 55.3999 69.672 56.4319C70.104 57.4639 70.32 58.5079 70.32 59.5639C70.32 61.1479 69.936 62.6119 69.168 63.9559C68.424 65.2759 67.416 66.2839 66.144 66.9799L71.76 76.4839H65.244L60.348 68.2399H56.352V76.4839H50.448ZM56.352 63.0919H61.752C62.448 63.0919 63.048 62.7679 63.552 62.1199C64.056 61.4479 64.308 60.5959 64.308 59.5639C64.308 58.5319 64.02 57.7039 63.444 57.0799C62.868 56.4319 62.244 56.1079 61.572 56.1079H56.352V63.0919ZM82.5004 76.8439C80.3644 76.8439 78.5404 76.3999 77.0284 75.5119C75.5164 74.6239 74.3524 73.4479 73.5364 71.9839C72.7444 70.5199 72.3484 68.9359 72.3484 67.2319C72.3484 65.4079 72.7444 63.7399 73.5364 62.2279C74.3284 60.7159 75.4804 59.5039 76.9924 58.5919C78.5044 57.6799 80.3404 57.2239 82.5004 57.2239C84.6364 57.2239 86.4604 57.6799 87.9724 58.5919C89.4844 59.5039 90.6244 60.7039 91.3924 62.1919C92.1844 63.6799 92.5804 65.2759 92.5804 66.9799C92.5804 67.6759 92.5324 68.2879 92.4364 68.8159H78.4684C78.5644 70.0879 79.0204 71.0599 79.8364 71.7319C80.6764 72.3799 81.6244 72.7039 82.6804 72.7039C83.5204 72.7039 84.3244 72.4999 85.0924 72.0919C85.8604 71.6839 86.3884 71.1319 86.6764 70.4359L91.5724 71.8039C90.8284 73.2919 89.6644 74.5039 88.0804 75.4399C86.5204 76.3759 84.6604 76.8439 82.5004 76.8439ZM78.3244 65.2879H86.5324C86.4124 64.0879 85.9684 63.1399 85.2004 62.4439C84.4564 61.7239 83.5324 61.3639 82.4284 61.3639C81.3244 61.3639 80.3884 61.7239 79.6204 62.4439C78.8764 63.1639 78.4444 64.1119 78.3244 65.2879ZM102.427 76.8439C100.795 76.8439 99.2109 76.5799 97.6749 76.0519C96.1629 75.4999 94.8789 74.7199 93.8229 73.7119L95.8029 70.0759C98.1309 71.7799 100.279 72.6319 102.247 72.6319C102.991 72.6319 103.567 72.5119 103.975 72.2719C104.383 72.0319 104.587 71.6599 104.587 71.1559C104.587 70.6279 104.311 70.2559 103.759 70.0399C103.207 69.7999 102.391 69.5239 101.311 69.2119C99.8709 68.7319 98.6709 68.2639 97.7109 67.8079C96.7509 67.3519 96.0309 66.7999 95.5509 66.1519C95.0709 65.5039 94.8309 64.6399 94.8309 63.5599C94.8309 61.6639 95.5389 60.1399 96.9549 58.9879C98.3709 57.8119 100.291 57.2239 102.715 57.2239C104.011 57.2239 105.271 57.4279 106.495 57.8359C107.743 58.2439 108.907 58.9279 109.987 59.8879L107.755 63.4879C106.675 62.7439 105.715 62.2039 104.875 61.8679C104.035 61.5319 103.219 61.3639 102.427 61.3639C101.803 61.3639 101.275 61.4839 100.843 61.7239C100.411 61.9399 100.195 62.3239 100.195 62.8759C100.195 63.4039 100.435 63.7999 100.915 64.0639C101.395 64.3039 102.139 64.5679 103.147 64.8559C104.683 65.3119 105.967 65.7799 106.999 66.2599C108.055 66.7159 108.835 67.2919 109.339 67.9879C109.867 68.6599 110.131 69.5599 110.131 70.6879C110.131 72.6079 109.435 74.1199 108.043 75.2239C106.651 76.3039 104.779 76.8439 102.427 76.8439ZM122.121 76.8439C119.985 76.8439 118.161 76.3999 116.649 75.5119C115.137 74.6239 113.973 73.4479 113.157 71.9839C112.365 70.5199 111.969 68.9359 111.969 67.2319C111.969 65.4079 112.365 63.7399 113.157 62.2279C113.949 60.7159 115.101 59.5039 116.613 58.5919C118.125 57.6799 119.961 57.2239 122.121 57.2239C124.257 57.2239 126.081 57.6799 127.593 58.5919C129.105 59.5039 130.245 60.7039 131.013 62.1919C131.805 63.6799 132.201 65.2759 132.201 66.9799C132.201 67.6759 132.153 68.2879 132.057 68.8159H118.089C118.185 70.0879 118.641 71.0599 119.457 71.7319C120.297 72.3799 121.245 72.7039 122.301 72.7039C123.141 72.7039 123.945 72.4999 124.713 72.0919C125.481 71.6839 126.009 71.1319 126.297 70.4359L131.193 71.8039C130.449 73.2919 129.285 74.5039 127.701 75.4399C126.141 76.3759 124.281 76.8439 122.121 76.8439ZM117.945 65.2879H126.153C126.033 64.0879 125.589 63.1399 124.821 62.4439C124.077 61.7239 123.153 61.3639 122.049 61.3639C120.945 61.3639 120.009 61.7239 119.241 62.4439C118.497 63.1639 118.065 64.1119 117.945 65.2879ZM133.624 70.8319C133.624 69.5839 133.972 68.4919 134.668 67.5559C135.364 66.6199 136.324 65.8879 137.548 65.3599C138.772 64.8079 140.176 64.5319 141.76 64.5319C142.528 64.5319 143.284 64.6039 144.028 64.7479C144.772 64.8679 145.42 65.0479 145.972 65.2879V64.4599C145.972 62.3239 144.712 61.2559 142.192 61.2559C141.136 61.2559 140.14 61.4359 139.204 61.7959C138.292 62.1559 137.32 62.6719 136.288 63.3439L134.56 59.6719C137.056 58.0399 139.792 57.2239 142.768 57.2239C145.6 57.2239 147.796 57.9079 149.356 59.2759C150.94 60.6199 151.732 62.5759 151.732 65.1439V70.0759C151.732 70.6519 151.816 71.0599 151.984 71.2999C152.176 71.5399 152.5 71.6719 152.956 71.6959V76.4839C152.452 76.5799 151.996 76.6519 151.588 76.6999C151.18 76.7479 150.82 76.7719 150.508 76.7719C149.428 76.7719 148.6 76.5559 148.024 76.1239C147.472 75.6919 147.124 75.1039 146.98 74.3599L146.872 73.5319C146.032 74.6119 145.024 75.4399 143.848 76.0159C142.672 76.5679 141.46 76.8439 140.212 76.8439C138.964 76.8439 137.836 76.5799 136.828 76.0519C135.844 75.5239 135.064 74.8159 134.488 73.9279C133.912 73.0159 133.624 71.9839 133.624 70.8319ZM145.072 71.5519C145.672 71.0719 145.972 70.5799 145.972 70.0759V68.3839C145.468 68.1919 144.916 68.0479 144.316 67.9519C143.74 67.8319 143.212 67.7719 142.732 67.7719C141.652 67.7719 140.764 68.0119 140.068 68.4919C139.396 68.9719 139.06 69.5839 139.06 70.3279C139.06 70.9759 139.312 71.5399 139.816 72.0199C140.344 72.4759 141.04 72.7039 141.904 72.7039C142.48 72.7039 143.056 72.5959 143.632 72.3799C144.208 72.1639 144.688 71.8879 145.072 71.5519ZM167.894 62.5159C166.502 62.5399 165.242 62.7679 164.114 63.1999C162.986 63.6319 162.17 64.2799 161.666 65.1439V76.4839H155.906V57.5839H161.198V61.3999C161.846 60.1279 162.686 59.1319 163.718 58.4119C164.75 57.6919 165.83 57.3199 166.958 57.2959C167.438 57.2959 167.75 57.3079 167.894 57.3319V62.5159ZM179.215 76.8439C177.103 76.8439 175.279 76.3879 173.743 75.4759C172.231 74.5639 171.067 73.3639 170.251 71.8759C169.459 70.3879 169.063 68.7679 169.063 67.0159C169.063 65.2879 169.459 63.6799 170.251 62.1919C171.067 60.7039 172.231 59.5039 173.743 58.5919C175.255 57.6799 177.079 57.2239 179.215 57.2239C181.375 57.2239 183.199 57.6919 184.687 58.6279C186.199 59.5399 187.327 60.7399 188.071 62.2279L182.455 63.9199C181.711 62.7199 180.619 62.1199 179.179 62.1199C178.003 62.1199 177.007 62.5639 176.191 63.4519C175.375 64.3399 174.967 65.5279 174.967 67.0159C174.967 68.5039 175.375 69.7039 176.191 70.6159C177.007 71.5279 178.003 71.9839 179.179 71.9839C179.899 71.9839 180.559 71.8159 181.159 71.4799C181.759 71.1199 182.203 70.6639 182.491 70.1119L188.107 71.8399C187.411 73.3039 186.295 74.5039 184.759 75.4399C183.247 76.3759 181.399 76.8439 179.215 76.8439ZM208.926 76.4839H203.166V65.8639C203.166 64.6399 202.914 63.7399 202.41 63.1639C201.93 62.5879 201.282 62.2999 200.466 62.2999C199.794 62.2999 199.038 62.6119 198.198 63.2359C197.382 63.8359 196.806 64.6399 196.47 65.6479V76.4839H190.71V50.2039H196.47V60.7519C197.142 59.6239 198.054 58.7599 199.206 58.1599C200.358 57.5359 201.618 57.2239 202.986 57.2239C204.258 57.2239 205.29 57.4399 206.082 57.8719C206.874 58.3039 207.474 58.8799 207.882 59.5999C208.29 60.2959 208.566 61.0639 208.71 61.9039C208.854 62.7439 208.926 63.5719 208.926 64.3879V76.4839Z" fill="#535ED2"/>
<path d="M157.014 118.484C157.014 116.972 157.182 115.664 157.518 114.56C157.854 113.456 158.418 112.472 159.21 111.608C160.026 110.744 161.142 109.928 162.558 109.16C164.07 108.344 165.246 107.708 166.086 107.252C166.95 106.772 167.55 106.364 167.886 106.028C168.246 105.668 168.426 105.26 168.426 104.804C168.426 104.132 168.186 103.592 167.706 103.184C167.226 102.776 166.542 102.572 165.654 102.572C164.67 102.572 163.794 102.824 163.026 103.328C162.258 103.808 161.526 104.444 160.83 105.236L157.194 100.988C157.722 100.436 158.454 99.8959 159.39 99.3679C160.35 98.8399 161.442 98.4079 162.666 98.0719C163.914 97.7359 165.246 97.5679 166.662 97.5679C169.23 97.5679 171.21 98.1439 172.602 99.2959C173.994 100.424 174.69 101.936 174.69 103.832C174.69 104.912 174.474 105.836 174.042 106.604C173.634 107.348 173.094 107.984 172.422 108.512C171.774 109.04 171.102 109.52 170.406 109.952C169.254 110.552 168.246 111.104 167.382 111.608C166.542 112.088 165.786 112.652 165.114 113.3H175.086V118.484H157.014ZM197.085 107.936C197.085 110.048 196.677 111.932 195.861 113.588C195.045 115.22 193.929 116.504 192.513 117.44C191.097 118.376 189.489 118.844 187.689 118.844C185.889 118.844 184.281 118.376 182.865 117.44C181.449 116.504 180.333 115.22 179.517 113.588C178.701 111.932 178.293 110.048 178.293 107.936C178.293 105.824 178.701 103.952 179.517 102.32C180.333 100.664 181.449 99.3679 182.865 98.4319C184.281 97.4719 185.889 96.9919 187.689 96.9919C189.489 96.9919 191.097 97.4719 192.513 98.4319C193.929 99.3679 195.045 100.664 195.861 102.32C196.677 103.952 197.085 105.824 197.085 107.936ZM191.289 107.936C191.289 106.256 190.941 104.9 190.245 103.868C189.573 102.812 188.721 102.284 187.689 102.284C186.609 102.284 185.733 102.812 185.061 103.868C184.389 104.9 184.053 106.256 184.053 107.936C184.053 109.616 184.389 110.972 185.061 112.004C185.733 113.036 186.609 113.552 187.689 113.552C188.721 113.552 189.573 113.036 190.245 112.004C190.941 110.972 191.289 109.616 191.289 107.936ZM200.01 118.484C200.01 116.972 200.178 115.664 200.514 114.56C200.85 113.456 201.414 112.472 202.206 111.608C203.022 110.744 204.138 109.928 205.554 109.16C207.066 108.344 208.242 107.708 209.082 107.252C209.946 106.772 210.546 106.364 210.882 106.028C211.242 105.668 211.422 105.26 211.422 104.804C211.422 104.132 211.182 103.592 210.702 103.184C210.222 102.776 209.538 102.572 208.65 102.572C207.666 102.572 206.79 102.824 206.022 103.328C205.254 103.808 204.522 104.444 203.826 105.236L200.19 100.988C200.718 100.436 201.45 99.8959 202.386 99.3679C203.346 98.8399 204.438 98.4079 205.662 98.0719C206.91 97.7359 208.242 97.5679 209.658 97.5679C212.226 97.5679 214.206 98.1439 215.598 99.2959C216.99 100.424 217.686 101.936 217.686 103.832C217.686 104.912 217.47 105.836 217.038 106.604C216.63 107.348 216.09 107.984 215.418 108.512C214.77 109.04 214.098 109.52 213.402 109.952C212.25 110.552 211.242 111.104 210.378 111.608C209.538 112.088 208.782 112.652 208.11 113.3H218.082V118.484H200.01ZM237.417 113.3V118.484H221.865V113.3H226.977V104.12C226.689 104.504 226.197 104.888 225.501 105.272C224.829 105.656 224.085 105.992 223.269 106.28C222.477 106.544 221.769 106.676 221.145 106.676V101.348C221.553 101.348 222.057 101.216 222.657 100.952C223.257 100.688 223.857 100.376 224.457 100.016C225.081 99.6319 225.621 99.2479 226.077 98.8639C226.557 98.4799 226.857 98.1679 226.977 97.9279H232.845V113.3H237.417Z" fill="#FFCA27"/>
<rect y="7.48389" width="38" height="111" fill="#FFCA27"/>
<rect x="187" y="140.484" width="38" height="38" fill="#76E094"/>
<rect x="252" y="88.4839" width="38" height="38" fill="#76E094"/>
<path d="M298.028 30.4847C302.443 31.1117 306.775 32.6556 311.022 35.1162C315.224 37.5704 319.261 40.5351 323.132 44.0102L320.18 48.1184C316.413 44.8902 312.591 42.2114 308.715 40.082C304.793 37.9462 301.034 36.623 297.438 36.1123C295.208 35.7955 292.844 35.7617 290.348 36.0108C287.858 36.2143 285.388 36.6065 282.937 37.1871C280.486 37.7677 278.211 38.4197 276.112 39.1431C274.012 39.8665 272.264 40.5701 270.867 41.2539L269.478 36.3203C274.411 34.2813 279.24 32.6455 283.966 31.4129C288.698 30.1347 293.385 29.8253 298.028 30.4847Z" fill="#221F20"/>
<path d="M277.852 47.5891C277.852 51.6347 277.094 55.2436 275.576 58.4157C274.059 61.5419 271.99 64.0015 269.37 65.7944C266.75 67.5874 263.761 68.4839 260.405 68.4839C257.049 68.4839 254.061 67.5874 251.441 65.7944C248.82 64.0015 246.751 61.5419 245.234 58.4157C243.717 55.2436 242.958 51.6347 242.958 47.5891C242.958 43.5435 243.717 39.9576 245.234 36.8314C246.751 33.6592 248.82 31.1767 251.441 29.3837C254.061 27.5448 257.049 26.6254 260.405 26.6254C263.761 26.6254 266.75 27.5448 269.37 29.3837C271.99 31.1767 274.059 33.6592 275.576 36.8314C277.094 39.9576 277.852 43.5435 277.852 47.5891ZM271.715 47.5891C271.715 44.5549 271.232 41.8884 270.267 39.5898C269.301 37.2911 267.968 35.4982 266.267 34.2109C264.566 32.9237 262.612 32.2801 260.405 32.2801C258.153 32.2801 256.176 32.9237 254.475 34.2109C252.774 35.4982 251.441 37.2911 250.475 39.5898C249.51 41.8884 249.027 44.5549 249.027 47.5891C249.027 50.6233 249.51 53.2898 250.475 55.5884C251.441 57.8411 252.774 59.611 254.475 60.8983C256.176 62.1855 258.153 62.8292 260.405 62.8292C262.612 62.8292 264.566 62.1855 266.267 60.8983C267.968 59.611 269.301 57.8411 270.267 55.5884C271.232 53.2898 271.715 50.6233 271.715 47.5891Z" fill="#221F20"/>
<path d="M245.771 30.9408C246.947 31.8759 247.896 33.1217 248.618 34.6785C249.327 36.2256 249.875 37.9266 250.261 39.7815L248.475 40.7584C248.066 39.0076 247.519 37.4425 246.835 36.0629C246.138 34.6736 245.311 33.5982 244.353 32.8367C243.759 32.3644 243.062 31.9707 242.264 31.6556C241.478 31.3254 240.655 31.0651 239.798 30.8747C238.94 30.6844 238.118 30.5476 237.333 30.4644C236.549 30.3813 235.873 30.3478 235.306 30.3641L235.981 28.3941C237.9 28.4694 239.699 28.6707 241.379 28.9979C243.07 29.31 244.534 29.9576 245.771 30.9408Z" fill="#221F20"/>
<path d="M242.894 22.4476C242.894 26.4932 242.135 30.1021 240.618 33.2743C239.101 36.4004 237.032 38.86 234.412 40.6529C231.791 42.4459 228.803 43.3424 225.447 43.3424C222.091 43.3424 219.103 42.4459 216.482 40.6529C213.862 38.86 211.793 36.4004 210.276 33.2743C208.759 30.1021 208 26.4932 208 22.4476C208 18.402 208.759 14.8161 210.276 11.6899C211.793 8.51777 213.862 6.03522 216.482 4.24227C219.103 2.40335 222.091 1.48389 225.447 1.48389C228.803 1.48389 231.791 2.40335 234.412 4.24227C237.032 6.03522 239.101 8.51777 240.618 11.6899C242.135 14.8161 242.894 18.402 242.894 22.4476ZM236.756 22.4476C236.756 19.4134 236.273 16.7469 235.308 14.4483C234.343 12.1496 233.009 10.3567 231.308 9.06944C229.607 7.78219 227.653 7.13857 225.447 7.13857C223.194 7.13857 221.217 7.78219 219.516 9.06944C217.815 10.3567 216.482 12.1496 215.517 14.4483C214.551 16.7469 214.068 19.4134 214.068 22.4476C214.068 25.4818 214.551 28.1483 215.517 30.4469C216.482 32.6996 217.815 34.4696 219.516 35.7568C221.217 37.0441 223.194 37.6877 225.447 37.6877C227.653 37.6877 229.607 37.0441 231.308 35.7568C233.009 34.4696 234.343 32.6996 235.308 30.4469C236.273 28.1483 236.756 25.4818 236.756 22.4476Z" fill="#221F20"/>
<path d="M263.069 5.34319C267.484 5.97025 271.816 7.51409 276.063 9.97473C280.265 12.4289 284.302 15.3936 288.173 18.8688L285.221 22.9769C281.454 19.7487 277.633 17.0699 273.756 14.9406C269.834 12.8047 266.075 11.4815 262.479 10.9708C260.249 10.654 257.885 10.6202 255.389 10.8693C252.899 11.0729 250.429 11.465 247.978 12.0456C245.527 12.6263 243.252 13.2783 241.153 14.0016C239.053 14.725 237.305 15.4286 235.908 16.1124L234.519 11.1789C239.452 9.13986 244.281 7.50402 249.007 6.27138C253.739 4.99321 258.427 4.68382 263.069 5.34319Z" fill="#221F20"/>
</svg>
