<svg width="325" height="178" viewBox="0 0 325 178" fill="none" xmlns="http://www.w3.org/2000/svg">
<path d="M54.156 8.44L60.168 27.088L66.108 8.44H72.336L63.048 34H57.252L47.892 8.44H54.156ZM74.2378 12.94V7.72H79.9978V12.94H74.2378ZM74.2378 34V15.1H79.9978V34H74.2378ZM102.157 34H96.3969V23.38C96.3969 22.132 96.1569 21.232 95.6769 20.68C95.2209 20.104 94.6089 19.816 93.8409 19.816C93.0489 19.816 92.2449 20.128 91.4289 20.752C90.6129 21.376 90.0369 22.18 89.7009 23.164V34H83.9409V15.1H89.1249V18.268C89.8209 17.164 90.8049 16.3 92.0769 15.676C93.3489 15.052 94.8129 14.74 96.4689 14.74C97.6929 14.74 98.6769 14.968 99.4209 15.424C100.189 15.856 100.765 16.432 101.149 17.152C101.557 17.848 101.821 18.616 101.941 19.456C102.085 20.296 102.157 21.112 102.157 21.904V34ZM116.975 34.216C114.935 34.216 113.195 33.88 111.755 33.208C110.315 32.512 109.139 31.576 108.227 30.4C107.339 29.2 106.679 27.844 106.247 26.332C105.839 24.796 105.635 23.188 105.635 21.508V8.44H111.539V21.508C111.539 22.804 111.707 24.016 112.043 25.144C112.403 26.272 112.979 27.196 113.771 27.916C114.563 28.612 115.631 28.96 116.975 28.96C118.343 28.96 119.423 28.6 120.215 27.88C121.007 27.16 121.571 26.236 121.907 25.108C122.243 23.98 122.411 22.78 122.411 21.508V8.44H128.315V21.508C128.315 23.86 127.919 25.996 127.127 27.916C126.335 29.836 125.099 31.372 123.419 32.524C121.763 33.652 119.615 34.216 116.975 34.216ZM150.321 34H144.561V23.38C144.561 22.132 144.321 21.232 143.841 20.68C143.385 20.104 142.773 19.816 142.005 19.816C141.213 19.816 140.409 20.128 139.593 20.752C138.777 21.376 138.201 22.18 137.865 23.164V34H132.105V15.1H137.289V18.268C137.985 17.164 138.969 16.3 140.241 15.676C141.513 15.052 142.977 14.74 144.633 14.74C145.857 14.74 146.841 14.968 147.585 15.424C148.353 15.856 148.929 16.432 149.313 17.152C149.721 17.848 149.985 18.616 150.105 19.456C150.249 20.296 150.321 21.112 150.321 21.904V34ZM154.148 12.94V7.72H159.908V12.94H154.148ZM154.148 34V15.1H159.908V34H154.148ZM58.872 92.476H64.308L66.972 100.648L69.636 92.476H75.108L70.752 104.356L73.344 111.16L79.752 92.44H86.196L76.224 118H71.112L66.972 107.992L62.868 118H57.72L47.784 92.44H54.192L60.636 111.16L63.156 104.356L58.872 92.476ZM94.4183 118.36C92.2823 118.36 90.4583 117.916 88.9463 117.028C87.4343 116.14 86.2703 114.964 85.4543 113.5C84.6623 112.036 84.2663 110.452 84.2663 108.748C84.2663 106.924 84.6623 105.256 85.4543 103.744C86.2463 102.232 87.3983 101.02 88.9103 100.108C90.4223 99.196 92.2583 98.74 94.4183 98.74C96.5543 98.74 98.3783 99.196 99.8903 100.108C101.402 101.02 102.542 102.22 103.31 103.708C104.102 105.196 104.498 106.792 104.498 108.496C104.498 109.192 104.45 109.804 104.354 110.332H90.3863C90.4823 111.604 90.9383 112.576 91.7543 113.248C92.5943 113.896 93.5423 114.22 94.5983 114.22C95.4383 114.22 96.2423 114.016 97.0103 113.608C97.7783 113.2 98.3063 112.648 98.5943 111.952L103.49 113.32C102.746 114.808 101.582 116.02 99.9983 116.956C98.4383 117.892 96.5783 118.36 94.4183 118.36ZM90.2423 106.804H98.4503C98.3303 105.604 97.8863 104.656 97.1183 103.96C96.3743 103.24 95.4503 102.88 94.3463 102.88C93.2423 102.88 92.3063 103.24 91.5383 103.96C90.7943 104.68 90.3623 105.628 90.2423 106.804ZM116.145 118.36C114.009 118.36 112.185 117.916 110.673 117.028C109.161 116.14 107.997 114.964 107.181 113.5C106.389 112.036 105.993 110.452 105.993 108.748C105.993 106.924 106.389 105.256 107.181 103.744C107.973 102.232 109.125 101.02 110.637 100.108C112.149 99.196 113.985 98.74 116.145 98.74C118.281 98.74 120.105 99.196 121.617 100.108C123.129 101.02 124.269 102.22 125.037 103.708C125.829 105.196 126.225 106.792 126.225 108.496C126.225 109.192 126.177 109.804 126.081 110.332H112.113C112.209 111.604 112.665 112.576 113.481 113.248C114.321 113.896 115.269 114.22 116.325 114.22C117.165 114.22 117.969 114.016 118.737 113.608C119.505 113.2 120.033 112.648 120.321 111.952L125.217 113.32C124.473 114.808 123.309 116.02 121.725 116.956C120.165 117.892 118.305 118.36 116.145 118.36ZM111.969 106.804H120.177C120.057 105.604 119.613 104.656 118.845 103.96C118.101 103.24 117.177 102.88 116.073 102.88C114.969 102.88 114.033 103.24 113.265 103.96C112.521 104.68 112.089 105.628 111.969 106.804ZM141.543 118L136.611 110.44L134.595 112.492V118H128.835V91.72H134.595V106.912L141.003 99.1H147.087L140.283 107.236L147.663 118H141.543Z" fill="white"/>
<path d="M50.448 76V50.44H61.968C63.168 50.44 64.272 50.692 65.28 51.196C66.312 51.676 67.2 52.336 67.944 53.176C68.688 53.992 69.264 54.916 69.672 55.948C70.104 56.98 70.32 58.024 70.32 59.08C70.32 60.664 69.936 62.128 69.168 63.472C68.424 64.792 67.416 65.8 66.144 66.496L71.76 76H65.244L60.348 67.756H56.352V76H50.448ZM56.352 62.608H61.752C62.448 62.608 63.048 62.284 63.552 61.636C64.056 60.964 64.308 60.112 64.308 59.08C64.308 58.048 64.02 57.22 63.444 56.596C62.868 55.948 62.244 55.624 61.572 55.624H56.352V62.608ZM82.5004 76.36C80.3644 76.36 78.5404 75.916 77.0284 75.028C75.5164 74.14 74.3524 72.964 73.5364 71.5C72.7444 70.036 72.3484 68.452 72.3484 66.748C72.3484 64.924 72.7444 63.256 73.5364 61.744C74.3284 60.232 75.4804 59.02 76.9924 58.108C78.5044 57.196 80.3404 56.74 82.5004 56.74C84.6364 56.74 86.4604 57.196 87.9724 58.108C89.4844 59.02 90.6244 60.22 91.3924 61.708C92.1844 63.196 92.5804 64.792 92.5804 66.496C92.5804 67.192 92.5324 67.804 92.4364 68.332H78.4684C78.5644 69.604 79.0204 70.576 79.8364 71.248C80.6764 71.896 81.6244 72.22 82.6804 72.22C83.5204 72.22 84.3244 72.016 85.0924 71.608C85.8604 71.2 86.3884 70.648 86.6764 69.952L91.5724 71.32C90.8284 72.808 89.6644 74.02 88.0804 74.956C86.5204 75.892 84.6604 76.36 82.5004 76.36ZM78.3244 64.804H86.5324C86.4124 63.604 85.9684 62.656 85.2004 61.96C84.4564 61.24 83.5324 60.88 82.4284 60.88C81.3244 60.88 80.3884 61.24 79.6204 61.96C78.8764 62.68 78.4444 63.628 78.3244 64.804ZM102.427 76.36C100.795 76.36 99.2109 76.096 97.6749 75.568C96.1629 75.016 94.8789 74.236 93.8229 73.228L95.8029 69.592C98.1309 71.296 100.279 72.148 102.247 72.148C102.991 72.148 103.567 72.028 103.975 71.788C104.383 71.548 104.587 71.176 104.587 70.672C104.587 70.144 104.311 69.772 103.759 69.556C103.207 69.316 102.391 69.04 101.311 68.728C99.8709 68.248 98.6709 67.78 97.7109 67.324C96.7509 66.868 96.0309 66.316 95.5509 65.668C95.0709 65.02 94.8309 64.156 94.8309 63.076C94.8309 61.18 95.5389 59.656 96.9549 58.504C98.3709 57.328 100.291 56.74 102.715 56.74C104.011 56.74 105.271 56.944 106.495 57.352C107.743 57.76 108.907 58.444 109.987 59.404L107.755 63.004C106.675 62.26 105.715 61.72 104.875 61.384C104.035 61.048 103.219 60.88 102.427 60.88C101.803 60.88 101.275 61 100.843 61.24C100.411 61.456 100.195 61.84 100.195 62.392C100.195 62.92 100.435 63.316 100.915 63.58C101.395 63.82 102.139 64.084 103.147 64.372C104.683 64.828 105.967 65.296 106.999 65.776C108.055 66.232 108.835 66.808 109.339 67.504C109.867 68.176 110.131 69.076 110.131 70.204C110.131 72.124 109.435 73.636 108.043 74.74C106.651 75.82 104.779 76.36 102.427 76.36ZM122.121 76.36C119.985 76.36 118.161 75.916 116.649 75.028C115.137 74.14 113.973 72.964 113.157 71.5C112.365 70.036 111.969 68.452 111.969 66.748C111.969 64.924 112.365 63.256 113.157 61.744C113.949 60.232 115.101 59.02 116.613 58.108C118.125 57.196 119.961 56.74 122.121 56.74C124.257 56.74 126.081 57.196 127.593 58.108C129.105 59.02 130.245 60.22 131.013 61.708C131.805 63.196 132.201 64.792 132.201 66.496C132.201 67.192 132.153 67.804 132.057 68.332H118.089C118.185 69.604 118.641 70.576 119.457 71.248C120.297 71.896 121.245 72.22 122.301 72.22C123.141 72.22 123.945 72.016 124.713 71.608C125.481 71.2 126.009 70.648 126.297 69.952L131.193 71.32C130.449 72.808 129.285 74.02 127.701 74.956C126.141 75.892 124.281 76.36 122.121 76.36ZM117.945 64.804H126.153C126.033 63.604 125.589 62.656 124.821 61.96C124.077 61.24 123.153 60.88 122.049 60.88C120.945 60.88 120.009 61.24 119.241 61.96C118.497 62.68 118.065 63.628 117.945 64.804ZM133.624 70.348C133.624 69.1 133.972 68.008 134.668 67.072C135.364 66.136 136.324 65.404 137.548 64.876C138.772 64.324 140.176 64.048 141.76 64.048C142.528 64.048 143.284 64.12 144.028 64.264C144.772 64.384 145.42 64.564 145.972 64.804V63.976C145.972 61.84 144.712 60.772 142.192 60.772C141.136 60.772 140.14 60.952 139.204 61.312C138.292 61.672 137.32 62.188 136.288 62.86L134.56 59.188C137.056 57.556 139.792 56.74 142.768 56.74C145.6 56.74 147.796 57.424 149.356 58.792C150.94 60.136 151.732 62.092 151.732 64.66V69.592C151.732 70.168 151.816 70.576 151.984 70.816C152.176 71.056 152.5 71.188 152.956 71.212V76C152.452 76.096 151.996 76.168 151.588 76.216C151.18 76.264 150.82 76.288 150.508 76.288C149.428 76.288 148.6 76.072 148.024 75.64C147.472 75.208 147.124 74.62 146.98 73.876L146.872 73.048C146.032 74.128 145.024 74.956 143.848 75.532C142.672 76.084 141.46 76.36 140.212 76.36C138.964 76.36 137.836 76.096 136.828 75.568C135.844 75.04 135.064 74.332 134.488 73.444C133.912 72.532 133.624 71.5 133.624 70.348ZM145.072 71.068C145.672 70.588 145.972 70.096 145.972 69.592V67.9C145.468 67.708 144.916 67.564 144.316 67.468C143.74 67.348 143.212 67.288 142.732 67.288C141.652 67.288 140.764 67.528 140.068 68.008C139.396 68.488 139.06 69.1 139.06 69.844C139.06 70.492 139.312 71.056 139.816 71.536C140.344 71.992 141.04 72.22 141.904 72.22C142.48 72.22 143.056 72.112 143.632 71.896C144.208 71.68 144.688 71.404 145.072 71.068ZM167.894 62.032C166.502 62.056 165.242 62.284 164.114 62.716C162.986 63.148 162.17 63.796 161.666 64.66V76H155.906V57.1H161.198V60.916C161.846 59.644 162.686 58.648 163.718 57.928C164.75 57.208 165.83 56.836 166.958 56.812C167.438 56.812 167.75 56.824 167.894 56.848V62.032ZM179.215 76.36C177.103 76.36 175.279 75.904 173.743 74.992C172.231 74.08 171.067 72.88 170.251 71.392C169.459 69.904 169.063 68.284 169.063 66.532C169.063 64.804 169.459 63.196 170.251 61.708C171.067 60.22 172.231 59.02 173.743 58.108C175.255 57.196 177.079 56.74 179.215 56.74C181.375 56.74 183.199 57.208 184.687 58.144C186.199 59.056 187.327 60.256 188.071 61.744L182.455 63.436C181.711 62.236 180.619 61.636 179.179 61.636C178.003 61.636 177.007 62.08 176.191 62.968C175.375 63.856 174.967 65.044 174.967 66.532C174.967 68.02 175.375 69.22 176.191 70.132C177.007 71.044 178.003 71.5 179.179 71.5C179.899 71.5 180.559 71.332 181.159 70.996C181.759 70.636 182.203 70.18 182.491 69.628L188.107 71.356C187.411 72.82 186.295 74.02 184.759 74.956C183.247 75.892 181.399 76.36 179.215 76.36ZM208.926 76H203.166V65.38C203.166 64.156 202.914 63.256 202.41 62.68C201.93 62.104 201.282 61.816 200.466 61.816C199.794 61.816 199.038 62.128 198.198 62.752C197.382 63.352 196.806 64.156 196.47 65.164V76H190.71V49.72H196.47V60.268C197.142 59.14 198.054 58.276 199.206 57.676C200.358 57.052 201.618 56.74 202.986 56.74C204.258 56.74 205.29 56.956 206.082 57.388C206.874 57.82 207.474 58.396 207.882 59.116C208.29 59.812 208.566 60.58 208.71 61.42C208.854 62.26 208.926 63.088 208.926 63.904V76Z" fill="#535ED2"/>
<path d="M157.014 118C157.014 116.488 157.182 115.18 157.518 114.076C157.854 112.972 158.418 111.988 159.21 111.124C160.026 110.26 161.142 109.444 162.558 108.676C164.07 107.86 165.246 107.224 166.086 106.768C166.95 106.288 167.55 105.88 167.886 105.544C168.246 105.184 168.426 104.776 168.426 104.32C168.426 103.648 168.186 103.108 167.706 102.7C167.226 102.292 166.542 102.088 165.654 102.088C164.67 102.088 163.794 102.34 163.026 102.844C162.258 103.324 161.526 103.96 160.83 104.752L157.194 100.504C157.722 99.952 158.454 99.412 159.39 98.884C160.35 98.356 161.442 97.924 162.666 97.588C163.914 97.252 165.246 97.084 166.662 97.084C169.23 97.084 171.21 97.66 172.602 98.812C173.994 99.94 174.69 101.452 174.69 103.348C174.69 104.428 174.474 105.352 174.042 106.12C173.634 106.864 173.094 107.5 172.422 108.028C171.774 108.556 171.102 109.036 170.406 109.468C169.254 110.068 168.246 110.62 167.382 111.124C166.542 111.604 165.786 112.168 165.114 112.816H175.086V118H157.014ZM197.085 107.452C197.085 109.564 196.677 111.448 195.861 113.104C195.045 114.736 193.929 116.02 192.513 116.956C191.097 117.892 189.489 118.36 187.689 118.36C185.889 118.36 184.281 117.892 182.865 116.956C181.449 116.02 180.333 114.736 179.517 113.104C178.701 111.448 178.293 109.564 178.293 107.452C178.293 105.34 178.701 103.468 179.517 101.836C180.333 100.18 181.449 98.884 182.865 97.948C184.281 96.988 185.889 96.508 187.689 96.508C189.489 96.508 191.097 96.988 192.513 97.948C193.929 98.884 195.045 100.18 195.861 101.836C196.677 103.468 197.085 105.34 197.085 107.452ZM191.289 107.452C191.289 105.772 190.941 104.416 190.245 103.384C189.573 102.328 188.721 101.8 187.689 101.8C186.609 101.8 185.733 102.328 185.061 103.384C184.389 104.416 184.053 105.772 184.053 107.452C184.053 109.132 184.389 110.488 185.061 111.52C185.733 112.552 186.609 113.068 187.689 113.068C188.721 113.068 189.573 112.552 190.245 111.52C190.941 110.488 191.289 109.132 191.289 107.452ZM200.01 118C200.01 116.488 200.178 115.18 200.514 114.076C200.85 112.972 201.414 111.988 202.206 111.124C203.022 110.26 204.138 109.444 205.554 108.676C207.066 107.86 208.242 107.224 209.082 106.768C209.946 106.288 210.546 105.88 210.882 105.544C211.242 105.184 211.422 104.776 211.422 104.32C211.422 103.648 211.182 103.108 210.702 102.7C210.222 102.292 209.538 102.088 208.65 102.088C207.666 102.088 206.79 102.34 206.022 102.844C205.254 103.324 204.522 103.96 203.826 104.752L200.19 100.504C200.718 99.952 201.45 99.412 202.386 98.884C203.346 98.356 204.438 97.924 205.662 97.588C206.91 97.252 208.242 97.084 209.658 97.084C212.226 97.084 214.206 97.66 215.598 98.812C216.99 99.94 217.686 101.452 217.686 103.348C217.686 104.428 217.47 105.352 217.038 106.12C216.63 106.864 216.09 107.5 215.418 108.028C214.77 108.556 214.098 109.036 213.402 109.468C212.25 110.068 211.242 110.62 210.378 111.124C209.538 111.604 208.782 112.168 208.11 112.816H218.082V118H200.01ZM237.417 112.816V118H221.865V112.816H226.977V103.636C226.689 104.02 226.197 104.404 225.501 104.788C224.829 105.172 224.085 105.508 223.269 105.796C222.477 106.06 221.769 106.192 221.145 106.192V100.864C221.553 100.864 222.057 100.732 222.657 100.468C223.257 100.204 223.857 99.892 224.457 99.532C225.081 99.148 225.621 98.764 226.077 98.38C226.557 97.996 226.857 97.684 226.977 97.444H232.845V112.816H237.417Z" fill="#FFCA27"/>
<rect y="7" width="38" height="111" fill="#FFCA27"/>
<rect x="187" y="140" width="38" height="38" fill="#76E094"/>
<rect x="252" y="88" width="38" height="38" fill="#76E094"/>
<path d="M298.028 30.0008C302.443 30.6278 306.775 32.1717 311.022 34.6323C315.224 37.0865 319.261 40.0512 323.132 43.5263L320.181 47.6345C316.414 44.4063 312.592 41.7275 308.715 39.5981C304.793 37.4623 301.034 36.1391 297.438 35.6284C295.208 35.3116 292.844 35.2778 290.348 35.5269C287.858 35.7304 285.388 36.1226 282.937 36.7032C280.487 37.2838 278.212 37.9358 276.112 38.6592C274.013 39.3826 272.264 40.0862 270.867 40.77L269.478 35.8364C274.411 33.7974 279.241 32.1616 283.966 30.929C288.698 29.6508 293.386 29.3414 298.028 30.0008Z" fill="white"/>
<path d="M277.852 47.1052C277.852 51.1509 277.094 54.7597 275.576 57.9319C274.059 61.0581 271.99 63.5176 269.37 65.3106C266.75 67.1035 263.761 68 260.405 68C257.049 68 254.061 67.1035 251.441 65.3106C248.82 63.5176 246.751 61.0581 245.234 57.9319C243.717 54.7597 242.958 51.1509 242.958 47.1052C242.958 43.0596 243.717 39.4737 245.234 36.3475C246.751 33.1754 248.82 30.6928 251.441 28.8999C254.061 27.061 257.049 26.1415 260.405 26.1415C263.761 26.1415 266.75 27.061 269.37 28.8999C271.99 30.6928 274.059 33.1754 275.576 36.3475C277.094 39.4737 277.852 43.0596 277.852 47.1052ZM271.715 47.1052C271.715 44.071 271.232 41.4046 270.267 39.1059C269.301 36.8073 267.968 35.0143 266.267 33.7271C264.566 32.4398 262.612 31.7962 260.405 31.7962C258.153 31.7962 256.176 32.4398 254.475 33.7271C252.774 35.0143 251.441 36.8073 250.475 39.1059C249.51 41.4046 249.027 44.071 249.027 47.1052C249.027 50.1395 249.51 52.8059 250.475 55.1045C251.441 57.3572 252.774 59.1272 254.475 60.4144C256.176 61.7017 258.153 62.3453 260.405 62.3453C262.612 62.3453 264.566 61.7017 266.267 60.4144C267.968 59.1272 269.301 57.3572 270.267 55.1045C271.232 52.8059 271.715 50.1395 271.715 47.1052Z" fill="white"/>
<path d="M245.771 30.4569C246.947 31.392 247.896 32.6378 248.617 34.1946C249.327 35.7417 249.875 37.4427 250.26 39.2976L248.475 40.2745C248.065 38.5237 247.519 36.9586 246.834 35.579C246.138 34.1897 245.311 33.1143 244.353 32.3528C243.758 31.8805 243.062 31.4868 242.264 31.1717C241.477 30.8415 240.655 30.5812 239.797 30.3908C238.939 30.2005 238.118 30.0637 237.333 29.9805C236.548 29.8974 235.872 29.8639 235.305 29.8802L235.981 27.9102C237.9 27.9855 239.699 28.1868 241.378 28.514C243.07 28.8261 244.534 29.4737 245.771 30.4569Z" fill="white"/>
<path d="M242.894 21.9637C242.894 26.0094 242.135 29.6183 240.618 32.7904C239.101 35.9166 237.032 38.3761 234.412 40.1691C231.791 41.962 228.803 42.8585 225.447 42.8585C222.091 42.8585 219.103 41.962 216.482 40.1691C213.862 38.3761 211.793 35.9166 210.276 32.7904C208.759 29.6183 208 26.0094 208 21.9637C208 17.9181 208.759 14.3322 210.276 11.206C211.793 8.03389 213.862 5.55135 216.482 3.7584C219.103 1.91948 222.091 1.00002 225.447 1.00002C228.803 1.00002 231.791 1.91948 234.412 3.7584C237.032 5.55135 239.101 8.03389 240.618 11.206C242.135 14.3322 242.894 17.9181 242.894 21.9637ZM236.756 21.9637C236.756 18.9295 236.273 16.2631 235.308 13.9644C234.343 11.6658 233.009 9.87282 231.308 8.58557C229.607 7.29832 227.653 6.6547 225.447 6.6547C223.194 6.6547 221.217 7.29832 219.516 8.58557C217.815 9.87282 216.482 11.6658 215.517 13.9644C214.551 16.2631 214.068 18.9295 214.068 21.9637C214.068 24.998 214.551 27.6644 215.517 29.9631C216.482 32.2157 217.815 33.9857 219.516 35.2729C221.217 36.5602 223.194 37.2038 225.447 37.2038C227.653 37.2038 229.607 36.5602 231.308 35.2729C233.009 33.9857 234.343 32.2157 235.308 29.9631C236.273 27.6644 236.756 24.998 236.756 21.9637Z" fill="white"/>
<path d="M263.069 4.85929C267.484 5.48635 271.816 7.03019 276.063 9.49083C280.265 11.945 284.302 14.9097 288.173 18.3849L285.222 22.493C281.455 19.2648 277.633 16.586 273.756 14.4567C269.834 12.3208 266.075 10.9976 262.479 10.4869C260.249 10.1701 257.885 10.1363 255.389 10.3854C252.899 10.589 250.429 10.9811 247.978 11.5617C245.528 12.1424 243.253 12.7944 241.153 13.5177C239.054 14.2411 237.305 14.9447 235.908 15.6285L234.519 10.695C239.452 8.65595 244.282 7.02012 249.007 5.78747C253.739 4.50931 258.427 4.19991 263.069 4.85929Z" fill="white"/>
</svg>
