<svg width="137" height="139" viewBox="0 0 137 139" fill="none" xmlns="http://www.w3.org/2000/svg">
<path fill-rule="evenodd" clip-rule="evenodd" d="M65.2861 3.85542L66.863 3.78557L66.8384 3.23046L65.2615 3.30031L65.1845 1.56257C65.1762 1.37485 65.1829 1.2214 65.2045 1.10222C65.226 0.983036 65.2647 0.884594 65.3203 0.806893C65.3816 0.734318 65.4599 0.682484 65.5553 0.65139C65.6506 0.620296 65.768 0.60166 65.9075 0.595483C66.1006 0.586929 66.2568 0.59613 66.3762 0.623083C66.4957 0.650036 66.6102 0.687954 66.7198 0.736836L66.7914 0.169403C66.7149 0.140549 66.5923 0.102987 66.4237 0.056719C66.2604 0.010213 66.0581 -0.00769395 65.8167 0.00299792C65.5379 0.015353 65.3113 0.0576312 65.1372 0.129833C64.963 0.202034 64.8279 0.304753 64.7317 0.437988C64.6408 0.570987 64.5808 0.732177 64.5516 0.921559C64.5226 1.1163 64.5137 1.33972 64.5248 1.5918L64.6018 3.32953L63.8134 3.36446L63.838 3.91957L64.6264 3.88465L64.6728 4.93051L65.3374 5.01391L65.2861 3.85542ZM60.2084 1.80049C60.3088 1.70042 60.3501 1.58386 60.3323 1.45083C60.2918 1.14751 59.9709 1.03602 59.3696 1.11635C59.1354 1.14763 58.9182 1.20374 58.7177 1.28468C58.5233 1.37024 58.3387 1.46802 58.1638 1.57805L57.9561 0.996455C58.1363 0.88572 58.33 0.794848 58.5372 0.72384C58.7444 0.652831 58.9757 0.600265 59.2311 0.566141C59.7951 0.490782 60.2196 0.526148 60.5046 0.672239C60.7902 0.823652 60.9554 1.06698 61.0002 1.40223C61.0279 1.60976 60.9948 1.78751 60.9008 1.93547C60.8129 2.08805 60.6928 2.22325 60.5406 2.34107C60.3885 2.45889 60.2209 2.56253 60.0378 2.65198C59.8555 2.74675 59.6861 2.83709 59.5297 2.92298C59.3733 3.00888 59.2442 3.09654 59.1424 3.18597C59.0466 3.28001 59.0062 3.3829 59.0211 3.49465C59.0631 3.80861 59.3714 3.9272 59.9461 3.85042C60.0472 3.83691 60.1503 3.81773 60.2553 3.79287C60.3656 3.76729 60.4672 3.73747 60.5602 3.70338C60.6538 3.67462 60.7361 3.64196 60.8071 3.6054C60.8787 3.57416 60.9344 3.54506 60.9741 3.51809L61.1728 4.09276C61.0249 4.16127 60.8436 4.2234 60.629 4.27916C60.4204 4.33952 60.215 4.38321 60.0128 4.41023C59.4966 4.47919 59.1026 4.42892 58.8308 4.25941C58.565 4.09451 58.4122 3.86306 58.3724 3.56506C58.344 3.35221 58.3741 3.17215 58.4628 3.0249C58.5567 2.87694 58.6775 2.74706 58.8251 2.63527C58.9779 2.52277 59.1459 2.42179 59.3289 2.33234C59.5127 2.24821 59.6801 2.16356 59.8312 2.07837C59.9876 1.99248 60.1134 1.89985 60.2084 1.80049ZM54.3213 5.93737C54.1851 5.96802 54.0779 6.04168 53.9996 6.15835C53.9213 6.27503 53.9004 6.41455 53.937 6.57691C53.9735 6.73928 54.0521 6.85641 54.1729 6.92829C54.2936 7.00017 54.422 7.02079 54.5582 6.99014C54.6996 6.95832 54.8069 6.88466 54.8799 6.76916C54.9582 6.65249 54.9791 6.51297 54.9426 6.3506C54.906 6.18824 54.8274 6.07111 54.7067 5.99923C54.5912 5.92617 54.4627 5.90555 54.3213 5.93737ZM53.907 4.86674L52.8543 5.10365L52.9763 5.64575L54.6733 5.26386L54.1694 3.02476C54.088 2.66336 54.083 2.40861 54.1542 2.26051C54.2266 2.11765 54.3623 2.02382 54.5614 1.97903C54.7133 1.94485 54.8562 1.93195 54.9901 1.94032C55.1293 1.94752 55.2403 1.96382 55.3231 1.98921L55.2936 1.41804C55.2586 1.4094 55.2094 1.39847 55.1459 1.38525C55.0835 1.37726 55.0107 1.37164 54.9275 1.36837C54.8494 1.36392 54.7615 1.36444 54.6637 1.36995C54.5711 1.37427 54.475 1.38763 54.3755 1.41003C54.1451 1.46189 53.961 1.53634 53.8232 1.63337C53.6855 1.73041 53.5836 1.85238 53.5176 1.9993C53.4569 2.14505 53.4288 2.3137 53.4334 2.50527C53.4391 2.70208 53.4697 2.92356 53.5251 3.16973L53.907 4.86674ZM48.572 3.24485C48.735 3.24338 48.8588 3.25164 48.9435 3.26962L48.9042 3.14691C48.7978 2.81457 48.6416 2.59964 48.4356 2.50212C48.2296 2.4046 47.9426 2.41478 47.5745 2.53266C47.3699 2.59815 47.1865 2.67662 47.0241 2.76808C46.8668 2.8579 46.7307 2.95221 46.6158 3.05102L46.3215 2.528C46.4483 2.43102 46.598 2.33517 46.7706 2.24044C46.9483 2.14407 47.1522 2.05905 47.3823 1.98538C47.9447 1.80528 48.4033 1.79374 48.758 1.95075C49.1177 2.10613 49.3861 2.45991 49.5629 3.0121L50.5796 6.18723C50.4444 6.27561 50.2734 6.37545 50.0667 6.48676C49.8667 6.60154 49.6133 6.70804 49.3065 6.80628C49.0458 6.88977 48.7984 6.91825 48.5644 6.89171C48.332 6.87028 48.1189 6.80323 47.925 6.69057C47.7362 6.57628 47.5682 6.42148 47.4212 6.22619C47.2808 6.03436 47.1689 5.80807 47.0854 5.54731C46.9904 5.25077 46.9461 4.98028 46.9524 4.73587C46.9654 4.49493 47.0155 4.2816 47.1026 4.09587C47.1964 3.91362 47.3214 3.75805 47.4774 3.62916C47.6402 3.50375 47.8264 3.40749 48.036 3.34036C48.2303 3.27815 48.409 3.24631 48.572 3.24485ZM49.5622 6.0733C49.6647 6.02358 49.7433 5.97867 49.7981 5.93857L49.1326 3.86017C49.026 3.82664 48.8938 3.8098 48.7359 3.80962C48.5831 3.80781 48.4275 3.83228 48.269 3.88304C48.1463 3.92233 48.0378 3.97962 47.9435 4.0549C47.8509 4.1353 47.7758 4.23543 47.7184 4.3553C47.6677 4.47864 47.6397 4.62008 47.6344 4.77961C47.6359 4.94262 47.6693 5.12638 47.7348 5.3309C47.8543 5.70414 48.0345 5.97623 48.2753 6.14717C48.5211 6.31648 48.8077 6.34874 49.1349 6.24396C49.319 6.18502 49.4614 6.12813 49.5622 6.0733ZM44.2149 8.68358C44.68 8.48778 44.9773 8.1908 45.1067 7.79263C45.2383 7.39942 45.1801 6.90839 44.9323 6.31957L44.8417 6.10432L42.3775 7.14162C42.2523 6.77494 42.254 6.45384 42.3827 6.17833C42.5184 5.90569 42.7767 5.68917 43.1577 5.52879C43.3754 5.43714 43.5683 5.37635 43.7362 5.34641C43.9042 5.31648 44.0361 5.30464 44.132 5.3109L43.9949 4.75698C43.904 4.74864 43.7527 4.76282 43.541 4.79952C43.3293 4.83622 43.1022 4.9056 42.8597 5.00767C42.5628 5.13264 42.3193 5.28757 42.1292 5.47245C41.9461 5.6602 41.8137 5.86448 41.7319 6.08531C41.6501 6.30614 41.6179 6.54103 41.6353 6.78999C41.6548 7.0439 41.7188 7.29951 41.8271 7.55681C41.9562 7.86359 42.1157 8.111 42.3055 8.29904C42.4953 8.48708 42.6982 8.62303 42.9141 8.70691C43.13 8.79078 43.35 8.82921 43.5742 8.8222C43.7984 8.81518 44.012 8.76898 44.2149 8.68358ZM44.4275 6.86406C44.5504 7.156 44.5706 7.41837 44.488 7.65118C44.4075 7.88893 44.2411 8.06092 43.9887 8.16715C43.8452 8.22756 43.7027 8.25554 43.561 8.2511C43.4243 8.24458 43.2951 8.21449 43.1735 8.16083C43.0519 8.10718 42.9424 8.03386 42.845 7.94088C42.7476 7.8479 42.6665 7.74516 42.6017 7.63266L44.4275 6.86406ZM38.0623 11.3328L36.408 8.20848L36.9915 7.89947L38.4424 10.6394C38.784 10.5618 39.0995 10.4464 39.389 10.2931C39.5265 10.2203 39.6485 10.1466 39.7548 10.0721C39.8684 9.99977 39.9898 9.90207 40.119 9.77898L40.5009 10.242C40.3549 10.3679 40.2157 10.472 40.0831 10.5543C39.953 10.6414 39.8121 10.7252 39.6603 10.8056C39.1668 11.0668 38.6342 11.2426 38.0623 11.3328ZM99.7224 130.369C99.5658 130.245 99.4262 130.131 99.3037 130.026L98.9361 129.71C98.8183 129.602 98.6956 129.491 98.5681 129.377C98.4427 129.255 98.2979 129.119 98.1335 128.969C98.165 129.189 98.1937 129.387 98.2193 129.561C98.2425 129.731 98.2632 129.896 98.2813 130.057C98.3042 130.215 98.3224 130.375 98.3358 130.538C98.354 130.699 98.3702 130.879 98.3844 131.078L97.9432 131.311C97.5013 130.798 97.0846 130.281 96.6929 129.759C96.3036 129.23 95.9619 128.74 95.668 128.288L96.2231 127.994L96.3758 128.235L96.5559 128.519C96.6679 128.685 96.7872 128.859 96.9139 129.041C97.0407 129.222 97.1786 129.42 97.3276 129.632C97.4814 129.843 97.6527 130.08 97.8414 130.345C97.8168 130.115 97.7929 129.915 97.7697 129.745C97.7465 129.575 97.7224 129.414 97.6973 129.264C97.6721 129.113 97.6434 128.961 97.611 128.808C97.5833 128.653 97.5493 128.479 97.5088 128.288L97.95 128.055L98.3155 128.435C98.4238 128.548 98.5333 128.657 98.6438 128.762L98.9938 129.096C99.1166 129.214 99.2626 129.346 99.4318 129.493C99.3363 129.21 99.2461 128.948 99.1612 128.707C99.0764 128.467 98.9943 128.243 98.915 128.036C98.8332 127.824 98.7528 127.62 98.6738 127.425C98.5948 127.23 98.5109 127.032 98.4222 126.829L98.9559 126.547C99.0578 126.797 99.1638 127.066 99.2738 127.354C99.3837 127.642 99.4904 127.941 99.5937 128.25C99.697 128.56 99.798 128.877 99.8969 129.201C99.9932 129.521 100.082 129.832 100.164 130.135L99.7224 130.369ZM38.3972 127.056L36.7429 130.181L37.3265 130.49L38.7773 127.75C39.1189 127.827 39.4345 127.943 39.7239 128.096C39.8615 128.169 39.9834 128.243 40.0898 128.317C40.2033 128.389 40.3248 128.487 40.454 128.61L40.8358 128.147C40.6899 128.021 40.5506 127.917 40.418 127.835C40.288 127.748 40.147 127.664 39.9952 127.584C39.5018 127.322 38.9691 127.147 38.3972 127.056ZM45.4417 130.597C45.3122 130.199 45.0149 129.902 44.5498 129.706C44.3469 129.621 44.1334 129.574 43.9092 129.567C43.6849 129.56 43.4649 129.599 43.249 129.683C43.0331 129.766 42.8303 129.902 42.6404 130.09C42.4506 130.278 42.2911 130.526 42.162 130.833C42.0537 131.09 41.9898 131.346 41.9703 131.599C41.9528 131.848 41.985 132.083 42.0668 132.304C42.1486 132.525 42.281 132.729 42.4641 132.917C42.6542 133.102 42.8977 133.257 43.1946 133.382C43.4371 133.484 43.6642 133.553 43.8759 133.59C44.0876 133.627 44.2389 133.641 44.3298 133.632L44.4669 133.079C44.371 133.085 44.2391 133.073 44.0712 133.043C43.9032 133.013 43.7104 132.952 43.4926 132.861C43.1116 132.7 42.8533 132.484 42.7176 132.211C42.5889 131.936 42.5872 131.615 42.7124 131.248L45.1766 132.285L45.2672 132.07C45.5151 131.481 45.5732 130.99 45.4417 130.597ZM44.8229 130.738C44.9055 130.971 44.8853 131.233 44.7624 131.525L42.9366 130.757C43.0014 130.644 43.0825 130.542 43.1799 130.449C43.2773 130.356 43.3868 130.282 43.5084 130.229C43.63 130.175 43.7592 130.145 43.8959 130.138C44.0376 130.134 44.1802 130.162 44.3237 130.222C44.576 130.329 44.7424 130.501 44.8229 130.738ZM49.2784 135.12C49.1938 135.138 49.0699 135.146 48.9069 135.145C48.7439 135.143 48.5652 135.111 48.371 135.049C48.1613 134.982 47.9751 134.886 47.8123 134.76C47.6563 134.631 47.5314 134.476 47.4375 134.294C47.3504 134.108 47.3004 133.895 47.2873 133.654C47.281 133.409 47.3254 133.139 47.4203 132.842C47.5038 132.581 47.6157 132.355 47.7561 132.163C47.9032 131.968 48.0711 131.813 48.2599 131.699C48.4538 131.586 48.667 131.519 48.8993 131.498C49.1333 131.471 49.3807 131.5 49.6414 131.583C49.9482 131.681 50.2016 131.788 50.4016 131.903C50.6084 132.014 50.7793 132.114 50.9145 132.202L49.8978 135.377C49.721 135.93 49.4527 136.283 49.0929 136.439C48.7382 136.596 48.2796 136.584 47.7172 136.404C47.4871 136.33 47.2832 136.245 47.1055 136.149C46.9329 136.054 46.7832 135.958 46.6564 135.861L46.9507 135.338C47.0657 135.437 47.2018 135.532 47.359 135.621C47.5214 135.713 47.7049 135.791 47.9094 135.857C48.2775 135.975 48.5646 135.985 48.7705 135.887C48.9765 135.79 49.1327 135.575 49.2391 135.243L49.2784 135.12ZM50.1331 132.451C50.0783 132.411 49.9996 132.366 49.8972 132.316C49.7963 132.261 49.6539 132.204 49.4698 132.146C49.1426 132.041 48.8561 132.073 48.6102 132.242C48.3694 132.413 48.1893 132.685 48.0698 133.059C48.0043 133.263 47.9708 133.447 47.9693 133.61C47.9746 133.769 48.0026 133.911 48.0533 134.034C48.1108 134.154 48.1858 134.254 48.2784 134.335C48.3727 134.41 48.4812 134.467 48.6039 134.506C48.7624 134.557 48.9181 134.582 49.0708 134.58C49.2287 134.58 49.361 134.563 49.4675 134.529L50.1331 132.451ZM54.3345 132.231C54.4128 132.347 54.5201 132.421 54.6562 132.452C54.7976 132.484 54.9261 132.463 55.0416 132.39C55.1623 132.318 55.241 132.201 55.2775 132.039C55.314 131.876 55.2932 131.737 55.2149 131.62C55.1418 131.505 55.0346 131.431 54.8931 131.399C54.757 131.368 54.6285 131.389 54.5078 131.461C54.387 131.533 54.3084 131.65 54.2719 131.812C54.2353 131.975 54.2562 132.114 54.3345 132.231ZM53.1892 133.286L54.242 133.522L53.8601 135.219C53.8047 135.466 53.7741 135.687 53.7683 135.884C53.7637 136.075 53.7918 136.244 53.8525 136.39C53.9185 136.537 54.0204 136.659 54.1582 136.756C54.2959 136.853 54.48 136.927 54.7105 136.979C54.81 137.002 54.906 137.015 54.9986 137.019C55.0964 137.025 55.1843 137.025 55.2624 137.021C55.3457 137.018 55.4185 137.012 55.4808 137.004C55.5443 136.991 55.5935 136.98 55.6285 136.971L55.658 136.4C55.5752 136.425 55.4643 136.442 55.3251 136.449C55.1911 136.457 55.0482 136.444 54.8963 136.41C54.6973 136.365 54.5615 136.272 54.4891 136.129C54.4179 135.981 54.423 135.726 54.5043 135.364L55.0082 133.125L53.3112 132.743L53.1892 133.286ZM60.6673 136.939C60.685 136.806 60.6437 136.689 60.5434 136.589C60.4483 136.49 60.3226 136.397 60.1661 136.311C60.015 136.226 59.8476 136.141 59.6638 136.057C59.4808 135.968 59.3128 135.867 59.16 135.754C59.0124 135.642 58.8917 135.513 58.7977 135.365C58.709 135.217 58.6789 135.037 58.7074 134.824C58.7472 134.526 58.9 134.295 59.1657 134.13C59.4375 133.961 59.8315 133.91 60.3477 133.979C60.5499 134.006 60.7553 134.05 60.9639 134.11C61.1785 134.166 61.3598 134.228 61.5077 134.297L61.309 134.871C61.2693 134.844 61.2136 134.815 61.142 134.784C61.071 134.748 60.9887 134.715 60.8951 134.686C60.8021 134.652 60.7005 134.622 60.5902 134.597C60.4852 134.572 60.3821 134.553 60.281 134.539C59.7063 134.462 59.398 134.581 59.356 134.895C59.3411 135.007 59.3815 135.109 59.4773 135.204C59.5791 135.293 59.7082 135.381 59.8646 135.466C60.0211 135.552 60.1904 135.643 60.3728 135.738C60.5558 135.827 60.7234 135.931 60.8756 136.048C61.0277 136.166 61.1478 136.301 61.2357 136.454C61.3297 136.602 61.3628 136.78 61.3351 136.987C61.2903 137.322 61.1251 137.566 60.8395 137.717C60.5546 137.863 60.1301 137.899 59.566 137.823C59.3106 137.789 59.0793 137.737 58.8721 137.666C58.6649 137.595 58.4713 137.504 58.2911 137.393L58.4988 136.811C58.6736 136.921 58.8583 137.019 59.0527 137.105C59.2531 137.186 59.4704 137.242 59.7045 137.273C60.3058 137.353 60.6267 137.242 60.6673 136.939ZM67.1979 134.604L65.621 134.534L65.6724 133.376L65.0077 133.459L64.9613 134.505L64.1729 134.47L64.1483 135.025L64.9368 135.06L64.8598 136.798C64.8486 137.05 64.8575 137.273 64.8865 137.468C64.9157 137.657 64.9758 137.818 65.0666 137.951C65.1628 138.085 65.298 138.187 65.4721 138.26C65.6463 138.332 65.8728 138.374 66.1517 138.386C66.393 138.397 66.5953 138.379 66.7586 138.333C66.9273 138.286 67.0498 138.249 67.1263 138.22L67.0548 137.653C66.9451 137.702 66.8306 137.739 66.7112 137.766C66.5917 137.793 66.4355 137.803 66.2424 137.794C66.103 137.788 65.9856 137.769 65.8902 137.738C65.7949 137.707 65.7165 137.655 65.6553 137.583C65.5996 137.505 65.561 137.406 65.5394 137.287C65.5178 137.168 65.5111 137.015 65.5195 136.827L65.5964 135.089L67.1733 135.159L67.1979 134.604ZM71.2125 134.445C71.7166 134.422 72.1125 134.563 72.4 134.868C72.6873 135.167 72.8451 135.635 72.8734 136.274L72.8837 136.507L70.2128 136.625C70.2567 137.01 70.3958 137.3 70.6301 137.493C70.8695 137.682 71.1957 137.767 71.6087 137.748C71.8447 137.738 72.045 137.71 72.2096 137.665C72.3742 137.62 72.4984 137.575 72.5824 137.528L72.6958 138.087C72.6173 138.134 72.4745 138.186 72.2674 138.243C72.0604 138.301 71.8255 138.335 71.5627 138.347C71.2409 138.361 70.9545 138.325 70.7035 138.24C70.4576 138.149 70.2504 138.021 70.0819 137.856C69.9134 137.692 69.7837 137.493 69.6928 137.261C69.6017 137.023 69.5499 136.765 69.5376 136.486C69.5228 136.153 69.5609 135.861 69.6519 135.61C69.7429 135.359 69.8679 135.149 70.0271 134.981C70.1862 134.813 70.3686 134.684 70.5742 134.594C70.7798 134.504 70.9926 134.454 71.2125 134.445ZM72.1841 135.998C72.1701 135.681 72.0759 135.436 71.9015 135.261C71.727 135.08 71.5029 134.996 71.2294 135.008C71.0738 135.015 70.933 135.051 70.8069 135.116C70.6862 135.18 70.5823 135.263 70.4954 135.363C70.4085 135.464 70.341 135.577 70.2928 135.703C70.2447 135.828 70.2154 135.956 70.205 136.085L72.1841 135.998ZM75.4747 134.405L75.9429 137.909L76.5974 137.822L76.1868 134.749C76.51 134.614 76.8339 134.524 77.1585 134.481C77.3128 134.46 77.4549 134.449 77.5847 134.448C77.7192 134.441 77.8748 134.45 78.0514 134.475L78.0933 133.877C77.9014 133.859 77.7275 133.855 77.5718 133.865C77.4153 133.87 77.252 133.883 77.0817 133.906C76.5283 133.98 75.9926 134.146 75.4747 134.405ZM85.9044 132.194C86.1165 132.064 86.3301 131.948 86.5452 131.845C86.7655 131.741 86.9753 131.657 87.1747 131.593C87.6502 131.441 88.0474 131.449 88.3663 131.617C88.6903 131.784 88.9391 132.139 89.1126 132.681L89.7806 134.767L89.1517 134.968L88.5206 132.997C88.4469 132.767 88.3667 132.587 88.28 132.457C88.1932 132.327 88.0992 132.236 87.998 132.183C87.9002 132.125 87.7927 132.097 87.6755 132.101C87.5634 132.103 87.446 132.123 87.3233 132.163C87.2211 132.195 87.1136 132.238 87.0009 132.291C86.8917 132.338 86.7867 132.388 86.6859 132.443L87.6485 135.449L87.012 135.653L85.9044 132.194ZM94.8499 131.617C94.8353 131.361 94.7707 131.097 94.6562 130.825C94.5416 130.553 94.3979 130.322 94.225 130.133C94.057 129.942 93.8715 129.798 93.6684 129.703C93.4632 129.603 93.2464 129.552 93.018 129.549C92.7875 129.541 92.5585 129.585 92.3309 129.681C92.1082 129.775 91.9191 129.907 91.7637 130.077C91.611 130.24 91.4988 130.43 91.4269 130.647C91.3529 130.858 91.3232 131.092 91.3378 131.348C91.3573 131.602 91.4243 131.865 91.5389 132.137C91.6534 132.41 91.7947 132.641 91.9627 132.833C92.1335 133.017 92.3215 133.159 92.5267 133.259C92.7319 133.359 92.9472 133.414 93.1728 133.424C93.4011 133.427 93.6267 133.382 93.8493 133.288C94.077 133.192 94.2695 133.062 94.4271 132.896C94.5826 132.726 94.6963 132.532 94.7682 132.316C94.8401 132.099 94.8673 131.866 94.8499 131.617ZM93.3855 130.277C93.6475 130.428 93.8608 130.7 94.0253 131.091C94.1878 131.477 94.2328 131.819 94.1604 132.117C94.0859 132.411 93.9051 132.618 93.6181 132.739C93.3361 132.858 93.0641 132.841 92.8021 132.689C92.543 132.53 92.3322 132.258 92.1698 131.872C92.0052 131.481 91.9577 131.14 92.0273 130.848C92.0997 130.55 92.2769 130.341 92.559 130.223C92.846 130.102 93.1215 130.12 93.3855 130.277ZM72.0651 3.52144C71.7776 3.82577 71.3817 3.96676 70.8775 3.94443C70.6576 3.93469 70.4449 3.88496 70.2393 3.79524C70.0337 3.70552 69.8513 3.57653 69.6922 3.40826C69.533 3.24 69.408 3.03025 69.317 2.77902C69.226 2.52779 69.1879 2.23591 69.2026 1.90338C69.215 1.62448 69.2667 1.36614 69.3579 1.12835C69.4488 0.895923 69.5785 0.69746 69.747 0.532959C69.9155 0.368459 70.1227 0.240602 70.3686 0.149389C70.6195 0.0637778 70.9059 0.0281001 71.2277 0.042356C71.4906 0.0539982 71.7255 0.0885876 71.9325 0.146124C72.1395 0.203661 72.2823 0.255666 72.3609 0.302137L72.2474 0.861372C72.1635 0.814664 72.0393 0.768855 71.8747 0.723945C71.7101 0.679036 71.5098 0.651354 71.2738 0.6409C70.8608 0.622605 70.5346 0.707572 70.2952 0.895801C70.0609 1.08963 69.9218 1.37903 69.8779 1.76401L72.5488 1.88233L72.5385 2.11564C72.5102 2.75388 72.3524 3.22249 72.0651 3.52144ZM71.5666 3.12856C71.741 2.95357 71.8351 2.70786 71.8492 2.39142L69.8701 2.30374C69.8805 2.43318 69.9097 2.56076 69.9579 2.6865C70.0061 2.81223 70.0736 2.92539 70.1605 3.02597C70.2474 3.12655 70.3512 3.20907 70.472 3.27353C70.5981 3.33823 70.7389 3.37403 70.8944 3.38092C71.168 3.39303 71.392 3.30891 71.5666 3.12856ZM75.6073 0.479851L75.1392 3.98397C75.6571 4.24274 76.1927 4.40909 76.7462 4.48302C76.9164 4.50577 77.0798 4.51948 77.2363 4.52413C77.392 4.5341 77.5658 4.53024 77.7578 4.51256L77.7159 3.91387C77.5392 3.93901 77.3836 3.94802 77.2492 3.94089C77.1193 3.93979 76.9773 3.92893 76.8229 3.90832C76.4983 3.86495 76.1745 3.77564 75.8513 3.64039L76.2619 0.567295L75.6073 0.479851ZM86.2103 6.54387C85.9952 6.44116 85.7816 6.32484 85.5695 6.19492L86.6771 2.73603L87.3136 2.93987L86.3509 5.94626C86.4518 6.0011 86.5568 6.05164 86.666 6.09788C86.7787 6.15087 86.8861 6.19374 86.9884 6.22649C87.1111 6.26578 87.2285 6.28646 87.3406 6.28853C87.4578 6.29223 87.5653 6.26464 87.663 6.20576C87.7643 6.15362 87.8583 6.06252 87.945 5.93246C88.0318 5.80239 88.112 5.62232 88.1857 5.39224L88.8168 3.42121L89.4457 3.62259L88.7777 5.70866C88.6042 6.25063 88.3554 6.60503 88.0314 6.77186C87.7125 6.94033 87.3153 6.94844 86.8398 6.79618C86.6404 6.73233 86.4306 6.64822 86.2103 6.54387ZM94.3213 7.5643C94.4358 7.29215 94.5004 7.02809 94.515 6.77209C94.5324 6.52313 94.5051 6.29032 94.4332 6.07366C94.3614 5.857 94.2477 5.66352 94.0922 5.49322C93.9346 5.32787 93.742 5.19728 93.5144 5.10147C93.2917 5.00774 93.0662 4.96231 92.8378 4.9652C92.6123 4.97511 92.397 5.03008 92.1918 5.1301C91.9866 5.23011 91.7985 5.37232 91.6277 5.55671C91.4598 5.74813 91.3185 5.97991 91.204 6.25206C91.0894 6.52421 91.0224 6.78723 91.0028 7.04114C90.9883 7.29714 91.018 7.53099 91.092 7.7427C91.1639 7.95936 91.2761 8.14933 91.4287 8.3126C91.5842 8.4829 91.7733 8.61491 91.996 8.70864C92.2236 8.80446 92.4526 8.84845 92.6831 8.84062C92.9115 8.83773 93.1283 8.78628 93.3335 8.68627C93.5366 8.5912 93.7221 8.44795 93.8901 8.25653C94.063 8.06719 94.2067 7.83645 94.3213 7.5643ZM93.6904 7.29873C93.5258 7.68963 93.3126 7.961 93.0506 8.11285C92.7866 8.26964 92.511 8.28764 92.224 8.16683C91.942 8.0481 91.7648 7.83952 91.6923 7.54109C91.6228 7.24969 91.6703 6.90853 91.8348 6.51763C91.9973 6.13168 92.2081 5.85926 92.4672 5.70039C92.7292 5.54854 93.0012 5.53198 93.2832 5.65071C93.5702 5.77152 93.7509 5.97867 93.8255 6.27215C93.8979 6.57058 93.8528 6.91278 93.6904 7.29873ZM98.9688 8.36332C99.0913 8.25811 99.2309 8.14369 99.3874 8.02006L99.8287 8.2537C99.7472 8.5568 99.6583 8.86813 99.5619 9.1877C99.4631 9.51201 99.3621 9.82906 99.2588 10.1389C99.1555 10.4487 99.0488 10.7476 98.9388 11.0356C98.8288 11.3236 98.7229 11.5925 98.621 11.8423L98.0872 11.5597C98.176 11.3576 98.2599 11.159 98.3389 10.964C98.4179 10.7689 98.4983 10.5654 98.5801 10.3536C98.6594 10.1465 98.7415 9.92265 98.8263 9.68207C98.9112 9.44149 99.0014 9.17942 99.0968 8.89586C98.9277 9.04321 98.7817 9.17549 98.6589 9.29271L98.3089 9.62677C98.1983 9.73226 98.0889 9.84138 97.9806 9.95413L97.6151 10.3347L97.1739 10.101C97.2143 9.90983 97.2484 9.73651 97.2761 9.58105C97.3084 9.4281 97.3372 9.27627 97.3623 9.12556C97.3875 8.97485 97.4116 8.8145 97.4348 8.64453C97.458 8.47456 97.4819 8.27459 97.5064 8.04461C97.3177 8.30918 97.1465 8.54655 96.9927 8.7567C96.8436 8.96936 96.7057 9.16668 96.579 9.34864C96.4523 9.53061 96.333 9.70434 96.221 9.86984C96.1113 10.0426 96.0004 10.2177 95.8882 10.3952L95.333 10.1013C95.627 9.64944 95.9686 9.15908 96.358 8.63021C96.7496 8.1086 97.1664 7.59118 97.6082 7.07794L98.0495 7.31159C98.0352 7.51059 98.019 7.69033 98.0009 7.85081C97.9875 8.0138 97.9693 8.17429 97.9464 8.33226C97.9283 8.49274 97.9076 8.65797 97.8844 8.82794C97.8587 9.00266 97.8301 9.20012 97.7985 9.42033C97.9629 9.27046 98.1078 9.13455 98.2331 9.01259C98.3607 8.89789 98.4834 8.78668 98.6012 8.67896L98.9688 8.36332ZM0.335678 72.1819L3.86857 72.0524C4.07639 72.5928 4.19052 73.142 4.21097 73.6999C4.21726 73.8716 4.2152 74.0355 4.20481 74.1917C4.19978 74.3477 4.17924 74.5204 4.1432 74.7097L3.55131 74.6105C3.5933 74.4371 3.61721 74.2831 3.62302 74.1486C3.6344 74.0192 3.63724 73.8767 3.63154 73.7212C3.61955 73.3939 3.56176 73.0629 3.45817 72.7283L0.359854 72.8418L0.335678 72.1819ZM4.32573 79.9232C4.60582 79.612 4.71437 79.2061 4.65137 78.7054C4.62389 78.487 4.55713 78.2789 4.4511 78.0812C4.34506 77.8836 4.20175 77.7122 4.02118 77.5672C3.8406 77.4222 3.62143 77.3145 3.36367 77.2441C3.10591 77.1737 2.81191 77.1593 2.48165 77.2009C2.20467 77.2357 1.95135 77.3082 1.72171 77.4182C1.49739 77.5276 1.31005 77.6729 1.15971 77.8542C1.00936 78.0354 0.89866 78.2523 0.827613 78.5047C0.762562 78.7618 0.750143 79.0501 0.790354 79.3697C0.823194 79.6307 0.876652 79.8621 0.95073 80.0638C1.02481 80.2655 1.08818 80.4036 1.14085 80.4782L1.68909 80.3199C1.63575 80.24 1.58005 80.1199 1.52199 79.9594C1.46392 79.799 1.42015 79.6016 1.39066 79.3672C1.33906 78.9571 1.39739 78.6251 1.56565 78.3712C1.73992 78.1221 2.01714 77.96 2.3973 77.8851L2.73106 80.5378L2.96277 80.5087C3.59664 80.4289 4.05096 80.2338 4.32573 79.9232ZM3.89385 79.4581C3.73352 79.646 3.49622 79.7598 3.18195 79.7993L2.93464 77.8338C3.06449 77.8337 3.19403 77.8525 3.32324 77.8904C3.45246 77.9282 3.5707 77.9864 3.67797 78.0649C3.78525 78.1434 3.87589 78.2402 3.9499 78.3553C4.02457 78.4758 4.07163 78.6133 4.09107 78.7677C4.12525 79.0394 4.05951 79.2695 3.89385 79.4581ZM2.32692 85.5074C2.26901 85.4431 2.19993 85.34 2.1197 85.1981C2.03946 85.0562 1.97771 84.8855 1.93444 84.6862C1.88776 84.4711 1.87803 84.2617 1.90524 84.058C1.93884 83.8584 2.0111 83.6724 2.12201 83.5C2.23931 83.3318 2.39903 83.1817 2.60117 83.05C2.80969 82.9223 3.0661 82.8254 3.3704 82.7594C3.63797 82.7013 3.88991 82.6851 4.1262 82.7108C4.36888 82.7405 4.58691 82.8086 4.7803 82.9149C4.97482 83.0265 5.13945 83.1776 5.27418 83.3681C5.41416 83.5574 5.51319 83.7859 5.57125 84.0535C5.63957 84.3683 5.67403 84.641 5.67463 84.8716C5.68162 85.1063 5.68063 85.3043 5.67168 85.4655L2.41359 86.1726C1.84696 86.2955 1.40642 86.2401 1.09197 86.0062C0.778649 85.7775 0.559369 85.3746 0.434125 84.7975C0.382889 84.5614 0.354569 84.3423 0.349167 84.1402C0.344904 83.9434 0.353065 83.7658 0.37365 83.6075L0.973763 83.6009C0.945654 83.7498 0.932024 83.9149 0.932871 84.096C0.934858 84.2823 0.958622 84.4804 1.00417 84.6903C1.08614 85.068 1.22086 85.3217 1.4083 85.4513C1.59575 85.581 1.85998 85.6088 2.20101 85.5348L2.32692 85.5074ZM5.06561 84.9131C5.07293 84.8456 5.07251 84.755 5.06434 84.6414C5.06141 84.5267 5.03946 84.3749 4.99847 84.186C4.9256 83.8503 4.75438 83.6182 4.48483 83.4899C4.2164 83.3669 3.8907 83.3469 3.5077 83.4301C3.29784 83.4756 3.12196 83.5385 2.98006 83.6187C2.84454 83.7031 2.73605 83.798 2.65458 83.9036C2.5795 84.0133 2.5303 84.1284 2.50699 84.2488C2.48893 84.3681 2.49356 84.4907 2.52089 84.6166C2.55619 84.7792 2.61282 84.9262 2.69078 85.0577C2.76987 85.1943 2.85058 85.3004 2.9329 85.3759L5.06561 84.9131ZM7.35659 88.4418C7.29469 88.5679 7.28452 88.6976 7.32607 88.8309C7.36922 88.9692 7.4513 89.0702 7.57232 89.1337C7.69494 89.2023 7.83569 89.2118 7.99458 89.1623C8.15346 89.1127 8.26385 89.0249 8.32574 88.8988C8.38923 88.7777 8.3994 88.648 8.35626 88.5096C8.31471 88.3764 8.23262 88.2755 8.11001 88.2068C7.98739 88.1382 7.84664 88.1287 7.68775 88.1782C7.52887 88.2278 7.41848 88.3156 7.35659 88.4418ZM5.87053 87.9772L6.19173 89.0074L4.53114 89.5252C4.29025 89.6003 4.08314 89.6845 3.90982 89.7779C3.74162 89.8697 3.6096 89.9784 3.51376 90.1039C3.41952 90.2345 3.36482 90.3837 3.34966 90.5515C3.3345 90.7193 3.36208 90.916 3.43239 91.1415C3.46275 91.2389 3.49921 91.3287 3.54175 91.4111C3.58589 91.4985 3.6294 91.5749 3.67227 91.6403C3.71674 91.7108 3.75802 91.771 3.7961 91.821C3.8393 91.8694 3.87339 91.9066 3.89835 91.9325L4.40774 91.6725C4.34437 91.6135 4.27477 91.5256 4.19894 91.4086C4.12471 91.2968 4.06442 91.1666 4.01808 91.0179C3.95735 90.8232 3.97075 90.6587 4.05827 90.5246C4.15091 90.3888 4.37405 90.2658 4.7277 90.1556L6.91876 89.4724L6.40099 87.8118L5.87053 87.9772ZM6.44578 96.28C6.56987 96.2289 6.65016 96.1348 6.68664 95.9979C6.72516 95.8659 6.74251 95.7107 6.73868 95.5323C6.7369 95.3588 6.7265 95.1715 6.70748 94.9703C6.69343 94.767 6.69689 94.5711 6.71789 94.3824C6.74092 94.1988 6.79302 94.0292 6.87417 93.8739C6.95737 93.7235 7.09824 93.6074 7.2968 93.5256C7.57478 93.411 7.85161 93.4276 8.1273 93.5753C8.41 93.726 8.65053 94.042 8.8489 94.5235C8.92661 94.7122 8.99147 94.9119 9.04349 95.1227C9.10251 95.3365 9.13934 95.5245 9.15397 95.6869L8.55697 95.8022C8.56046 95.7543 8.55782 95.6915 8.54905 95.6138C8.54524 95.5341 8.53237 95.4465 8.51045 95.351C8.4935 95.2535 8.46851 95.1506 8.4355 95.0422C8.40453 94.9389 8.36961 94.84 8.33076 94.7457C8.1099 94.2096 7.85303 94.0019 7.56016 94.1225C7.45592 94.1655 7.38702 94.2519 7.35346 94.3819C7.32691 94.5148 7.31555 94.6704 7.31938 94.8488C7.3232 95.0273 7.32966 95.2191 7.33875 95.4244C7.35281 95.6276 7.34686 95.8246 7.3209 96.0153C7.29494 96.206 7.23789 96.3776 7.14973 96.53C7.06857 96.6854 6.9312 96.8029 6.73761 96.8827C6.42488 97.0115 6.13155 96.9901 5.85761 96.8185C5.58863 96.6448 5.34575 96.2948 5.12898 95.7686C5.03082 95.5304 4.9607 95.3038 4.91861 95.0889C4.87652 94.8739 4.85838 94.6608 4.86418 94.4494L5.4717 94.3384C5.46385 94.5449 5.47148 94.7537 5.49459 94.9648C5.5247 95.1788 5.58475 95.3951 5.67473 95.6135C5.90582 96.1744 6.16283 96.3966 6.44578 96.28ZM11.7326 100.768L11.0047 99.3675L12.0337 98.8327L11.6291 98.2987L10.7002 98.7816L10.3362 98.0813L9.84317 98.3376L10.2071 99.0378L8.66372 99.84C8.43983 99.9564 8.2508 100.076 8.09665 100.198C7.94725 100.318 7.83767 100.451 7.76791 100.596C7.70063 100.746 7.67925 100.914 7.7038 101.101C7.72834 101.288 7.80498 101.506 7.93373 101.753C8.04515 101.968 8.16182 102.134 8.28373 102.252C8.40812 102.375 8.50194 102.462 8.56518 102.514L9.0208 102.168C8.92364 102.098 8.83354 102.018 8.75049 101.928C8.66743 101.838 8.58134 101.707 8.49221 101.536C8.42783 101.412 8.38527 101.301 8.36452 101.203C8.34377 101.104 8.34951 101.011 8.38172 100.921C8.42118 100.834 8.48712 100.752 8.57954 100.673C8.67196 100.595 8.80153 100.513 8.96826 100.426L10.5117 99.6237L11.2396 101.024L11.7326 100.768ZM13.878 104.166C14.1494 104.591 14.2252 105.004 14.1055 105.406C13.9902 105.804 13.6633 106.175 13.1247 106.519L12.9278 106.644L11.4899 104.39C11.1784 104.621 10.9973 104.886 10.9466 105.186C10.9033 105.487 10.9928 105.812 11.2152 106.161C11.3422 106.36 11.4663 106.519 11.5875 106.639C11.7087 106.76 11.8105 106.844 11.8929 106.894L11.4653 107.271C11.3858 107.227 11.2694 107.129 11.116 106.978C10.9627 106.828 10.8153 106.642 10.6738 106.42C10.5006 106.148 10.3883 105.883 10.3369 105.622C10.293 105.364 10.3001 105.121 10.3583 104.892C10.4165 104.664 10.5235 104.453 10.6794 104.258C10.8397 104.06 11.0376 103.886 11.2729 103.736C11.5535 103.557 11.8254 103.444 12.0884 103.397C12.3515 103.35 12.5957 103.354 12.821 103.407C13.0463 103.461 13.2492 103.554 13.4297 103.688C13.6102 103.821 13.7596 103.98 13.878 104.166ZM13.0189 105.784C13.2859 105.613 13.4516 105.409 13.516 105.17C13.5849 104.929 13.5457 104.693 13.3984 104.462C13.3147 104.331 13.2133 104.227 13.0942 104.15C12.978 104.078 12.8546 104.029 12.7241 104.004C12.5935 103.979 12.4617 103.977 12.3288 103.998C12.1958 104.019 12.0707 104.058 11.9534 104.114L13.0189 105.784ZM16.0432 107.837L13.2426 109.994L13.6456 110.517L16.1017 108.625C16.3804 108.837 16.6197 109.073 16.8196 109.333C16.9146 109.456 16.995 109.574 17.0609 109.685C17.1343 109.798 17.2043 109.938 17.2709 110.103L17.8103 109.84C17.7296 109.665 17.646 109.513 17.5595 109.383C17.4773 109.249 17.3837 109.115 17.2789 108.979C16.9381 108.536 16.5263 108.156 16.0432 107.837ZM23.1727 115.764C23.3912 115.882 23.5988 116.009 23.7953 116.144C23.9958 116.283 24.1735 116.422 24.3285 116.563C24.6981 116.899 24.8897 117.247 24.9033 117.607C24.9208 117.971 24.7383 118.364 24.3557 118.785L22.8831 120.407L22.3942 119.963L23.7856 118.431C23.948 118.252 24.0639 118.092 24.1332 117.952C24.2024 117.812 24.2343 117.685 24.2288 117.571C24.2309 117.457 24.2011 117.35 24.1393 117.251C24.0815 117.155 24.0049 117.063 23.9095 116.977C23.83 116.905 23.7391 116.833 23.6369 116.762C23.5422 116.69 23.446 116.625 23.3481 116.565L21.2258 118.902L20.731 118.452L23.1727 115.764ZM28.1451 123.222C28.3595 123.082 28.556 122.894 28.7344 122.658C28.9128 122.423 29.0407 122.183 29.1183 121.939C29.2001 121.698 29.2313 121.465 29.2121 121.242C29.1961 121.014 29.1323 120.801 29.0206 120.601C28.9121 120.398 28.7595 120.222 28.5627 120.072C28.3702 119.926 28.1614 119.829 27.9361 119.779C27.7184 119.729 27.4978 119.726 27.2742 119.772C27.0539 119.814 26.8365 119.905 26.6221 120.046C26.4119 120.19 26.2177 120.379 26.0393 120.615C25.8609 120.85 25.7308 121.088 25.649 121.329C25.5747 121.57 25.5455 121.803 25.5615 122.031C25.5775 122.259 25.6376 122.473 25.7418 122.673C25.8535 122.872 26.0056 123.045 26.1981 123.191C26.3948 123.34 26.6042 123.442 26.8262 123.495C27.0514 123.545 27.2758 123.547 27.4994 123.501C27.723 123.455 27.9382 123.362 28.1451 123.222ZM28.5741 121.284C28.5736 121.586 28.4452 121.907 28.1889 122.245C27.9359 122.578 27.6621 122.788 27.3674 122.875C27.076 122.957 26.8062 122.904 26.5581 122.716C26.3143 122.531 26.1926 122.287 26.1931 121.985C26.2012 121.681 26.3317 121.362 26.5847 121.028C26.841 120.69 27.1127 120.479 27.3998 120.393C27.6945 120.307 27.9637 120.356 28.2076 120.541C28.4557 120.729 28.5779 120.977 28.5741 121.284ZM31.6624 126.818C31.6911 126.621 31.7205 126.443 31.7503 126.284L31.8398 125.808C31.8742 125.652 31.9092 125.49 31.9448 125.322C31.9877 125.153 32.033 124.959 32.0806 124.742C31.9057 124.879 31.749 125.003 31.6105 125.112C31.4749 125.218 31.3421 125.318 31.2122 125.414C31.0869 125.513 30.957 125.609 30.8225 125.702C30.6926 125.798 30.545 125.902 30.3798 126.014L29.9569 125.748C30.1804 125.109 30.4201 124.489 30.6761 123.889C30.9394 123.288 31.1932 122.747 31.4376 122.266L31.9697 122.6C31.8721 122.786 31.7759 122.97 31.6811 123.151C31.5937 123.331 31.503 123.521 31.4087 123.722C31.3145 123.922 31.2126 124.14 31.1029 124.376C30.9978 124.614 30.8779 124.881 30.7431 125.177C30.93 125.041 31.0912 124.92 31.2269 124.815C31.3625 124.71 31.4892 124.609 31.6072 124.512C31.7252 124.414 31.8423 124.314 31.9585 124.209C32.0793 124.107 32.2124 123.991 32.3577 123.861L32.7807 124.126L32.6339 124.633C32.5904 124.783 32.5506 124.932 32.5145 125.081L32.4002 125.551C32.3601 125.716 32.3186 125.908 32.2755 126.128C32.4734 125.904 32.6552 125.695 32.8211 125.501C32.9871 125.307 33.1399 125.124 33.2796 124.952C33.4221 124.775 33.5581 124.604 33.6876 124.438C33.817 124.272 33.9471 124.1 34.0777 123.922L34.5893 124.243C34.4239 124.456 34.244 124.683 34.0496 124.922C33.8551 125.161 33.6496 125.403 33.433 125.647C33.2163 125.892 32.9923 126.138 32.7608 126.385C32.5322 126.629 32.3071 126.861 32.0853 127.083L31.6624 126.818ZM3.53289 66.3369L0 66.2074L0.0241761 65.5475L3.12249 65.661C3.22608 65.3264 3.28387 64.9954 3.29586 64.6681C3.30156 64.5126 3.29872 64.3701 3.28735 64.2407C3.28153 64.1062 3.25762 63.9522 3.21563 63.7788L3.80752 63.6796C3.84356 63.8689 3.8641 64.0416 3.86913 64.1976C3.87953 64.3538 3.88158 64.5177 3.87529 64.6894C3.85485 65.2473 3.74071 65.7965 3.53289 66.3369ZM4.31569 59.6839C4.37869 59.1832 4.27014 58.7773 3.99005 58.4661C3.71528 58.1555 3.26097 57.9604 2.62709 57.8807L2.39538 57.8515L2.06163 60.5042C1.68146 60.4293 1.40424 60.2672 1.22998 60.0181C1.06171 59.7642 1.00338 59.4322 1.05498 59.0221C1.08447 58.7877 1.12825 58.5903 1.18631 58.4299C1.24437 58.2694 1.30007 58.1493 1.35341 58.0694L0.805168 57.9111C0.752502 57.9857 0.68913 58.1238 0.615052 58.3255C0.540975 58.5272 0.487516 58.7586 0.454677 59.0196C0.414465 59.3392 0.426884 59.6275 0.491935 59.8846C0.562983 60.1371 0.673681 60.3539 0.824028 60.5351C0.974375 60.7164 1.16171 60.8617 1.38603 60.9711C1.61567 61.0811 1.86899 61.1536 2.14598 61.1885C2.47623 61.23 2.77024 61.2156 3.028 61.1452C3.28576 61.0748 3.50492 60.9671 3.6855 60.8221C3.86608 60.6771 4.00938 60.5057 4.11542 60.3081C4.22146 60.1104 4.28821 59.9023 4.31569 59.6839ZM2.84627 58.59C3.16054 58.6296 3.39784 58.7433 3.55817 58.9312C3.72383 59.1198 3.78957 59.3499 3.75539 59.6216C3.73595 59.776 3.6889 59.9135 3.61422 60.034C3.54021 60.1491 3.44957 60.2459 3.3423 60.3244C3.23502 60.4029 3.11678 60.4611 2.98756 60.4989C2.85835 60.5368 2.72882 60.5557 2.59897 60.5555L2.84627 58.59ZM1.78402 53.1912C1.86426 53.0493 1.93333 52.9462 1.99124 52.8819L1.86533 52.8545C1.5243 52.7805 1.26007 52.8083 1.07262 52.938C0.885177 53.0676 0.750465 53.3213 0.668487 53.699C0.622943 53.9089 0.599179 54.107 0.597193 54.2933C0.596345 54.4744 0.609976 54.6395 0.638084 54.7884L0.0379716 54.7818C0.0173867 54.6235 0.00922559 54.4459 0.0134889 54.2491C0.0188908 54.047 0.0472102 53.8279 0.0984464 53.5918C0.223691 53.0147 0.442971 52.6118 0.756288 52.3831C1.07074 52.1492 1.51128 52.0937 2.07791 52.2167L5.336 52.9238C5.34496 53.085 5.34594 53.283 5.33895 53.5177C5.33835 53.7483 5.30389 54.021 5.23558 54.3358C5.17751 54.6034 5.07848 54.8319 4.9385 55.0212C4.80377 55.2117 4.63914 55.3628 4.44462 55.4744C4.25123 55.5808 4.0332 55.6488 3.79052 55.6785C3.55423 55.7042 3.30229 55.688 3.03472 55.6299C2.73042 55.5638 2.47401 55.467 2.26549 55.3393C2.06335 55.2076 1.90364 55.0576 1.78634 54.8893C1.67542 54.7169 1.60316 54.5309 1.56956 54.3313C1.54235 54.1276 1.55208 53.9182 1.59876 53.7031C1.64203 53.5038 1.70378 53.3331 1.78402 53.1912ZM4.72866 53.7479C4.73683 53.6343 4.73725 53.5437 4.72993 53.4762L2.59722 53.0134C2.5149 53.0889 2.4342 53.195 2.3551 53.3316C2.27714 53.4631 2.22051 53.6101 2.18521 53.7727C2.15789 53.8986 2.15325 54.0212 2.17132 54.1405C2.19462 54.261 2.24382 54.376 2.3189 54.4857C2.40037 54.5913 2.50886 54.6862 2.64438 54.7706C2.78628 54.8508 2.96216 54.9137 3.17202 54.9592C3.55502 55.0424 3.88073 55.0224 4.14915 54.8994C4.41871 54.7711 4.58992 54.539 4.66279 54.2033C4.70378 54.0144 4.72574 53.8626 4.72866 53.7479ZM6.99039 49.5584C6.94885 49.6917 6.95902 49.8214 7.02091 49.9475C7.0828 50.0737 7.19319 50.1615 7.35207 50.2111C7.51096 50.2606 7.65171 50.2511 7.77433 50.1825C7.89695 50.1138 7.97903 50.0129 8.02058 49.8797C8.06373 49.7413 8.05355 49.6116 7.99006 49.4905C7.92817 49.3644 7.81778 49.2766 7.6589 49.227C7.50002 49.1775 7.35926 49.187 7.23665 49.2556C7.11563 49.3191 7.03354 49.4201 6.99039 49.5584ZM5.85606 49.3819L5.53485 50.4121L6.06532 50.5775L6.58308 48.9169L4.39202 48.2337C4.03838 48.1235 3.81523 48.0005 3.72259 47.8647C3.63507 47.7306 3.62167 47.5661 3.6824 47.3714C3.72874 47.2227 3.78903 47.0925 3.86326 46.9807C3.93909 46.8638 4.00869 46.7758 4.07207 46.7168L3.56267 46.4568C3.53771 46.4827 3.50362 46.5199 3.46042 46.5683C3.42234 46.6183 3.38106 46.6785 3.33659 46.749C3.29372 46.8144 3.25021 46.8908 3.20607 46.9782C3.16353 47.0606 3.12707 47.1504 3.09671 47.2478C3.0264 47.4733 2.99882 47.67 3.01398 47.8378C3.02914 48.0056 3.08384 48.1548 3.17808 48.2854C3.27392 48.4109 3.40594 48.5196 3.57414 48.6114C3.74747 48.7048 3.95457 48.789 4.19546 48.8641L5.85606 49.3819ZM6.35096 42.3914C6.31448 42.2545 6.23419 42.1604 6.1101 42.1093C5.82715 41.9927 5.57014 42.2149 5.33906 42.7758C5.24908 42.9942 5.18903 43.2105 5.15891 43.4245C5.1358 43.6356 5.12817 43.8444 5.13602 44.0509L4.5285 43.9399C4.5227 43.7285 4.54084 43.5154 4.58293 43.3004C4.62502 43.0855 4.69514 42.8589 4.7933 42.6207C5.01007 42.0945 5.25295 41.7446 5.52193 41.5708C5.79587 41.3992 6.0892 41.3778 6.40193 41.5066C6.59552 41.5864 6.73289 41.7039 6.81405 41.8593C6.90221 42.0117 6.95927 42.1833 6.98522 42.374C7.01118 42.5647 7.01713 42.7617 7.00307 42.9649C6.99399 43.1702 6.98753 43.362 6.9837 43.5405C6.97987 43.7189 6.99123 43.8745 7.01778 44.0074C7.05134 44.1374 7.12024 44.2238 7.22448 44.2668C7.51735 44.3874 7.77422 44.1797 7.99508 43.6436C8.03393 43.5493 8.06885 43.4504 8.09982 43.3471C8.13284 43.2387 8.15782 43.1358 8.17478 43.0383C8.1967 42.9428 8.20956 42.8552 8.21337 42.7755C8.22214 42.6978 8.22478 42.635 8.22129 42.5871L8.81829 42.7024C8.80366 42.8648 8.76684 43.0528 8.70781 43.2666C8.65579 43.4774 8.59093 43.6771 8.51322 43.8658C8.31486 44.3473 8.07432 44.6633 7.79163 44.8139C7.51594 44.9617 7.2391 44.9783 6.96112 44.8637C6.76257 44.7819 6.62169 44.6658 6.53849 44.5154C6.45734 44.3601 6.40524 44.1905 6.38221 44.0069C6.36122 43.8182 6.35775 43.6223 6.3718 43.419C6.39082 43.2178 6.40122 43.0305 6.403 42.857C6.40683 42.6786 6.38948 42.5234 6.35096 42.3914ZM10.669 39.0218L11.397 37.6213L10.9039 37.3651L10.176 38.7656L8.63258 37.9634C8.46585 37.8767 8.33628 37.7942 8.24386 37.7159C8.15144 37.6377 8.0855 37.555 8.04605 37.4679C8.01383 37.3786 8.0081 37.2848 8.02884 37.1867C8.04959 37.0886 8.09215 36.9776 8.15653 36.8537C8.24566 36.6822 8.33176 36.5515 8.41481 36.4616C8.49786 36.3716 8.58796 36.2914 8.68512 36.2209L8.2295 35.8752C8.16626 35.927 8.07244 36.0144 7.94805 36.1373C7.82614 36.2554 7.70947 36.4217 7.59805 36.6361C7.46931 36.8838 7.39266 37.1011 7.36812 37.288C7.34358 37.4749 7.36495 37.6433 7.43223 37.7933C7.50199 37.9384 7.61157 38.071 7.76097 38.191C7.91513 38.3135 8.10415 38.4329 8.32804 38.5493L9.87146 39.3515L9.5075 40.0517L10.0005 40.308L10.3645 39.6077L11.2934 40.0906L11.698 39.5566L10.669 39.0218ZM13.7698 32.9837C13.8896 33.3848 13.8137 33.7982 13.5423 34.2236C13.4239 34.4092 13.2745 34.5686 13.094 34.7018C12.9135 34.835 12.7106 34.9284 12.4853 34.9821C12.26 35.0358 12.0158 35.0392 11.7528 34.9924C11.4897 34.9456 11.2179 34.8326 10.9373 34.6536C10.7019 34.5035 10.504 34.3295 10.3437 34.1316C10.1879 33.9367 10.0808 33.7251 10.0226 33.497C9.96441 33.2688 9.95728 33.0254 10.0012 32.7669C10.0526 32.5067 10.1649 32.2409 10.3381 31.9693C10.4796 31.7475 10.627 31.5614 10.7804 31.4108C10.9337 31.2603 11.0501 31.1627 11.1297 31.1179L11.5573 31.4957C11.4749 31.545 11.3731 31.6297 11.2519 31.7498C11.1307 31.8699 11.0065 32.0296 10.8795 32.2287C10.6572 32.5772 10.5676 32.9022 10.6109 33.2036C10.6617 33.5035 10.8427 33.7686 11.1542 33.9992L12.5921 31.7452L12.789 31.8708C13.3276 32.2144 13.6545 32.5854 13.7698 32.9837ZM13.1803 33.2189C13.1159 32.9804 12.9502 32.776 12.6832 32.6057L11.6177 34.2758C11.735 34.3315 11.8601 34.3699 11.9931 34.3911C12.1261 34.4122 12.2578 34.4103 12.3884 34.3854C12.5189 34.3604 12.6423 34.3117 12.7585 34.2394C12.8776 34.1625 12.979 34.0585 13.0628 33.9272C13.21 33.6964 13.2492 33.4603 13.1803 33.2189ZM12.9069 28.3952L15.7075 30.5527C16.1906 30.2336 16.6025 29.8529 16.9432 29.4106C17.0481 29.2745 17.1416 29.1398 17.2239 29.0067C17.3104 28.8768 17.3939 28.7243 17.4746 28.5492L16.9352 28.2862C16.8686 28.4517 16.7986 28.591 16.7252 28.7039C16.6593 28.8158 16.5789 28.9334 16.4839 29.0567C16.284 29.3161 16.0447 29.552 15.766 29.7642L13.3099 27.8721L12.9069 28.3952ZM23.4596 22.2451C23.2631 22.38 23.0555 22.5069 22.837 22.6256L20.3953 19.9369L20.8901 19.4876L23.0124 21.8245C23.1103 21.7646 23.2066 21.6989 23.3012 21.6275C23.4034 21.5564 23.4943 21.4847 23.5738 21.4125C23.6692 21.3259 23.7458 21.2346 23.8036 21.1386C23.8654 21.0389 23.8953 20.932 23.8932 20.8179C23.8986 20.7042 23.8667 20.5772 23.7975 20.4371C23.7282 20.2969 23.6124 20.1374 23.4499 19.9586L22.0586 18.4264L22.5474 17.9825L24.02 19.604C24.4026 20.0253 24.5851 20.418 24.5676 20.782C24.5541 21.1424 24.3625 21.4904 23.9929 21.8261C23.8379 21.9668 23.6601 22.1065 23.4596 22.2451ZM28.3987 15.731C28.2203 15.4957 28.0239 15.3078 27.8095 15.1672C27.6026 15.0276 27.3873 14.9348 27.1637 14.8887C26.9402 14.8426 26.7158 14.8444 26.4905 14.8939C26.2686 14.9476 26.0592 15.0491 25.8624 15.1984C25.6699 15.3443 25.5178 15.5169 25.4061 15.7161C25.3019 15.9164 25.2418 16.1304 25.2258 16.3581C25.2099 16.5858 25.239 16.8198 25.3133 17.0599C25.3951 17.3011 25.5252 17.5393 25.7036 17.7746C25.882 18.0098 26.0763 18.1994 26.2864 18.3433C26.5008 18.4839 26.7182 18.5751 26.9385 18.6169C27.1621 18.6629 27.3828 18.6607 27.6005 18.6102C27.8257 18.5607 28.0346 18.4629 28.2271 18.317C28.4238 18.1677 28.5765 17.9914 28.6849 17.7879C28.7966 17.5886 28.8605 17.3752 28.8764 17.1475C28.8957 16.924 28.8644 16.6917 28.7826 16.4506C28.7051 16.2061 28.5771 15.9663 28.3987 15.731ZM27.8533 16.1446C28.1095 16.4825 28.2379 16.8029 28.2384 17.1057C28.2422 17.4128 28.12 17.6604 27.8719 17.8485C27.628 18.0334 27.3588 18.0826 27.0641 17.9961C26.777 17.9107 26.5053 17.6989 26.249 17.361C25.996 17.0273 25.8655 16.7086 25.8575 16.4047C25.8569 16.1019 25.9786 15.8581 26.2224 15.6732C26.4706 15.4851 26.7403 15.4321 27.0317 15.5143C27.3264 15.6008 27.6002 15.8109 27.8533 16.1446ZM31.4146 12.1054C31.3848 11.9467 31.3555 11.7686 31.3267 11.5712L31.7497 11.3059C31.9714 11.5281 32.1965 11.7607 32.4251 12.0039C32.6566 12.2517 32.8806 12.4977 33.0973 12.7421C33.3139 12.9864 33.5195 13.2282 33.7139 13.4675C33.9083 13.7068 34.0883 13.933 34.2536 14.1461L33.742 14.467C33.6114 14.2891 33.4814 14.1172 33.3519 13.9512C33.2225 13.7853 33.0865 13.6139 32.9439 13.4372C32.8042 13.265 32.6514 13.082 32.4855 12.8882C32.3196 12.6944 32.1377 12.4853 31.9398 12.2608C31.9829 12.481 32.0245 12.6735 32.0646 12.8385L32.1788 13.3087C32.2149 13.4571 32.2547 13.6064 32.2982 13.7566L32.445 14.2634L32.0221 14.5287C31.8767 14.3981 31.7437 14.2819 31.6229 14.1802C31.5066 14.0757 31.3895 13.9749 31.2715 13.8778C31.1536 13.7807 31.0268 13.6796 30.8912 13.5745C30.7556 13.4695 30.5943 13.3488 30.4074 13.2125C30.5422 13.5082 30.6622 13.7752 30.7673 14.0135C30.8769 14.2489 30.9788 14.467 31.0731 14.6677C31.1673 14.8684 31.2581 15.0586 31.3454 15.2383C31.4402 15.4197 31.5364 15.6034 31.634 15.7893L31.1019 16.1231C30.8575 15.6426 30.6037 15.1015 30.3404 14.4999C30.0845 13.8999 29.8447 13.2803 29.6212 12.641L30.0442 12.3757C30.2094 12.4875 30.3569 12.5914 30.4868 12.6874C30.6213 12.7805 30.7512 12.8765 30.8765 12.9753C31.0065 13.0713 31.1392 13.1718 31.2748 13.2768C31.4133 13.3864 31.57 13.51 31.7449 13.6474C31.6973 13.4301 31.6521 13.2367 31.6091 13.0672C31.5735 12.8993 31.5386 12.7375 31.5042 12.5816L31.4146 12.1054ZM104.615 126.696L102.737 123.702C103.101 123.251 103.519 122.878 103.992 122.581C104.138 122.49 104.281 122.41 104.421 122.341C104.559 122.267 104.719 122.199 104.901 122.135L105.111 122.697C104.939 122.748 104.794 122.804 104.675 122.866C104.557 122.921 104.432 122.99 104.3 123.072C104.023 123.247 103.765 123.462 103.527 123.719L105.175 126.346L104.615 126.696ZM109.325 119.371C108.916 119.284 108.51 119.393 108.108 119.698C107.932 119.831 107.785 119.993 107.667 120.183C107.549 120.374 107.472 120.584 107.437 120.813C107.402 121.042 107.418 121.285 107.486 121.544C107.554 121.802 107.688 122.064 107.89 122.329C108.058 122.552 108.248 122.735 108.458 122.879C108.665 123.018 108.884 123.108 109.116 123.147C109.348 123.187 109.592 123.174 109.846 123.11C110.101 123.037 110.357 122.904 110.613 122.709C110.823 122.55 110.997 122.388 111.134 122.223C111.272 122.058 111.36 121.935 111.398 121.852L110.987 121.456C110.944 121.542 110.868 121.65 110.758 121.781C110.648 121.911 110.499 122.048 110.311 122.191C109.982 122.441 109.665 122.556 109.361 122.537C109.058 122.511 108.779 122.352 108.524 122.06L110.655 120.445L110.514 120.259C110.128 119.75 109.731 119.454 109.325 119.371ZM109.138 119.978C109.381 120.022 109.598 120.171 109.79 120.423L108.211 121.62C108.146 121.508 108.098 121.386 108.066 121.256C108.034 121.125 108.025 120.993 108.04 120.861C108.054 120.729 108.092 120.602 108.155 120.48C108.222 120.355 108.318 120.246 108.442 120.152C108.66 119.986 108.892 119.928 109.138 119.978ZM115.161 118.31C115.134 118.392 115.079 118.503 114.996 118.644C114.914 118.784 114.797 118.923 114.646 119.06C114.483 119.208 114.306 119.321 114.116 119.4C113.927 119.47 113.729 119.501 113.525 119.491C113.32 119.473 113.111 119.41 112.895 119.301C112.681 119.184 112.468 119.011 112.259 118.78C112.075 118.577 111.935 118.367 111.839 118.15C111.743 117.925 111.693 117.702 111.689 117.481C111.688 117.257 111.737 117.039 111.834 116.827C111.928 116.611 112.077 116.411 112.279 116.227C112.518 116.01 112.737 115.844 112.936 115.728C113.136 115.605 113.308 115.507 113.452 115.434L115.693 117.902C116.083 118.331 116.255 118.741 116.21 119.13C116.169 119.516 115.929 119.907 115.492 120.304C115.313 120.466 115.138 120.6 114.966 120.706C114.797 120.808 114.639 120.89 114.492 120.951L114.186 120.435C114.329 120.385 114.479 120.314 114.635 120.223C114.796 120.128 114.955 120.008 115.114 119.864C115.401 119.604 115.553 119.36 115.571 119.133C115.59 118.906 115.482 118.663 115.247 118.405L115.161 118.31ZM113.277 116.235C113.215 116.263 113.136 116.308 113.042 116.372C112.944 116.432 112.824 116.527 112.681 116.657C112.426 116.888 112.311 117.152 112.335 117.45C112.362 117.744 112.508 118.036 112.771 118.326C112.916 118.485 113.058 118.606 113.198 118.688C113.339 118.764 113.476 118.81 113.608 118.828C113.74 118.838 113.865 118.823 113.981 118.783C114.093 118.739 114.197 118.674 114.292 118.587C114.415 118.475 114.514 118.353 114.589 118.22C114.668 118.083 114.72 117.96 114.744 117.851L113.277 116.235ZM115.187 112.486C115.327 112.477 115.445 112.421 115.539 112.318C115.638 112.212 115.684 112.09 115.678 111.954C115.677 111.813 115.614 111.686 115.492 111.574C115.37 111.461 115.239 111.409 115.098 111.419C114.962 111.424 114.844 111.48 114.746 111.587C114.651 111.689 114.605 111.811 114.607 111.951C114.609 112.092 114.671 112.219 114.793 112.331C114.916 112.444 115.047 112.496 115.187 112.486ZM115.528 114.006L116.259 113.212L117.538 114.392C117.724 114.563 117.9 114.7 118.068 114.803C118.231 114.903 118.391 114.963 118.548 114.983C118.708 115 118.865 114.972 119.018 114.902C119.171 114.831 119.327 114.709 119.487 114.535C119.556 114.46 119.616 114.383 119.666 114.305C119.72 114.224 119.764 114.148 119.799 114.078C119.838 114.004 119.87 113.938 119.894 113.88C119.914 113.819 119.929 113.771 119.939 113.736L119.459 113.425C119.44 113.509 119.399 113.613 119.335 113.738C119.276 113.858 119.193 113.975 119.087 114.09C118.949 114.239 118.8 114.31 118.64 114.301C118.476 114.289 118.258 114.157 117.986 113.906L116.299 112.35L115.119 113.629L115.528 114.006ZM122.43 109.356C122.324 109.274 122.202 109.252 122.065 109.289C121.932 109.321 121.789 109.384 121.636 109.476C121.487 109.565 121.33 109.667 121.165 109.784C120.996 109.898 120.825 109.993 120.651 110.069C120.48 110.141 120.307 110.181 120.132 110.188C119.96 110.191 119.789 110.128 119.619 109.996C119.381 109.813 119.257 109.565 119.247 109.252C119.236 108.932 119.39 108.566 119.707 108.153C119.832 107.992 119.972 107.836 120.129 107.685C120.285 107.527 120.429 107.401 120.562 107.307L120.961 107.767C120.917 107.788 120.864 107.821 120.801 107.868C120.734 107.911 120.665 107.966 120.593 108.033C120.517 108.096 120.441 108.169 120.363 108.252C120.289 108.33 120.221 108.41 120.159 108.491C119.805 108.95 119.754 109.277 120.004 109.47C120.094 109.539 120.203 109.555 120.332 109.519C120.461 109.476 120.601 109.408 120.754 109.315C120.906 109.223 121.069 109.121 121.243 109.011C121.412 108.897 121.585 108.804 121.763 108.731C121.941 108.658 122.118 108.622 122.295 108.622C122.47 108.614 122.64 108.674 122.806 108.802C123.074 109.009 123.202 109.273 123.19 109.596C123.174 109.916 122.993 110.302 122.646 110.752C122.488 110.956 122.327 111.13 122.162 111.274C121.997 111.418 121.821 111.541 121.635 111.641L121.236 111.171C121.418 111.074 121.595 110.963 121.767 110.838C121.937 110.705 122.094 110.544 122.238 110.357C122.609 109.877 122.672 109.543 122.43 109.356ZM123.674 102.533L122.825 103.864L121.847 103.24L121.587 103.858L122.47 104.421L122.045 105.086L122.514 105.385L122.938 104.719L124.405 105.655C124.617 105.791 124.815 105.895 124.998 105.967C125.177 106.036 125.347 106.065 125.507 106.053C125.671 106.036 125.827 105.97 125.977 105.856C126.126 105.741 126.276 105.566 126.427 105.331C126.556 105.127 126.642 104.943 126.683 104.778C126.728 104.609 126.756 104.484 126.77 104.403L126.243 104.182C126.23 104.301 126.206 104.419 126.169 104.536C126.133 104.653 126.063 104.793 125.959 104.956C125.884 105.073 125.809 105.166 125.734 105.233C125.66 105.3 125.576 105.342 125.482 105.359C125.387 105.368 125.282 105.352 125.168 105.311C125.054 105.27 124.918 105.199 124.76 105.098L123.293 104.163L124.142 102.832L123.674 102.533ZM125.543 98.9767C125.776 98.5289 126.096 98.2566 126.503 98.1597C126.906 98.0604 127.39 98.158 127.957 98.4527L128.165 98.5604L126.931 100.933C127.287 101.087 127.607 101.111 127.892 101.005C128.175 100.892 128.411 100.652 128.602 100.285C128.711 100.076 128.787 99.8884 128.831 99.7234C128.874 99.5584 128.896 99.4279 128.898 99.3318L129.439 99.5132C129.44 99.6045 129.414 99.7541 129.36 99.9622C129.306 100.17 129.219 100.391 129.097 100.624C128.949 100.91 128.775 101.14 128.575 101.315C128.373 101.482 128.159 101.598 127.932 101.662C127.705 101.725 127.469 101.738 127.222 101.701C126.97 101.661 126.721 101.576 126.473 101.448C126.178 101.294 125.944 101.115 125.772 100.911C125.6 100.706 125.481 100.493 125.415 100.271C125.349 100.049 125.328 99.8269 125.353 99.604C125.378 99.3811 125.442 99.172 125.543 98.9767ZM127.374 98.9117C127.093 98.7657 126.833 98.7244 126.594 98.7879C126.351 98.8489 126.166 99.0008 126.04 99.2438C125.968 99.3819 125.928 99.5218 125.921 99.6634C125.917 99.8002 125.936 99.9313 125.98 100.057C126.024 100.182 126.088 100.297 126.173 100.402C126.257 100.507 126.353 100.596 126.46 100.67L127.374 98.9117ZM127.639 95.2659L130.908 96.6126L131.16 96.002L128.293 94.821C128.338 94.4735 128.422 94.1484 128.547 93.8456C128.606 93.7016 128.668 93.5731 128.732 93.4601C128.793 93.3401 128.878 93.2099 128.989 93.0695L128.491 92.7339C128.38 92.8912 128.289 93.0399 128.22 93.1797C128.146 93.3175 128.076 93.4659 128.011 93.6247C127.798 94.141 127.674 94.688 127.639 95.2659ZM130.94 85.1278C130.934 84.8792 130.94 84.6361 130.959 84.3984C130.978 84.1555 131.01 83.9317 131.055 83.7271C131.161 83.2392 131.366 82.8992 131.672 82.7073C131.978 82.5101 132.409 82.4719 132.966 82.5926L135.106 83.0571L134.966 83.7024L132.944 83.2635C132.707 83.2123 132.511 83.1917 132.355 83.2018C132.199 83.2119 132.073 83.2477 131.978 83.3093C131.878 83.3646 131.8 83.4439 131.745 83.5472C131.691 83.6453 131.65 83.7573 131.622 83.8832C131.6 83.9882 131.583 84.1027 131.573 84.2268C131.558 84.3445 131.549 84.4607 131.546 84.5754L134.631 85.2449L134.49 85.8981L130.94 85.1278ZM134.913 77.0923C134.684 76.9769 134.423 76.9008 134.13 76.8639C133.837 76.827 133.566 76.8361 133.315 76.8912C133.066 76.9409 132.849 77.03 132.665 77.1584C132.476 77.2861 132.323 77.4481 132.206 77.6444C132.084 77.8401 132.008 78.0605 131.977 78.3055C131.947 78.5452 131.966 78.7749 132.036 78.9947C132.101 79.2086 132.21 79.4008 132.361 79.5713C132.508 79.7413 132.695 79.8839 132.924 79.9993C133.154 80.1094 133.415 80.1828 133.708 80.2197C134.001 80.2565 134.272 80.2501 134.522 80.2004C134.767 80.1446 134.985 80.0529 135.174 79.9252C135.363 79.7975 135.518 79.6385 135.64 79.4481C135.756 79.2518 135.83 79.0338 135.86 78.7941C135.891 78.549 135.874 78.317 135.809 78.0978C135.74 77.878 135.629 77.6828 135.477 77.5122C135.326 77.3416 135.138 77.2016 134.913 77.0923ZM133.02 77.69C133.282 77.5391 133.624 77.4901 134.045 77.543C134.46 77.5953 134.779 77.7274 135.002 77.9394C135.218 78.1506 135.307 78.4107 135.269 78.7197C135.23 79.0233 135.08 79.2506 134.818 79.4015C134.55 79.5465 134.209 79.5928 133.794 79.5405C133.373 79.4876 133.054 79.3581 132.836 79.1522C132.614 78.9403 132.522 78.6825 132.56 78.3789C132.599 78.0699 132.752 77.8403 133.02 77.69ZM136.269 72.2484C136.083 72.3221 135.914 72.3858 135.762 72.4393L135.305 72.5998C135.153 72.648 134.995 72.6986 134.832 72.7517C134.664 72.7993 134.473 72.8568 134.261 72.9242C134.468 73.007 134.653 73.081 134.817 73.1461C134.976 73.211 135.13 73.2757 135.278 73.3402C135.426 73.3994 135.574 73.4639 135.722 73.5338C135.87 73.5983 136.034 73.6741 136.213 73.7613L136.195 74.2602C135.529 74.3863 134.873 74.4885 134.225 74.5668C133.573 74.6396 132.977 74.6903 132.439 74.719L132.462 74.0913C132.672 74.0828 132.879 74.0743 133.083 74.0657C133.283 74.0515 133.493 74.035 133.714 74.0162C133.935 73.9975 134.175 73.9767 134.433 73.954C134.692 73.9258 134.983 73.8962 135.307 73.8651C135.095 73.7714 134.91 73.6921 134.751 73.6272C134.593 73.5623 134.442 73.503 134.299 73.4494C134.156 73.3958 134.01 73.3448 133.861 73.2964C133.713 73.2426 133.545 73.1854 133.36 73.1249L133.378 72.6259L133.89 72.4997C134.042 72.4623 134.191 72.4221 134.338 72.3791L134.802 72.243C134.965 72.1952 135.153 72.1349 135.365 72.0621C135.071 72.003 134.799 71.9501 134.549 71.9033C134.298 71.8565 134.063 71.8157 133.844 71.7808C133.62 71.7457 133.403 71.7136 133.195 71.6845C132.986 71.6553 132.772 71.6287 132.553 71.6046L132.575 71.001C132.842 71.0376 133.128 71.0803 133.433 71.1291C133.737 71.1779 134.049 71.235 134.369 71.3004C134.689 71.3658 135.014 71.4369 135.345 71.5134C135.67 71.5898 135.984 71.6685 136.287 71.7494L136.269 72.2484ZM102.401 14.6883L104.28 11.6934L104.839 12.0443L103.192 14.6708C103.43 14.9278 103.688 15.1433 103.965 15.3174C104.097 15.4001 104.222 15.4689 104.339 15.5237C104.459 15.5859 104.604 15.6422 104.775 15.6926L104.565 16.2547C104.383 16.1913 104.224 16.1227 104.086 16.0491C103.946 15.98 103.803 15.8998 103.657 15.8085C103.184 15.5119 102.765 15.1384 102.401 14.6883ZM107.772 18.692C108.175 18.9969 108.58 19.1059 108.99 19.0189C109.396 18.9362 109.792 18.6404 110.178 18.1313L110.32 17.9452L108.189 16.3298C108.444 16.038 108.723 15.879 109.026 15.8526C109.33 15.8338 109.647 15.9493 109.976 16.1991C110.164 16.3418 110.313 16.4784 110.423 16.6089C110.533 16.7394 110.609 16.8477 110.652 16.9339L111.063 16.5382C111.025 16.4553 110.937 16.3314 110.799 16.1664C110.662 16.0014 110.488 15.8394 110.278 15.6804C110.022 15.4858 109.766 15.3524 109.511 15.2802C109.256 15.2155 109.013 15.203 108.781 15.2425C108.549 15.2821 108.329 15.3717 108.123 15.5113C107.912 15.6551 107.723 15.8383 107.554 16.0607C107.353 16.326 107.219 16.5878 107.151 16.8462C107.083 17.1046 107.067 17.3483 107.102 17.5772C107.137 17.806 107.214 18.0158 107.332 18.2065C107.45 18.3972 107.597 18.559 107.772 18.692ZM109.454 17.9664C109.263 18.2188 109.046 18.3675 108.803 18.4123C108.557 18.4615 108.325 18.4034 108.107 18.238C107.983 18.1439 107.887 18.0344 107.82 17.9095C107.757 17.7878 107.719 17.6609 107.704 17.5288C107.69 17.3966 107.699 17.2652 107.731 17.1343C107.763 17.0035 107.811 16.8819 107.876 16.7695L109.454 17.9664ZM114.661 19.746C114.744 19.8864 114.799 19.9978 114.826 20.0801L114.912 19.9847C115.147 19.7264 115.255 19.4837 115.236 19.2565C115.218 19.0294 115.065 18.7859 114.779 18.526C114.62 18.3816 114.461 18.262 114.3 18.1671C114.144 18.0758 113.994 18.0051 113.851 17.955L114.157 17.4386C114.304 17.4999 114.462 17.5816 114.63 17.6837C114.803 17.7895 114.978 17.9235 115.157 18.086C115.594 18.483 115.834 18.8743 115.875 19.26C115.92 19.6493 115.748 20.0585 115.358 20.4878L113.117 22.9558C112.973 22.8829 112.801 22.7848 112.601 22.6614C112.402 22.5456 112.183 22.3794 111.944 22.1628C111.741 21.9788 111.593 21.7788 111.499 21.5628C111.402 21.3509 111.353 21.1328 111.354 20.9085C111.358 20.6879 111.408 20.465 111.504 20.24C111.6 20.0226 111.74 19.8125 111.924 19.6098C112.133 19.3793 112.345 19.2056 112.56 19.0889C112.775 18.9797 112.985 18.9164 113.19 18.899C113.394 18.8891 113.591 18.9195 113.781 18.9902C113.971 19.0685 114.148 19.1816 114.311 19.3296C114.462 19.4667 114.578 19.6055 114.661 19.746ZM112.707 22.0178C112.801 22.0817 112.879 22.1273 112.941 22.1547L114.409 20.5392C114.384 20.4301 114.333 20.3072 114.254 20.1703C114.179 20.0371 114.08 19.9146 113.957 19.8027C113.862 19.7161 113.758 19.6507 113.645 19.6067C113.529 19.5667 113.405 19.5518 113.273 19.562C113.141 19.5797 113.004 19.6262 112.863 19.7014C112.723 19.7842 112.58 19.905 112.436 20.064C112.173 20.3541 112.027 20.6462 111.999 20.9402C111.976 21.2378 112.091 21.5021 112.345 21.733C112.488 21.863 112.609 21.9579 112.707 22.0178ZM115.204 26.0713C115.11 25.9687 114.992 25.9126 114.852 25.9032C114.712 25.8937 114.58 25.9454 114.458 26.0582C114.336 26.171 114.274 26.2977 114.272 26.4382C114.27 26.5787 114.316 26.7002 114.411 26.8029C114.509 26.9094 114.627 26.9655 114.763 26.971C114.903 26.9805 115.035 26.9288 115.157 26.8159C115.279 26.7031 115.341 26.5765 115.343 26.436C115.349 26.2994 115.302 26.1779 115.204 26.0713ZM115.924 25.1772L115.193 24.3839L114.784 24.7606L115.963 26.0393L117.651 24.4834C117.923 24.2323 118.141 24.1005 118.305 24.0882C118.465 24.0794 118.614 24.15 118.752 24.3C118.858 24.4145 118.94 24.5318 119 24.652C119.063 24.7761 119.105 24.8804 119.124 24.9648L119.604 24.6536C119.594 24.619 119.579 24.5709 119.559 24.5093C119.534 24.4514 119.503 24.3855 119.464 24.3117C119.429 24.2419 119.385 24.166 119.331 24.0841C119.281 24.0061 119.221 23.9296 119.152 23.8546C118.992 23.6809 118.835 23.5587 118.682 23.4879C118.53 23.4172 118.373 23.3899 118.213 23.4062C118.056 23.4265 117.896 23.4865 117.732 23.5863C117.565 23.6897 117.388 23.8269 117.203 23.998L115.924 25.1772ZM121.73 29.1011C121.867 29.138 121.989 29.1155 122.095 29.0336C122.337 28.8468 122.273 28.5132 121.903 28.0326C121.759 27.8455 121.602 27.6853 121.431 27.5522C121.26 27.4267 121.083 27.3157 120.9 27.2192L121.3 26.7486C121.486 26.8493 121.662 26.9715 121.827 27.1155C121.992 27.2594 122.153 27.4334 122.31 27.6375C122.658 28.0884 122.839 28.4737 122.855 28.7934C122.867 29.1165 122.739 29.3813 122.471 29.5877C122.305 29.7154 122.135 29.7756 121.959 29.7682C121.783 29.7684 121.606 29.732 121.428 29.6591C121.25 29.5862 121.076 29.4929 120.907 29.3791C120.734 29.2686 120.571 29.1671 120.419 29.0746C120.266 28.982 120.126 28.9141 119.997 28.8706C119.868 28.8347 119.759 28.8511 119.669 28.9199C119.418 29.1133 119.47 29.4396 119.824 29.8989C119.886 29.9797 119.954 30.0594 120.028 30.1379C120.105 30.2206 120.182 30.2937 120.258 30.3572C120.33 30.4239 120.399 30.4788 120.466 30.522C120.529 30.5684 120.582 30.6021 120.625 30.623L120.227 31.0824C120.094 30.9886 119.949 30.8626 119.794 30.7046C119.637 30.5542 119.497 30.3981 119.372 30.2365C119.054 29.824 118.901 29.4577 118.912 29.1375C118.922 28.8249 119.046 28.5769 119.284 28.3934C119.454 28.2623 119.625 28.1984 119.797 28.2015C119.972 28.2089 120.145 28.2486 120.315 28.3205C120.489 28.3966 120.661 28.4916 120.83 28.6054C120.994 28.7224 121.152 28.8251 121.301 28.9134C121.453 29.0059 121.597 29.0685 121.73 29.1011ZM122.49 34.526L123.339 35.8566L123.807 35.5578L122.958 34.2271L124.425 33.2916C124.583 33.1905 124.719 33.1195 124.833 33.0786C124.947 33.0377 125.052 33.022 125.147 33.0313C125.24 33.0481 125.324 33.09 125.399 33.1571C125.474 33.2241 125.548 33.3164 125.624 33.4341C125.728 33.5971 125.798 33.737 125.834 33.8539C125.87 33.9708 125.895 34.0889 125.907 34.2083L126.435 33.9866C126.421 33.9059 126.393 33.781 126.348 33.6118C126.307 33.4471 126.221 33.263 126.091 33.0593C125.941 32.8239 125.791 32.6489 125.642 32.5342C125.492 32.4195 125.336 32.3538 125.172 32.3371C125.011 32.3249 124.842 32.3535 124.663 32.4229C124.48 32.4952 124.282 32.5992 124.069 32.7349L122.603 33.6704L122.179 33.0051L121.71 33.3039L122.135 33.9693L121.252 34.5323L121.512 35.1497L122.49 34.526ZM126.169 40.2298C125.761 40.133 125.441 39.8607 125.208 39.4129C125.107 39.2176 125.044 39.0084 125.019 38.7855C124.993 38.5626 125.014 38.3402 125.08 38.1182C125.146 37.8963 125.265 37.6831 125.437 37.4787C125.61 37.2743 125.843 37.0953 126.139 36.9418C126.386 36.8131 126.636 36.7287 126.887 36.6888C127.134 36.6513 127.371 36.6644 127.598 36.728C127.824 36.7917 128.039 36.9072 128.241 37.0745C128.44 37.2491 128.614 37.4793 128.763 37.7651C128.884 37.9985 128.972 38.2193 129.025 38.4273C129.079 38.6354 129.105 38.7851 129.104 38.8763L128.563 39.0577C128.562 38.9617 128.539 38.8312 128.496 38.6662C128.453 38.5012 128.376 38.3139 128.268 38.1043C128.077 37.7375 127.84 37.4974 127.557 37.3842C127.272 37.2782 126.952 37.3025 126.597 37.4569L127.83 39.8292L127.623 39.9369C127.056 40.2315 126.571 40.3292 126.169 40.2298ZM126.26 39.6017C126.498 39.6652 126.758 39.6239 127.039 39.4778L126.126 37.72C126.019 37.7937 125.923 37.8829 125.838 37.9875C125.753 38.0921 125.689 38.2071 125.645 38.3327C125.602 38.4582 125.582 38.5894 125.587 38.7262C125.594 38.8678 125.633 39.0076 125.705 39.1458C125.831 39.3887 126.016 39.5407 126.26 39.6017ZM130.574 41.777L127.305 43.1236C127.34 43.7015 127.464 44.2486 127.676 44.7648C127.742 44.9237 127.811 45.072 127.886 45.2098C127.955 45.3497 128.045 45.4983 128.156 45.6557L128.654 45.3201C128.544 45.1796 128.458 45.0494 128.397 44.9294C128.333 44.8164 128.272 44.6879 128.212 44.544C128.088 44.2412 128.003 43.916 127.958 43.5685L130.825 42.3875L130.574 41.777ZM130.623 53.9912C130.605 53.7535 130.599 53.5103 130.605 53.2617L134.154 52.4915L134.296 53.1447L131.211 53.8141C131.214 53.9289 131.223 54.0451 131.237 54.1628C131.248 54.2869 131.264 54.4014 131.287 54.5063C131.315 54.6322 131.355 54.7442 131.41 54.8423C131.465 54.9457 131.543 55.025 131.643 55.0802C131.738 55.1418 131.864 55.1777 132.02 55.1878C132.176 55.1979 132.372 55.1773 132.608 55.1261L134.631 54.6871L134.771 55.3325L132.63 55.797C132.074 55.9177 131.643 55.8794 131.336 55.6823C131.031 55.4903 130.825 55.1504 130.72 54.6625C130.675 54.4578 130.643 54.2341 130.623 53.9912ZM133.795 61.5257C134.088 61.4888 134.349 61.4127 134.578 61.2973C134.802 61.1879 134.99 61.0479 135.142 60.8773C135.294 60.7067 135.405 60.5115 135.474 60.2917C135.539 60.0726 135.555 59.8405 135.525 59.5955C135.494 59.3558 135.421 59.1378 135.304 58.9414C135.183 58.7511 135.028 58.592 134.839 58.4643C134.649 58.3366 134.432 58.2449 134.187 58.1892C133.937 58.1394 133.666 58.133 133.373 58.1699C133.08 58.2067 132.819 58.2802 132.589 58.3902C132.36 58.5056 132.172 58.6483 132.026 58.8182C131.874 58.9888 131.766 59.181 131.701 59.3948C131.631 59.6146 131.611 59.8444 131.642 60.0841C131.672 60.3291 131.749 60.5494 131.871 60.7451C131.987 60.9415 132.14 61.1035 132.33 61.2312C132.514 61.3595 132.73 61.4486 132.98 61.4983C133.231 61.5534 133.502 61.5625 133.795 61.5257ZM133.71 60.8465C133.289 60.8995 132.947 60.8505 132.685 60.6995C132.417 60.5492 132.264 60.3196 132.225 60.0107C132.187 59.707 132.279 59.4493 132.501 59.2373C132.718 59.0314 133.038 58.902 133.458 58.849C133.874 58.7967 134.215 58.8431 134.482 58.988C134.745 59.139 134.895 59.3663 134.933 59.6699C134.972 59.9788 134.883 60.2389 134.666 60.4502C134.444 60.6621 134.125 60.7942 133.71 60.8465ZM135.427 65.9502C135.579 66.0038 135.748 66.0674 135.933 66.1412L135.952 66.6401C135.648 66.7211 135.334 66.7998 135.009 66.8761C134.679 66.9527 134.354 67.0237 134.034 67.0891C133.714 67.1546 133.402 67.2117 133.098 67.2604C132.793 67.3092 132.507 67.3519 132.24 67.3886L132.218 66.785C132.437 66.7608 132.651 66.7342 132.86 66.7051C133.068 66.676 133.284 66.6438 133.509 66.6088C133.728 66.5739 133.963 66.533 134.213 66.4863C134.464 66.4395 134.736 66.3865 135.03 66.3274C134.817 66.2546 134.63 66.1943 134.467 66.1466L134.003 66.0105C133.856 65.9675 133.707 65.9273 133.555 65.8899L133.043 65.7636L133.024 65.2647C133.21 65.2041 133.377 65.147 133.526 65.0932C133.674 65.0447 133.82 64.9937 133.963 64.9401C134.107 64.8866 134.257 64.8273 134.416 64.7624C134.575 64.6975 134.76 64.6182 134.972 64.5245C134.648 64.4933 134.357 64.4637 134.098 64.4356C133.839 64.4128 133.6 64.3921 133.379 64.3733C133.239 64.3614 133.103 64.3505 132.972 64.3404C132.896 64.3346 132.821 64.3291 132.748 64.3239C132.544 64.3153 132.337 64.3067 132.127 64.2983L132.104 63.6706C132.642 63.6992 133.238 63.7499 133.89 63.8227C134.538 63.9011 135.194 64.0033 135.86 64.1293L135.878 64.6283C135.698 64.7154 135.535 64.7913 135.387 64.8558C135.239 64.9257 135.091 64.9902 134.942 65.0493C134.794 65.1138 134.641 65.1786 134.482 65.2435C134.318 65.3086 134.133 65.3825 133.926 65.4653C134.138 65.5327 134.328 65.5903 134.497 65.6378C134.573 65.6627 134.649 65.6871 134.723 65.7109C134.806 65.7379 134.889 65.7641 134.97 65.7897L135.427 65.9502Z" fill="#0083C8"/>
</svg>
