<svg width="117" height="67" viewBox="0 0 117 67" fill="none" xmlns="http://www.w3.org/2000/svg">
<path d="M90.0284 29.0009C94.4435 29.628 98.7748 31.1718 103.022 33.6324C107.224 36.0866 111.261 39.0513 115.132 42.5265L112.181 46.6346C108.414 43.4064 104.592 40.7276 100.715 38.5983C96.7929 36.4625 93.0339 35.1392 89.4381 34.6285C87.2078 34.3117 84.8444 34.2779 82.348 34.527C79.8581 34.7306 77.3878 35.1227 74.9372 35.7033C72.4866 36.284 70.2116 36.936 68.1121 37.6594C66.0127 38.3827 64.2644 39.0863 62.8671 39.7701L61.4782 34.8366C66.4113 32.7976 71.2406 31.1617 75.9662 29.9291C80.6983 28.6509 85.3857 28.3415 90.0284 29.0009Z" fill="#76E094"/>
<path d="M69.8521 46.1053C69.8521 50.151 69.0935 53.7598 67.5764 56.932C66.0593 60.0582 63.9905 62.5177 61.37 64.3107C58.7496 66.1036 55.7613 67.0001 52.4053 67.0001C49.0492 67.0001 46.061 66.1036 43.4405 64.3107C40.8201 62.5177 38.7513 60.0582 37.2342 56.932C35.7171 53.7598 34.9585 50.151 34.9585 46.1053C34.9585 42.0597 35.7171 38.4738 37.2342 35.3476C38.7513 32.1755 40.8201 29.6929 43.4405 27.9C46.061 26.0611 49.0492 25.1416 52.4053 25.1416C55.7613 25.1416 58.7496 26.0611 61.37 27.9C63.9905 29.6929 66.0593 32.1755 67.5764 35.3476C69.0935 38.4738 69.8521 42.0597 69.8521 46.1053ZM63.7147 46.1053C63.7147 43.0711 63.2319 40.4047 62.2665 38.106C61.3011 35.8074 59.9679 34.0144 58.2668 32.7272C56.5658 31.4399 54.612 30.7963 52.4053 30.7963C50.1526 30.7963 48.1758 31.4399 46.4748 32.7272C44.7737 34.0144 43.4405 35.8074 42.4751 38.106C41.5097 40.4047 41.0269 43.0711 41.0269 46.1053C41.0269 49.1395 41.5097 51.806 42.4751 54.1046C43.4405 56.3573 44.7737 58.1273 46.4748 59.4145C48.1758 60.7018 50.1526 61.3454 52.4053 61.3454C54.612 61.3454 56.5658 60.7018 58.2668 59.4145C59.9679 58.1273 61.3011 56.3573 62.2665 54.1046C63.2319 51.806 63.7147 49.1395 63.7147 46.1053Z" fill="#76E094"/>
<path d="M37.7705 29.4568C38.9468 30.3919 39.8958 31.6377 40.6174 33.1945C41.327 34.7416 41.8746 36.4426 42.2603 38.2975L40.4746 39.2743C40.0654 37.5236 39.5187 35.9585 38.8343 34.5789C38.1378 33.1896 37.3106 32.1142 36.3525 31.3527C35.7583 30.8804 35.0621 30.4867 34.2637 30.1716C33.4773 29.8414 32.6552 29.5811 31.7973 29.3907C30.9394 29.2003 30.118 29.0636 29.3332 28.9804C28.5484 28.8973 27.8725 28.8638 27.3055 28.8801L27.9809 26.9101C29.8999 26.9854 31.699 27.1867 33.3783 27.5139C35.0695 27.826 36.5336 28.4736 37.7705 29.4568Z" fill="#76E094"/>
<path d="M34.8936 20.9637C34.8936 25.0094 34.135 28.6182 32.6179 31.7904C31.1008 34.9166 29.032 37.3761 26.4115 39.1691C23.7911 40.962 20.8028 41.8585 17.4468 41.8585C14.0907 41.8585 11.1025 40.962 8.48203 39.1691C5.86157 37.3761 3.79278 34.9166 2.27567 31.7904C0.758556 28.6182 0 25.0094 0 20.9637C0 16.9181 0.758556 13.3322 2.27567 10.206C3.79278 7.03388 5.86157 4.55133 8.48203 2.75838C11.1025 0.919461 14.0907 0 17.4468 0C20.8028 0 23.7911 0.919461 26.4115 2.75838C29.032 4.55133 31.1008 7.03388 32.6179 10.206C34.135 13.3322 34.8936 16.9181 34.8936 20.9637ZM28.7562 20.9637C28.7562 17.9295 28.2734 15.2631 27.308 12.9644C26.3426 10.6658 25.0094 8.8728 23.3084 7.58556C21.6073 6.29831 19.6535 5.65469 17.4468 5.65469C15.1941 5.65469 13.2173 6.29831 11.5163 7.58556C9.81525 8.8728 8.48203 10.6658 7.5166 12.9644C6.55116 15.2631 6.06845 17.9295 6.06845 20.9637C6.06845 23.9979 6.55116 26.6644 7.5166 28.963C8.48203 31.2157 9.81525 32.9857 11.5163 34.2729C13.2173 35.5602 15.1941 36.2038 17.4468 36.2038C19.6535 36.2038 21.6073 35.5602 23.3084 34.2729C25.0094 32.9857 26.3426 31.2157 27.308 28.963C28.2734 26.6644 28.7562 23.9979 28.7562 20.9637Z" fill="#76E094"/>
<path d="M55.0694 3.85931C59.4845 4.48636 63.8158 6.03021 68.0633 8.49084C72.2654 10.945 76.302 13.9097 80.1733 17.3849L77.2217 21.493C73.4546 18.2648 69.6328 15.586 65.7561 13.4567C61.8339 11.3209 58.0749 9.9976 54.4791 9.4869C52.2488 9.17014 49.8855 9.13631 47.3891 9.3854C44.8991 9.58898 42.4288 9.98109 39.9782 10.5617C37.5276 11.1424 35.2526 11.7944 33.1531 12.5178C31.0537 13.2411 29.3054 13.9447 27.9081 14.6285L26.5192 9.69498C31.4523 7.65597 36.2816 6.02014 41.0073 4.78749C45.7394 3.50932 50.4267 3.19993 55.0694 3.85931Z" fill="#76E094"/>
</svg>
