<svg width="53" height="53" viewBox="0 0 53 53" fill="none" xmlns="http://www.w3.org/2000/svg">
<path fill-rule="evenodd" clip-rule="evenodd" d="M36.5316 11.2023H15.749C12.8796 11.2023 10.5534 13.5285 10.5534 16.398V37.1805C10.5534 40.05 12.8796 42.3762 15.749 42.3762H36.5316C39.4011 42.3762 41.7272 40.05 41.7272 37.1805V16.398C41.7272 13.5285 39.4011 11.2023 36.5316 11.2023ZM15.749 0.811035C7.14061 0.811035 0.162109 7.78954 0.162109 16.398V37.1805C0.162109 45.7889 7.14061 52.7674 15.749 52.7674H36.5316C45.14 52.7674 52.1185 45.7889 52.1185 37.1805V16.398C52.1185 7.78954 45.14 0.811035 36.5316 0.811035H15.749Z" fill="#76E094"/>
</svg>
