<svg width="204" height="204" viewBox="0 0 204 204" fill="none" xmlns="http://www.w3.org/2000/svg">
<path fill-rule="evenodd" clip-rule="evenodd" d="M142.8 40.8H61.2C49.9334 40.8 40.8 49.9334 40.8 61.2V142.8C40.8 154.067 49.9334 163.2 61.2 163.2H142.8C154.067 163.2 163.2 154.067 163.2 142.8V61.2C163.2 49.9334 154.067 40.8 142.8 40.8ZM61.2 0C27.4002 0 0 27.4002 0 61.2V142.8C0 176.6 27.4002 204 61.2 204H142.8C176.6 204 204 176.6 204 142.8V61.2C204 27.4002 176.6 0 142.8 0H61.2Z" fill="#FFCA27"/>
</svg>
