<svg width="190" height="190" viewBox="0 0 190 190" fill="none" xmlns="http://www.w3.org/2000/svg">
<path fill-rule="evenodd" clip-rule="evenodd" d="M145.993 26.1596C150.153 16.9265 146.042 6.06861 136.809 1.90771C127.576 -2.25319 116.718 1.85859 112.557 11.0916L86.1879 69.6042L26.6304 42.7645C17.3974 38.6036 6.53949 42.7153 2.37859 51.9484C-1.7823 61.1814 2.32947 72.0393 11.5625 76.2002L71.12 103.04L43.8093 163.642C39.6484 172.875 43.7602 183.733 52.9933 187.894C62.2263 192.055 73.0842 187.943 77.2451 178.71L104.556 118.108L164.113 144.948C173.346 149.109 184.204 144.997 188.365 135.764C192.526 126.531 188.414 115.673 179.181 111.512L119.624 84.6722L145.993 26.1596Z" fill="#C64F4B"/>
</svg>
